<svg width="416" height="367" viewBox="0 0 416 367" fill="none" xmlns="http://www.w3.org/2000/svg">
<g filter="url(#filter0_d_338_30)">
<path d="M208 355.272C297.093 355.272 369.317 351.056 369.317 345.854C369.317 340.652 297.093 336.436 208 336.436C118.907 336.436 46.6835 340.652 46.6835 345.854C46.6835 351.056 118.907 355.272 208 355.272Z" fill="#F5F5F5" fill-opacity="0.38"/>
<path d="M352.676 152.514L265.441 152.015L271.066 91.7863L358.292 92.2938L352.676 152.514Z" fill="#00B373"/>
<path opacity="0.5" d="M271.066 91.7863L265.441 152.015L352.676 152.514L358.292 92.2938L271.066 91.7863Z" fill="white"/>
<g opacity="0.2">
<path d="M291.2 123.91C290.508 123.617 289.796 123.373 289.07 123.178C288.649 123.061 288.221 122.97 287.789 122.903C287.598 122.698 287.454 122.452 287.369 122.184C287.285 121.917 287.26 121.634 287.298 121.356C287.403 120.963 287.546 120.582 287.722 120.216L287.639 120.157C288.538 119.903 289.363 119.436 290.043 118.796C290.724 118.156 291.24 117.362 291.549 116.48C292.007 115.069 292.313 113.613 292.465 112.137C292.465 111.921 292.265 111.172 292.298 110.956C292.332 110.739 292.556 110.232 292.581 110.049C292.767 108.899 292.617 107.72 292.149 106.654C291.383 105.414 290.21 104.84 287.639 104.732C284.428 104.582 281.89 105.564 281.524 107.453C279.702 116.771 282.481 118.136 283.188 118.926C283.187 120.406 282.669 121.839 281.724 122.978C280.581 123.181 279.478 123.563 278.454 124.109C277.738 124.492 274.843 125.973 274.41 126.655C272.871 129.151 271.648 134.826 271.648 134.826L296.184 134.95V129.027C296.051 128.554 295.869 128.097 295.643 127.662C294.641 125.934 293.071 124.608 291.2 123.91Z" fill="black"/>
</g>
<path d="M282.963 149.461H269.751L270.833 137.072H283.953L282.963 149.461Z" fill="white"/>
<path opacity="0.1" d="M284.744 137.072H320.203L319.122 149.461H283.953L284.744 137.072Z" fill="black"/>
<path opacity="0.3" d="M350.48 134.518H302.49L305.369 101.637H353.359L350.48 134.518Z" fill="white"/>
<g opacity="0.2">
<path d="M348.042 127.729C347.888 127.726 347.736 127.695 347.593 127.637C347.144 127.382 346.782 126.999 346.554 126.536C346.325 126.073 346.241 125.553 346.312 125.041C346.337 124.645 346.385 124.251 346.453 123.86C346.564 123.313 346.609 122.754 346.586 122.196C346.52 121.322 345.929 120.374 345.089 120.357C344.721 120.392 344.373 120.541 344.095 120.785C343.817 121.028 343.624 121.353 343.541 121.713C343.395 122.225 343.317 122.754 343.308 123.286C343.308 123.56 343.308 123.827 343.242 124.118C343.22 124.551 343.104 124.975 342.901 125.359C342.699 125.742 342.414 126.077 342.068 126.339C341.839 126.469 341.583 126.543 341.319 126.555C341.056 126.566 340.794 126.515 340.554 126.406C340.274 126.281 340.051 126.055 339.93 125.773L338.691 126.514C338.668 126.524 338.644 126.53 338.62 126.53C338.595 126.53 338.571 126.524 338.549 126.514C338.524 126.509 338.5 126.499 338.479 126.483C338.459 126.467 338.443 126.446 338.433 126.422C338.198 125.947 337.993 125.458 337.817 124.958C337.759 124.786 337.646 124.637 337.496 124.535C337.346 124.433 337.166 124.383 336.985 124.392C336.799 124.385 336.616 124.44 336.466 124.548C336.315 124.657 336.205 124.813 336.153 124.991L335.429 127.221C335.418 127.257 335.396 127.289 335.367 127.311C335.337 127.333 335.3 127.346 335.263 127.346C335.224 127.345 335.187 127.333 335.156 127.31C335.125 127.288 335.101 127.257 335.088 127.221L334.739 126.223C334.678 126.318 334.605 126.405 334.522 126.481C334.295 126.687 333.997 126.798 333.69 126.789C333.53 126.78 333.374 126.739 333.231 126.667C333.088 126.596 332.961 126.495 332.858 126.373C332.784 126.285 332.722 126.187 332.675 126.081C332.602 126.154 332.521 126.218 332.434 126.273C332.311 126.348 332.173 126.398 332.03 126.418C331.887 126.438 331.741 126.428 331.602 126.389C331.461 126.338 331.333 126.257 331.225 126.152C331.117 126.047 331.033 125.921 330.978 125.782C331.006 125.716 331.009 125.643 330.987 125.576C330.964 125.508 330.918 125.452 330.857 125.416C330.796 125.38 330.723 125.368 330.654 125.382C330.584 125.395 330.522 125.434 330.479 125.491C330.252 125.483 330.03 125.423 329.831 125.315C329.631 125.206 329.46 125.053 329.331 124.867C329.15 124.562 329.042 124.221 329.014 123.868C328.909 123.973 328.791 124.065 328.665 124.143C328.321 124.343 327.931 124.449 327.533 124.449C327.136 124.449 326.745 124.343 326.402 124.143C325.337 123.461 324.913 122.154 324.572 120.881L322.458 112.919C322.304 112.145 322.008 111.406 321.585 110.739C321.378 110.43 321.092 110.183 320.757 110.022C320.422 109.861 320.05 109.792 319.679 109.824C319.438 109.884 319.203 109.971 318.98 110.082C318.681 110.235 318.357 110.333 318.024 110.373C317.818 110.387 317.612 110.343 317.429 110.246C317.247 110.149 317.096 110.003 316.992 109.824V109.741L315.045 111.58C315.012 111.609 314.969 111.625 314.924 111.625C314.88 111.625 314.837 111.609 314.804 111.58C314.776 111.545 314.761 111.503 314.761 111.459C314.761 111.415 314.776 111.372 314.804 111.338C314.836 111.303 314.854 111.257 314.854 111.209C314.854 111.162 314.836 111.116 314.804 111.08C314.735 110.994 314.643 110.929 314.538 110.893C314.433 110.858 314.32 110.853 314.213 110.881C313.912 111.022 313.658 111.248 313.481 111.53C313.398 111.629 313.323 111.729 313.24 111.821C313.076 112.059 312.829 112.228 312.548 112.295C312.267 112.363 311.971 112.324 311.717 112.187C311.596 112.083 311.495 111.96 311.418 111.821C311.384 111.759 311.345 111.701 311.301 111.646C311.088 111.426 310.803 111.29 310.498 111.261C310.193 111.232 309.888 111.312 309.637 111.488C309.09 111.875 308.645 112.389 308.339 112.986C308.325 113.011 308.305 113.032 308.28 113.047C308.255 113.062 308.227 113.069 308.198 113.069C308.167 113.07 308.137 113.064 308.11 113.05C308.082 113.037 308.058 113.018 308.04 112.994L307.258 111.887C307.237 111.869 307.222 111.846 307.211 111.821C307.201 111.796 307.196 111.768 307.198 111.741C307.2 111.714 307.207 111.687 307.221 111.663C307.234 111.64 307.252 111.619 307.274 111.603C307.297 111.587 307.322 111.576 307.349 111.572C307.376 111.567 307.404 111.568 307.43 111.576C307.456 111.583 307.48 111.596 307.501 111.614C307.522 111.632 307.538 111.654 307.549 111.679L308.181 112.561C308.488 112.003 308.925 111.527 309.454 111.172C309.627 111.037 309.827 110.942 310.041 110.891C310.254 110.841 310.476 110.838 310.691 110.881C310.905 110.925 311.108 111.014 311.286 111.143C311.463 111.272 311.61 111.438 311.717 111.629C311.771 111.732 311.841 111.825 311.925 111.904C312.233 112.137 312.716 111.862 312.965 111.58C313.037 111.496 313.112 111.405 313.19 111.305C313.41 110.97 313.722 110.704 314.088 110.54C314.267 110.489 314.457 110.493 314.633 110.55C314.809 110.608 314.964 110.717 315.078 110.864C315.115 110.907 315.145 110.955 315.17 111.005L317.2 109.084C317.216 109.067 317.236 109.054 317.257 109.045C317.279 109.036 317.302 109.031 317.325 109.031C317.348 109.031 317.371 109.036 317.392 109.045C317.414 109.054 317.433 109.067 317.45 109.084C317.481 109.117 317.499 109.162 317.499 109.208C317.499 109.255 317.481 109.299 317.45 109.333C317.406 109.374 317.378 109.428 317.369 109.487C317.36 109.546 317.371 109.606 317.4 109.658C317.469 109.784 317.569 109.89 317.692 109.966C317.814 110.042 317.955 110.085 318.099 110.09C318.389 110.051 318.671 109.961 318.931 109.824C319.18 109.703 319.442 109.611 319.713 109.549C320.151 109.5 320.594 109.572 320.993 109.758C321.393 109.945 321.733 110.238 321.976 110.606C322.427 111.306 322.743 112.085 322.908 112.902L325.021 120.865C325.354 122.121 325.736 123.302 326.685 123.91C326.971 124.077 327.297 124.165 327.629 124.165C327.961 124.165 328.287 124.077 328.573 123.91C328.828 123.766 329.018 123.531 329.106 123.253V122.886C329.11 122.842 329.13 122.801 329.162 122.77C329.194 122.74 329.236 122.722 329.281 122.72C329.326 122.722 329.369 122.739 329.403 122.77C329.436 122.8 329.458 122.842 329.464 122.886C329.485 123.024 329.485 123.165 329.464 123.302C329.397 123.801 329.49 124.308 329.73 124.75C329.824 124.885 329.948 124.997 330.093 125.076C330.237 125.155 330.397 125.2 330.562 125.208C330.66 125.214 330.758 125.195 330.847 125.152C330.935 125.11 331.012 125.046 331.069 124.966C331.096 124.93 331.136 124.904 331.18 124.895C331.225 124.886 331.271 124.893 331.311 124.917C331.331 124.928 331.349 124.943 331.364 124.961C331.378 124.98 331.389 125.001 331.395 125.023C331.401 125.046 331.403 125.069 331.4 125.092C331.397 125.115 331.389 125.138 331.377 125.158C331.338 125.247 331.317 125.343 331.317 125.441C331.317 125.538 331.338 125.634 331.377 125.724C331.435 125.858 331.535 125.97 331.662 126.044C331.789 126.117 331.936 126.148 332.082 126.131C332.228 126.114 332.364 126.051 332.471 125.951C332.578 125.85 332.649 125.718 332.675 125.574C332.683 125.528 332.708 125.487 332.746 125.46C332.783 125.432 332.829 125.419 332.875 125.424C332.898 125.427 332.92 125.435 332.94 125.446C332.96 125.458 332.978 125.474 332.992 125.492C333.006 125.511 333.016 125.532 333.021 125.555C333.027 125.577 333.028 125.601 333.025 125.624C333.012 125.839 333.084 126.051 333.224 126.214C333.363 126.379 333.56 126.483 333.773 126.506C333.988 126.511 334.197 126.434 334.356 126.289C334.516 126.146 334.614 125.946 334.63 125.732C334.63 125.69 334.645 125.649 334.672 125.616C334.7 125.584 334.738 125.563 334.78 125.557C334.822 125.551 334.864 125.559 334.901 125.58C334.937 125.601 334.965 125.634 334.98 125.674L335.329 126.68L335.887 124.958C335.97 124.715 336.127 124.505 336.336 124.355C336.545 124.206 336.795 124.126 337.051 124.126C337.305 124.125 337.553 124.205 337.758 124.355C337.963 124.505 338.115 124.716 338.191 124.958C338.349 125.382 338.524 125.79 338.715 126.214L339.988 125.449C340.014 125.434 340.042 125.427 340.072 125.427C340.101 125.427 340.13 125.434 340.155 125.449C340.183 125.461 340.207 125.481 340.225 125.506C340.242 125.531 340.253 125.56 340.255 125.59C340.282 125.723 340.341 125.846 340.426 125.951C340.512 126.055 340.621 126.137 340.746 126.189C340.929 126.28 341.133 126.324 341.337 126.316C341.542 126.309 341.742 126.251 341.919 126.148C342.219 125.913 342.464 125.616 342.638 125.277C342.812 124.938 342.91 124.565 342.925 124.184C342.925 123.926 342.975 123.669 342.992 123.411C343.006 122.848 343.09 122.289 343.242 121.747C343.35 121.313 343.593 120.924 343.935 120.636C344.277 120.348 344.701 120.175 345.147 120.141C345.663 120.226 346.131 120.492 346.468 120.892C346.805 121.291 346.989 121.798 346.986 122.321C347.013 122.895 346.968 123.471 346.852 124.035C346.781 124.414 346.734 124.797 346.711 125.183C346.646 125.62 346.711 126.066 346.899 126.466C347.087 126.866 347.389 127.201 347.768 127.429C347.99 127.496 348.227 127.492 348.448 127.419C348.668 127.346 348.86 127.207 348.999 127.021C349.107 126.914 349.175 126.773 349.192 126.622C349.209 126.47 349.173 126.318 349.091 126.189C349.07 126.171 349.055 126.148 349.044 126.123C349.034 126.098 349.029 126.071 349.031 126.043C349.033 126.016 349.04 125.989 349.054 125.966C349.067 125.942 349.085 125.921 349.107 125.905C349.13 125.889 349.155 125.879 349.182 125.874C349.209 125.869 349.236 125.87 349.263 125.878C349.289 125.885 349.313 125.898 349.334 125.916C349.355 125.934 349.371 125.956 349.382 125.981C349.509 126.168 349.569 126.393 349.551 126.619C349.533 126.844 349.438 127.057 349.282 127.221C349.125 127.391 348.933 127.525 348.718 127.613C348.504 127.7 348.273 127.74 348.042 127.729Z" fill="black"/>
</g>
<g opacity="0.1">
<path d="M328.781 140.608L327.642 146.299H326.319L324.48 143.196L323.856 146.316H322.284L323.415 140.625H324.746L326.627 143.736L327.242 140.625L328.781 140.608Z" fill="black"/>
<path d="M331.261 141.873L331.069 142.829H333.565L333.333 144.028H330.795L330.595 145.068H333.632L333.374 146.316H328.815L329.955 140.625H334.406L334.148 141.873H331.261Z" fill="black"/>
<path d="M344.223 140.608L341.245 146.299H339.523L339.107 142.871L337.293 146.299H335.562L334.863 140.608H336.452L336.885 144.244L338.807 140.608H340.288L340.687 144.294L342.626 140.608H344.223Z" fill="black"/>
<path d="M343.408 145.816L344.049 144.618C344.613 144.979 345.268 145.172 345.937 145.176C346.553 145.176 346.911 144.984 346.911 144.677C346.911 143.911 344.148 144.327 344.148 142.547C344.148 141.315 345.197 140.508 346.877 140.508C347.594 140.486 348.304 140.655 348.932 140.999L348.342 142.197C347.876 141.906 347.335 141.755 346.786 141.765C346.12 141.765 345.763 142.006 345.763 142.314C345.763 143.096 348.525 142.646 348.525 144.402C348.525 145.625 347.451 146.424 345.787 146.424C344.953 146.448 344.129 146.238 343.408 145.816Z" fill="black"/>
</g>
<path d="M224.781 78.0915L221.312 118.236C221.288 118.489 221.171 118.726 220.983 118.899C220.796 119.072 220.552 119.171 220.297 119.176L183.173 119.242C183.055 119.243 182.938 119.219 182.83 119.171C182.722 119.123 182.625 119.053 182.546 118.964C182.468 118.876 182.409 118.772 182.373 118.66C182.338 118.547 182.327 118.428 182.341 118.31L186.817 66.0941C186.842 65.8402 186.959 65.6041 187.146 65.4307C187.333 65.2574 187.577 65.1589 187.832 65.1539H212.842L224.781 78.0915Z" fill="#00B373"/>
<g opacity="0.5">
<path d="M224.781 78.0915L221.312 118.236C221.288 118.489 221.171 118.726 220.983 118.899C220.796 119.072 220.552 119.171 220.297 119.176L183.173 119.242C183.055 119.243 182.938 119.219 182.83 119.171C182.722 119.123 182.625 119.053 182.546 118.964C182.468 118.876 182.409 118.772 182.373 118.66C182.338 118.547 182.327 118.428 182.341 118.31L186.817 66.0941C186.842 65.8402 186.959 65.6041 187.146 65.4307C187.333 65.2574 187.577 65.1589 187.832 65.1539H212.842L224.781 78.0915Z" fill="white"/>
</g>
<path opacity="0.2" d="M217.335 90.1971L191.127 90.3219C190.921 90.3207 190.722 90.3957 190.569 90.5324C190.415 90.6692 190.318 90.858 190.295 91.0624V91.3037C190.286 91.3979 190.296 91.4931 190.326 91.5829C190.357 91.6727 190.406 91.755 190.47 91.8243C190.535 91.8936 190.614 91.9483 190.701 91.9848C190.788 92.0213 190.883 92.0387 190.977 92.0359L217.185 91.9111C217.391 91.9123 217.59 91.8373 217.743 91.7006C217.897 91.5638 217.995 91.375 218.017 91.1706V90.9293C218.027 90.835 218.016 90.7398 217.986 90.6501C217.956 90.5603 217.907 90.478 217.842 90.4087C217.777 90.3394 217.699 90.2846 217.611 90.2482C217.524 90.2117 217.43 90.1943 217.335 90.1971Z" fill="black"/>
<path opacity="0.2" d="M216.753 97.2109L190.528 97.344C190.322 97.3428 190.123 97.4177 189.97 97.5545C189.816 97.6912 189.719 97.88 189.696 98.0845V98.3258C189.685 98.4196 189.695 98.5146 189.724 98.6044C189.753 98.6942 189.801 98.7766 189.865 98.8461C189.929 98.9156 190.007 98.9705 190.095 99.007C190.182 99.0436 190.276 99.0609 190.37 99.0579L216.578 98.9331C216.784 98.9344 216.982 98.8594 217.136 98.7226C217.29 98.5859 217.387 98.3971 217.41 98.1926V97.9514C217.42 97.8586 217.411 97.7646 217.383 97.6756C217.355 97.5866 217.308 97.5045 217.246 97.4346C217.184 97.3648 217.108 97.3088 217.023 97.2702C216.938 97.2317 216.846 97.2115 216.753 97.2109Z" fill="black"/>
<path opacity="0.2" d="M216.17 104.216L189.962 104.341C189.757 104.34 189.558 104.415 189.404 104.552C189.25 104.688 189.153 104.877 189.13 105.082V105.323C189.12 105.417 189.129 105.512 189.158 105.603C189.187 105.693 189.236 105.776 189.299 105.846C189.363 105.916 189.441 105.972 189.528 106.009C189.615 106.047 189.709 106.065 189.804 106.063L216.012 105.93C216.218 105.931 216.417 105.857 216.57 105.72C216.724 105.583 216.822 105.394 216.844 105.19V104.948C216.854 104.855 216.843 104.76 216.813 104.671C216.784 104.582 216.735 104.5 216.672 104.431C216.608 104.362 216.53 104.307 216.444 104.27C216.358 104.233 216.264 104.215 216.17 104.216Z" fill="black"/>
<path d="M212.867 65.079L211.836 77.193C211.821 77.3103 211.832 77.4293 211.868 77.5421C211.903 77.6549 211.962 77.7588 212.041 77.8469C212.12 77.9351 212.216 78.0055 212.324 78.0534C212.432 78.1013 212.549 78.1257 212.668 78.1248H224.74L212.867 65.079Z" fill="#00B373"/>
<path opacity="0.7" d="M212.867 65.079L211.836 77.193C211.821 77.3103 211.832 77.4293 211.868 77.5421C211.903 77.6549 211.962 77.7588 212.041 77.8469C212.12 77.9351 212.216 78.0055 212.324 78.0534C212.432 78.1013 212.549 78.1257 212.668 78.1248H224.74L212.867 65.079Z" fill="white"/>
<g opacity="0.7">
<path d="M106.787 148.412H69.8298C68.0726 148.444 66.3289 148.101 64.7147 147.406C63.1004 146.711 61.6528 145.681 60.468 144.382C59.2833 143.084 58.3888 141.549 57.8439 139.878C57.299 138.207 57.1164 136.439 57.3082 134.692L62.3501 77.0099C62.7298 73.2927 64.4582 69.8434 67.2084 67.3139C69.9586 64.7844 73.5402 63.35 77.2762 63.2819H114.234C115.988 63.256 117.728 63.6036 119.338 64.3015C120.948 64.9995 122.391 66.0319 123.571 67.3302C124.751 68.6285 125.642 70.1631 126.184 71.832C126.725 73.5008 126.906 75.2659 126.714 77.0099L121.663 134.692C121.286 138.401 119.565 141.844 116.825 144.371C114.085 146.898 110.514 148.336 106.787 148.412Z" fill="#00B373"/>
<path opacity="0.5" d="M106.787 148.412H69.8298C68.0726 148.444 66.3289 148.101 64.7147 147.406C63.1004 146.711 61.6528 145.681 60.468 144.382C59.2833 143.084 58.3888 141.549 57.8439 139.878C57.299 138.207 57.1164 136.439 57.3082 134.692L62.3501 77.0099C62.7298 73.2927 64.4582 69.8434 67.2084 67.3139C69.9586 64.7844 73.5402 63.35 77.2762 63.2819H114.234C115.988 63.256 117.728 63.6036 119.338 64.3015C120.948 64.9995 122.391 66.0319 123.571 67.3302C124.751 68.6285 125.642 70.1631 126.184 71.832C126.725 73.5008 126.906 75.2659 126.714 77.0099L121.663 134.692C121.286 138.401 119.565 141.844 116.825 144.371C114.085 146.898 110.514 148.336 106.787 148.412Z" fill="white"/>
</g>
<path d="M106.671 140.608H76.8019C76.4835 140.614 76.1675 140.552 75.8754 140.425C75.5832 140.298 75.3217 140.11 75.1087 139.873C74.8956 139.636 74.736 139.357 74.6405 139.053C74.5451 138.749 74.5161 138.428 74.5555 138.112C74.6168 137.439 74.9239 136.813 75.4182 136.352C75.9125 135.892 76.5592 135.63 77.2346 135.616H107.103C107.422 135.61 107.738 135.673 108.03 135.799C108.322 135.926 108.584 136.114 108.797 136.351C109.01 136.588 109.169 136.868 109.265 137.171C109.36 137.475 109.389 137.796 109.35 138.112C109.288 138.785 108.981 139.411 108.487 139.872C107.993 140.332 107.346 140.594 106.671 140.608Z" fill="white"/>
<path d="M109.916 103.501H89.3318C89.013 103.508 88.6964 103.447 88.4035 103.32C88.1107 103.194 87.8487 103.006 87.6353 102.769C87.422 102.532 87.2624 102.251 87.1675 101.947C87.0726 101.642 87.0446 101.321 87.0854 101.005C87.1449 100.331 87.4515 99.7038 87.9462 99.2429C88.4408 98.7821 89.0885 98.5206 89.7645 98.5088H110.348C110.667 98.5028 110.983 98.5653 111.275 98.6921C111.567 98.8189 111.828 99.0071 112.041 99.2438C112.254 99.4805 112.414 99.7603 112.51 100.064C112.605 100.368 112.634 100.689 112.595 101.005C112.533 101.678 112.226 102.304 111.732 102.765C111.238 103.225 110.591 103.487 109.916 103.501Z" fill="white"/>
<path d="M109.067 113.152H81.6109C81.2921 113.159 80.9754 113.098 80.6826 112.972C80.3898 112.845 80.1277 112.657 79.9144 112.42C79.701 112.183 79.5414 111.903 79.4465 111.598C79.3516 111.294 79.3236 110.972 79.3645 110.656C79.4238 109.984 79.7292 109.358 80.2221 108.897C80.715 108.436 81.3607 108.174 82.0352 108.16H109.491C109.81 108.154 110.126 108.216 110.418 108.343C110.71 108.47 110.971 108.658 111.184 108.895C111.397 109.132 111.557 109.411 111.653 109.715C111.748 110.019 111.777 110.34 111.738 110.656C111.678 111.328 111.373 111.955 110.88 112.415C110.387 112.876 109.741 113.138 109.067 113.152Z" fill="white"/>
<path d="M108.218 122.87H87.6346C87.3161 122.876 87.0001 122.813 86.708 122.686C86.4159 122.56 86.1544 122.372 85.9413 122.135C85.7283 121.898 85.5686 121.618 85.4732 121.314C85.3777 121.011 85.3487 120.69 85.3882 120.374C85.4477 119.7 85.7543 119.073 86.2489 118.612C86.7435 118.151 87.3912 117.89 88.0672 117.878H108.651C108.969 117.872 109.285 117.934 109.577 118.061C109.87 118.188 110.131 118.376 110.344 118.613C110.557 118.849 110.717 119.129 110.812 119.433C110.908 119.737 110.937 120.058 110.897 120.374C110.838 121.047 110.531 121.675 110.037 122.136C109.542 122.597 108.894 122.858 108.218 122.87Z" fill="white"/>
<path d="M107.37 132.554H86.7859C86.4675 132.56 86.1515 132.498 85.8593 132.371C85.5672 132.244 85.3057 132.056 85.0927 131.819C84.8796 131.583 84.72 131.303 84.6245 130.999C84.5291 130.695 84.5001 130.374 84.5395 130.058C84.6008 129.385 84.9079 128.759 85.4022 128.298C85.8965 127.838 86.5432 127.576 87.2186 127.562H107.802C108.121 127.555 108.438 127.616 108.731 127.743C109.023 127.869 109.285 128.057 109.499 128.294C109.712 128.531 109.872 128.812 109.967 129.116C110.061 129.421 110.089 129.742 110.049 130.058C109.989 130.732 109.683 131.359 109.188 131.82C108.693 132.281 108.046 132.542 107.37 132.554Z" fill="white"/>
<path opacity="0.3" d="M112.154 93.9162H72.983L74.9965 70.9363H114.167L112.154 93.9162Z" fill="black"/>
<path d="M259.377 130.811L249.202 133.568L249.979 136.435L260.153 133.678L259.377 130.811Z" fill="#00B373"/>
<path opacity="0.3" d="M259.377 130.811L249.202 133.568L249.979 136.435L260.153 133.678L259.377 130.811Z" fill="white"/>
<path d="M251.289 133.004L248.843 132.787L250.066 137.322L252.046 135.874L251.289 133.004Z" fill="#263238"/>
<path d="M270.527 127.046L255.293 131.173L256.529 135.734L271.763 131.607L270.527 127.046Z" fill="#00B373"/>
<path opacity="0.5" d="M270.527 127.046L255.293 131.173L256.529 135.734L271.763 131.607L270.527 127.046Z" fill="white"/>
<path d="M282.481 133.22L265.217 134.052L263.603 128.128L278.936 120.157L280.01 122.587C281.091 125.075 281.808 127.707 282.139 130.399L282.481 133.22Z" fill="#263238"/>
<path d="M228.8 172.898C228.8 167.39 231.554 164.578 233.709 161.05L241.496 148.379C241.871 147.772 239.491 151.64 240.814 149.327C241.555 148.038 244.075 148.021 245.091 150.159C242.37 155.151 241.879 159.311 240.265 164.769C239.452 167.313 238.508 169.812 237.436 172.257C232.428 181.551 228.8 175.294 228.8 172.898Z" fill="#263238"/>
<path d="M240.448 150.176C241.147 148.745 242.711 145.833 243.402 144.394C243.499 144.148 243.656 143.931 243.859 143.761C244.037 143.663 244.232 143.598 244.433 143.57C245.962 143.16 247.565 143.108 249.117 143.42C249.233 143.435 249.339 143.491 249.417 143.578C249.475 143.662 249.506 143.76 249.508 143.861C249.625 144.693 249.741 145.592 249.866 146.457C249.912 146.643 249.912 146.837 249.866 147.023C249.781 147.199 249.655 147.353 249.5 147.472L247.279 149.427C246.932 149.791 246.496 150.058 246.014 150.201C245.239 150.232 244.473 150.026 243.818 149.61C242.944 149.269 240.448 150.176 240.448 150.176Z" fill="#CB7A63"/>
<g opacity="0.1">
<path d="M240.448 150.176C241.147 148.745 242.711 145.833 243.402 144.394C243.499 144.148 243.656 143.931 243.859 143.761C244.037 143.663 244.232 143.598 244.433 143.57C245.962 143.16 247.565 143.108 249.117 143.42C249.233 143.435 249.339 143.491 249.417 143.578C249.475 143.662 249.506 143.76 249.508 143.861C249.625 144.693 249.741 145.592 249.866 146.457C249.912 146.643 249.912 146.837 249.866 147.023C249.781 147.199 249.655 147.353 249.5 147.472L247.279 149.427C246.932 149.791 246.496 150.058 246.014 150.201C245.239 150.232 244.473 150.026 243.818 149.61C242.944 149.269 240.448 150.176 240.448 150.176Z" fill="black"/>
</g>
<path d="M247.553 134.626C247.836 134.576 248.136 134.876 248.219 135.3C248.302 135.724 248.144 136.132 247.861 136.132C247.578 136.132 247.287 135.882 247.204 135.458C247.121 135.034 247.279 134.676 247.553 134.626Z" fill="#263238"/>
<path d="M248.319 140.284C248.684 140.307 249.05 140.25 249.391 140.116C249.732 139.982 250.039 139.775 250.291 139.51C249.23 138.55 248.307 137.45 247.545 136.24L248.319 140.284Z" fill="#B74D3C"/>
<path d="M245.357 133.37C245.567 133.124 245.833 132.932 246.133 132.811C246.433 132.689 246.757 132.641 247.079 132.671H247.162C247.231 132.671 247.296 132.644 247.345 132.595C247.393 132.547 247.42 132.481 247.42 132.413C247.42 132.344 247.393 132.279 247.345 132.23C247.296 132.182 247.231 132.155 247.162 132.155C246.759 132.106 246.349 132.155 245.969 132.3C245.589 132.446 245.251 132.681 244.982 132.987C244.94 133.032 244.917 133.091 244.916 133.153C244.915 133.187 244.92 133.221 244.932 133.253C244.944 133.284 244.962 133.313 244.985 133.338C245.009 133.363 245.036 133.383 245.067 133.397C245.098 133.411 245.132 133.418 245.165 133.42C245.199 133.425 245.234 133.424 245.266 133.415C245.299 133.406 245.33 133.391 245.357 133.37Z" fill="#263238"/>
<path d="M241.987 159.328C234.641 159.253 233.601 155.235 233.601 155.235C235.83 153.146 236.022 149.228 235.622 145.725C236.199 146.562 236.927 147.285 237.769 147.855C238.536 148.4 239.41 148.778 240.334 148.963C241.257 149.148 242.209 149.136 243.127 148.928C243.157 148.935 243.189 148.935 243.219 148.928C243.197 148.996 243.183 149.065 243.177 149.136C242.678 151.932 243.002 154.96 245.923 155.875C245.923 155.85 250.083 159.411 241.987 159.328Z" fill="#CB7A63"/>
<path d="M243.443 147.871C243.35 148.211 243.275 148.555 243.219 148.903C243.189 148.91 243.157 148.91 243.127 148.903C242.209 149.111 241.257 149.123 240.334 148.938C239.41 148.753 238.536 148.375 237.769 147.83C236.927 147.26 236.199 146.537 235.622 145.7C235.531 144.81 235.389 143.936 235.24 143.146L243.144 147.68L243.443 147.871Z" fill="#CB7A63"/>
<path d="M231.354 155.867C231.354 155.867 232.586 152.306 234.358 151.208C236.13 150.109 243.801 151.449 244.999 151.948C246.197 152.447 247.354 155.276 247.354 155.276L231.354 155.867Z" fill="#00B373"/>
<path opacity="0.8" d="M231.354 155.867C231.354 155.867 232.586 152.306 234.358 151.208C236.13 150.109 243.801 151.449 244.999 151.948C246.197 152.447 247.354 155.276 247.354 155.276L231.354 155.867Z" fill="white"/>
<path d="M249.766 154.752C248.577 154.527 247.27 154.319 245.898 154.186C241.805 153.903 237.699 153.862 233.601 154.061L230.897 154.261C226.604 154.486 222.219 158.113 222.993 162.34C227.261 185.594 225.638 198.499 225.123 202.276L254.043 202.559C257.529 178.822 256.955 166.783 255.907 160.959C255.636 159.423 254.903 158.006 253.806 156.897C252.709 155.788 251.3 155.04 249.766 154.752Z" fill="#263238"/>
<path opacity="0.2" d="M255.166 194.139L254.076 202.517C256.314 185.361 257.204 178.206 256.531 166.242L249.043 163.862C253.685 179.521 252.013 183.381 255.166 194.139Z" fill="black"/>
<path d="M248.826 141.989C248.778 143.251 248.409 144.481 247.754 145.561C247.098 146.641 246.179 147.536 245.082 148.163H245.041C244.475 148.501 243.86 148.748 243.219 148.895C243.188 148.902 243.157 148.902 243.127 148.895C242.209 149.103 241.257 149.114 240.334 148.929C239.41 148.744 238.536 148.367 237.769 147.821C236.927 147.251 236.199 146.529 235.622 145.692C234.225 143.686 233.684 141.032 232.727 137.313C232.407 136.107 232.4 134.84 232.708 133.63C233.015 132.421 233.625 131.31 234.482 130.403C235.338 129.495 236.412 128.822 237.602 128.445C238.792 128.069 240.058 128.003 241.28 128.253C246.821 129.359 249.043 137.03 248.826 141.989Z" fill="#CB7A63"/>
<path opacity="0.2" d="M245.041 148.171C244.475 148.509 243.86 148.756 243.219 148.903L243.485 145.642C243.485 145.642 244.658 148.171 245.041 148.171Z" fill="black"/>
<path d="M245.606 138.694C243.684 139.576 244.492 143.828 242.753 145.093C242.54 145.26 242.297 145.384 242.037 145.459C241.205 145.65 237.611 140.733 237.311 139.535C236.538 136.406 236.546 134.418 238.909 133.087C240.568 132.208 242.328 131.535 244.15 131.082C244.982 131.082 245.814 132.488 245.997 133.861C246.064 134.485 245.165 135.292 245.507 135.599C246.124 136.209 246.584 136.96 246.846 137.788C246.465 138.132 246.05 138.435 245.606 138.694Z" fill="#263238"/>
<path d="M241.538 145.45L238.102 146.132L235.606 145.725C235.606 145.725 229.615 140.508 229.366 137.172C229.116 133.836 230.481 129.684 234.141 128.328C236.836 127.375 239.601 126.638 242.411 126.123C242.411 126.123 244.774 126.747 245.016 128.012C245.097 128.354 245.105 128.709 245.039 129.055C244.973 129.401 244.834 129.728 244.633 130.017L238.426 132.18C237.805 132.38 237.263 132.773 236.879 133.3C236.495 133.828 236.288 134.464 236.288 135.117C236.371 136.698 241.538 145.45 241.538 145.45Z" fill="#263238"/>
<path d="M243.543 135.158C245.082 135.649 245.839 137.937 245.873 139.385C245.914 140.982 244.833 141.972 243.46 140.874C242.424 140.022 241.699 138.852 241.397 137.546C241.047 135.999 242.012 134.676 243.543 135.158Z" fill="#CB7A63"/>
<path d="M237.444 339.639C237.416 339.634 237.391 339.62 237.371 339.599C237.352 339.578 237.339 339.551 237.336 339.523C237.327 339.496 237.328 339.467 237.339 339.441C237.35 339.415 237.369 339.394 237.395 339.381C237.503 339.34 239.508 338.2 240.465 338.458C240.556 338.477 240.642 338.516 240.718 338.57C240.794 338.624 240.858 338.694 240.906 338.774C240.966 338.86 240.999 338.964 240.999 339.069C240.999 339.175 240.966 339.278 240.906 339.365C240.673 339.706 239.99 339.797 239.242 339.797C238.639 339.796 238.038 339.743 237.444 339.639ZM240.124 338.674C239.331 338.767 238.565 339.016 237.869 339.406C238.942 339.556 240.365 339.548 240.664 339.181C240.723 339.123 240.756 339.048 240.664 338.882C240.638 338.831 240.601 338.787 240.554 338.754C240.508 338.721 240.454 338.699 240.398 338.691C240.31 338.674 240.22 338.674 240.132 338.691L240.124 338.674Z" fill="#00B373"/>
<path d="M237.386 339.606C237.369 339.59 237.354 339.571 237.344 339.549C237.334 339.528 237.329 339.505 237.328 339.481C237.365 338.665 237.676 337.886 238.21 337.268C238.315 337.179 238.437 337.113 238.569 337.074C238.701 337.036 238.839 337.025 238.975 337.043C239.35 337.043 239.483 337.268 239.483 337.426C239.599 338.092 238.235 339.306 237.536 339.622H237.478C237.446 339.625 237.415 339.619 237.386 339.606ZM238.884 337.301C238.703 337.303 238.53 337.374 238.401 337.501C237.975 337.998 237.711 338.613 237.644 339.265C238.36 338.84 239.308 337.867 239.217 337.476C239.217 337.476 239.217 337.326 238.95 337.326H238.867L238.884 337.301Z" fill="#00B373"/>
<path d="M231.662 326.252L237.386 326.261L236.904 339.481L231.146 339.473L231.662 326.252Z" fill="#CB7A63"/>
<path d="M238.252 339.265C242.17 341.669 243.368 341.761 247.894 342.767C248.884 342.992 248.252 345.38 245.889 345.38C241.971 345.38 241.563 345.188 238.218 345.18C235.356 345.18 232.078 345.305 229.798 345.338C229.729 345.346 229.66 345.346 229.59 345.338C229.377 345.287 229.192 345.153 229.077 344.966C228.961 344.779 228.925 344.554 228.975 344.34L230.081 339.231C230.107 339.121 230.17 339.022 230.259 338.951C230.348 338.88 230.458 338.841 230.572 338.84H236.87C237.361 338.85 237.84 338.997 238.252 339.265Z" fill="#263238"/>
<path opacity="0.2" d="M231.662 326.26L231.396 333.05L237.145 333.058L237.386 326.269L231.662 326.26Z" fill="black"/>
<path d="M189.43 339.498C189.422 339.523 189.409 339.547 189.39 339.566C189.371 339.585 189.347 339.598 189.322 339.606C189.293 339.612 189.263 339.608 189.237 339.594C189.211 339.58 189.191 339.558 189.18 339.531C189.13 339.431 188.032 337.418 188.348 336.469C188.37 336.38 188.409 336.296 188.463 336.221C188.517 336.147 188.586 336.084 188.664 336.037C188.752 335.975 188.857 335.943 188.964 335.943C189.071 335.943 189.175 335.975 189.263 336.037C189.588 336.286 189.671 336.968 189.663 337.701C189.637 338.305 189.559 338.906 189.43 339.498ZM188.531 336.81C188.605 337.598 188.831 338.364 189.197 339.065C189.372 338 189.396 336.569 189.03 336.286C188.98 336.22 188.897 336.195 188.731 336.286C188.679 336.312 188.634 336.349 188.599 336.395C188.564 336.441 188.541 336.495 188.531 336.552C188.519 336.638 188.519 336.725 188.531 336.81Z" fill="#00B373"/>
<path d="M189.421 339.548C189.407 339.567 189.388 339.583 189.367 339.593C189.345 339.603 189.321 339.608 189.297 339.606C189.238 339.606 187.683 339.464 187.1 338.691C187.012 338.585 186.948 338.463 186.91 338.331C186.873 338.199 186.864 338.061 186.884 337.925C186.884 337.559 187.125 337.426 187.275 337.426C187.932 337.334 189.139 338.716 189.438 339.406V339.456C189.442 339.472 189.442 339.488 189.439 339.504C189.436 339.519 189.43 339.534 189.421 339.548ZM187.125 338.042C187.133 338.217 187.201 338.384 187.316 338.516C187.808 338.948 188.421 339.218 189.072 339.29C188.656 338.574 187.699 337.626 187.308 337.701C187.308 337.701 187.158 337.701 187.15 337.958V338.042H187.125Z" fill="#00B373"/>
<path d="M192.675 326.169L198.257 326.577L194.963 339.905L189.347 339.498L192.675 326.169Z" fill="#CB7A63"/>
<path d="M188.032 338.757C186.493 340.546 185.677 341.461 181.251 342.842C180.269 343.142 181.101 345.471 183.464 345.263C187.375 344.922 185.22 344.931 188.548 344.639C191.402 344.39 194.68 344.24 196.951 344.082C197.028 344.08 197.104 344.066 197.176 344.04C197.282 344.009 197.38 343.957 197.466 343.887C197.552 343.817 197.622 343.731 197.674 343.633C197.726 343.536 197.758 343.429 197.768 343.318C197.778 343.208 197.766 343.097 197.733 342.992L196.202 338C196.17 337.892 196.1 337.798 196.006 337.736C195.912 337.674 195.799 337.646 195.686 337.659L189.421 338.2C188.903 338.197 188.405 338.397 188.032 338.757Z" fill="#263238"/>
<path opacity="0.2" d="M192.666 326.177L190.961 333.025L196.56 333.432L198.257 326.577L192.666 326.177Z" fill="black"/>
<path d="M225.123 202.226C223.007 205.59 221.235 209.158 219.831 212.876C216.761 221.196 217.851 225.505 216.828 231.121C215.022 240.997 212.326 248.593 210.429 256.081C204.522 279.535 189.862 329.064 189.862 329.064L199.946 331.286C199.946 331.286 220.829 273.745 226.138 256.963C230.922 241.862 243.202 202.176 243.202 202.176L225.123 202.226Z" fill="#00B373"/>
<path opacity="0.4" d="M225.123 202.226C223.007 205.59 221.235 209.158 219.831 212.876C216.761 221.196 217.851 225.505 216.828 231.121C215.022 240.997 212.326 248.593 210.429 256.081C204.522 279.535 189.862 329.064 189.862 329.064L199.946 331.286C199.946 331.286 220.829 273.745 226.138 256.963C230.922 241.862 243.202 202.176 243.202 202.176L225.123 202.226Z" fill="black"/>
<path d="M188.673 327.201L188.573 330.787L200.72 332.101C200.72 332.101 201.802 328.182 201.752 328.182L188.673 327.201Z" fill="#00B373"/>
<path opacity="0.8" d="M188.673 327.201L188.573 330.787L200.72 332.101C200.72 332.101 201.802 328.182 201.752 328.182L188.673 327.201Z" fill="white"/>
<path opacity="0.3" d="M237.528 220.48C233.659 232.96 228.758 248.693 226.146 256.963C226.021 257.363 225.88 257.795 225.747 258.22C226.778 244.408 229.491 221.254 236.429 220.405C236.797 220.348 237.172 220.374 237.528 220.48Z" fill="black"/>
<path d="M234.424 202.176C234.424 202.176 231.479 240.232 231.146 258.228C230.83 274.993 229.89 331.735 229.89 331.735H239.616C239.616 331.735 246.438 273.986 248.161 256.955C249.825 240.831 254.051 202.501 254.051 202.501L234.424 202.176Z" fill="#00B373"/>
<path opacity="0.4" d="M234.424 202.176C234.424 202.176 231.479 240.232 231.146 258.228C230.83 274.993 229.89 331.735 229.89 331.735H239.616C239.616 331.735 246.438 273.986 248.161 256.955C249.825 240.831 254.051 202.501 254.051 202.501L234.424 202.176Z" fill="black"/>
<path d="M225.821 193.357L215.579 214.323L218.292 213.541C222.649 212.279 227.254 212.141 231.679 213.142L234.865 205.878L233.883 213.525H235.281C239.292 213.434 243.273 214.244 246.929 215.896C248.115 216.489 249.341 216.998 250.598 217.418C250.598 217.185 254.026 202.542 254.026 202.542C254.026 202.542 249.484 178.422 225.821 193.357Z" fill="#263238"/>
<path d="M228.442 328.324L228.775 331.893H240.598C240.598 331.893 241.155 327.891 241.114 327.891L228.442 328.324Z" fill="#00B373"/>
<path opacity="0.8" d="M228.442 328.324L228.775 331.893H240.598C240.598 331.893 241.155 327.891 241.114 327.891L228.442 328.324Z" fill="white"/>
<path d="M256.714 137.621C256.714 137.621 253.269 135.824 252.678 134.335L251.846 132.246C251.78 132.047 251.79 131.83 251.877 131.639C251.963 131.448 252.119 131.296 252.312 131.215C254.285 130.383 256.423 130.016 258.561 130.141C258.82 130.172 259.066 130.27 259.275 130.427C259.484 130.583 259.648 130.792 259.75 131.032C259.75 131.032 260.632 135.192 259.942 135.649L256.714 137.621Z" fill="#CB7A63"/>
<path d="M261.34 136.639L268.736 146.806C268.977 147.131 269.21 147.464 269.427 147.788C274.785 155.584 275.392 162.34 273.129 163.263C270.866 164.187 262.912 165.568 262.912 165.568L263.935 157.489L265.932 157.156L257.254 139.144L256.506 137.305C256.506 137.305 258.835 133.336 261.34 136.639Z" fill="#263238"/>
<path d="M251.156 154.552C256.757 154.358 262.355 155.023 267.754 156.524L268.694 164.079C268.694 164.079 253.91 169.071 249.051 163.862C245.323 159.877 244.125 154.045 251.156 154.552Z" fill="#263238"/>
<path d="M170.652 158.08C170.652 158.538 170.71 158.804 170.726 159.145V160.093C170.726 160.709 170.726 161.333 170.685 161.94C170.618 163.172 170.485 164.436 170.302 165.626C169.904 168.105 169.203 170.524 168.214 172.831C166.191 177.708 162.511 181.712 157.822 184.138C157.023 184.591 156.154 184.909 155.251 185.078C154.24 185.255 153.203 185.218 152.206 184.97C150.643 184.547 149.202 183.763 147.996 182.682C146.138 180.989 144.545 179.026 143.27 176.858C140.935 172.927 139.062 168.739 137.688 164.378L141.307 162.872C142.339 164.686 143.428 166.566 144.635 168.339C145.841 170.111 146.964 171.866 148.237 173.464C149.372 174.967 150.704 176.31 152.198 177.457C152.651 177.825 153.188 178.074 153.762 178.181C153.903 178.181 153.912 178.181 153.97 178.14C154.028 178.098 153.887 178.14 154.411 177.815C157.459 175.951 159.801 173.127 161.067 169.786C161.743 168.037 162.22 166.217 162.49 164.362C162.689 162.92 163.341 161.579 164.352 160.532C165.363 159.485 166.68 158.787 168.114 158.538L170.652 158.08Z" fill="#EEC8C0"/>
<path d="M138.237 165.876C135.741 163.879 135.741 160.052 135.741 160.052L143.77 158.504L141.19 164.728L138.237 165.876Z" fill="#EEC8C0"/>
<path d="M143.82 158.521L135.791 160.06L136.689 154.203L142.447 151.965L143.82 158.521Z" fill="#EEC8C0"/>
<path d="M137.846 148.096C138.71 148.482 139.618 148.762 140.55 148.928C140.783 148.928 141.007 149.003 141.24 149.02C149.61 150.026 157.93 141.681 160.06 129.983C162.223 117.994 157.032 106.979 148.412 105.431C139.793 103.884 131.082 112.353 128.902 124.351C126.988 135.084 130.899 144.984 137.846 148.096ZM133.378 125.166C135.175 115.282 140.425 107.802 145.525 107.436C145.898 107.395 146.275 107.395 146.648 107.436C147.397 107.495 148.142 107.601 148.878 107.752C153.396 108.668 157.647 118.036 155.7 128.785C153.92 138.944 147.605 146.598 141.44 146.623C141.022 146.634 140.604 146.604 140.192 146.532H140.109H139.818L139.635 146.49C139.219 146.399 138.817 146.256 138.436 146.066C133.844 143.795 131.606 135.009 133.378 125.191V125.166Z" fill="#00B373"/>
<path opacity="0.4" d="M137.704 145.949C137.699 145.916 137.699 145.883 137.704 145.85L140.949 146.607C147.647 146.607 153.845 138.902 155.709 128.844C157.689 118.094 153.529 108.776 148.604 107.811C147.804 107.65 146.995 107.536 146.182 107.469C145.504 107.376 144.82 107.323 144.136 107.311C138.595 107.619 132.671 115.132 131.082 125.058C129.584 134.276 131.855 144.452 137.704 145.949Z" fill="#FAFAFA"/>
<path d="M134.068 176.168C137.28 179.396 139.06 176.259 139.06 176.259L139.318 173.006L140.483 158.355L140.841 153.828L140.916 152.996L141.224 149.086L141.415 146.648L141.465 146.066L138.436 145.933C138.431 145.966 138.431 146 138.436 146.033C138.362 146.282 138.154 147.039 137.854 148.146C137.779 148.462 137.679 148.803 137.588 149.186C137.03 151.299 136.29 154.261 135.574 157.464C133.844 165.21 132.288 174.379 134.068 176.168Z" fill="#263238"/>
<path d="M164.994 248.685C164.994 248.685 165.66 272.056 165.826 278.179C166.325 297.939 171.608 338.441 171.608 338.441L178.431 338.25C178.431 338.25 180.444 297.532 177.374 281.158C177.262 280.53 177.262 279.888 177.374 279.261L182.125 250.016L164.994 248.685Z" fill="#EEC8C0"/>
<path d="M182.524 247.745C182.524 247.745 186.959 266.049 191.51 276.906C197.018 290.019 220.63 332.542 220.63 332.542L225.172 328.274C225.172 328.274 213.333 292.282 202.95 274.019C202.25 272.994 201.761 271.84 201.51 270.625C200.778 264.925 200.745 248.244 198.182 242.453L182.524 247.745Z" fill="#FBD3CD"/>
<path d="M195.52 162.723C195.52 162.814 195.52 162.897 195.52 162.997C195.445 163.829 195.337 164.919 195.22 166.109C195.225 166.131 195.225 166.153 195.22 166.175C194.388 174.304 192.724 188.731 192.883 195.736C192.895 195.836 192.895 195.936 192.883 196.036C192.872 196.234 192.836 196.43 192.774 196.618C192.614 197.135 192.312 197.596 191.904 197.95C191.495 198.305 190.995 198.538 190.461 198.623C187.777 199.072 185.068 199.364 182.349 199.497H181.709C181.747 199.28 181.763 199.06 181.759 198.84C181.748 198.388 181.637 197.945 181.434 197.542C179.487 197.542 177.532 197.542 175.718 197.542H175.028C171.259 197.475 168.122 197.325 166.758 197.251C166.762 197.331 166.762 197.411 166.758 197.492C166.731 197.413 166.708 197.332 166.691 197.251C166.669 197.166 166.655 197.08 166.65 196.993C166.15 191.24 165.077 185.551 163.446 180.012C162.614 176.75 162.007 174.188 162.406 171.317C163.064 166.616 164.778 163.372 164.828 161.799C164.844 161.278 165.002 160.771 165.283 160.331C165.564 159.892 165.959 159.537 166.425 159.303C167.158 158.918 167.92 158.593 168.705 158.33C170.186 157.907 171.704 157.628 173.239 157.498V157.539L173.58 158.845L173.638 158.92L175.302 161.1L175.793 161.208L177.907 161.658L180.195 161.233L180.577 161.167L183.756 159.12L184.929 158.172L185.07 158.022L185.145 157.964C187.89 158.375 190.612 158.93 193.299 159.628C193.981 159.787 194.582 160.189 194.99 160.758C195.399 161.327 195.587 162.025 195.52 162.723Z" fill="#00B373"/>
<path d="M183.772 157.83C181.601 155.676 182.158 145.708 182.158 145.708L176.118 150.076C176.118 150.076 175.926 156.233 174.454 157.464C174.121 157.756 173.622 157.531 173.189 157.572L173.605 159.128L174.812 161.034L176.426 162.115L178.755 162.049L180.835 161.391L183.181 159.652L185.087 157.988C184.704 157.955 184.088 158.138 183.772 157.83Z" fill="#EEC8C0"/>
<path opacity="0.1" d="M175.735 151.79C179.779 151.216 181.559 149.053 182.391 147.364L182.166 145.7L176.126 150.068L175.735 151.79Z" fill="black"/>
<path d="M170.984 337.684L178.755 337.235C178.897 337.225 179.038 337.265 179.155 337.346C179.271 337.428 179.356 337.547 179.396 337.684L181.16 343.924C181.199 344.055 181.212 344.193 181.198 344.329C181.183 344.465 181.142 344.597 181.076 344.717C181.01 344.837 180.921 344.942 180.814 345.028C180.707 345.113 180.584 345.176 180.452 345.213C180.382 345.236 180.31 345.25 180.236 345.255C177.432 345.371 174.936 345.355 171.45 345.563C167.332 345.804 168.405 346.237 163.571 346.586C160.659 346.794 159.935 343.508 161.167 343.258C166.774 342.218 167.265 340.479 169.329 338.324C169.783 337.915 170.373 337.687 170.984 337.684Z" fill="#263238"/>
<path d="M220.18 329.73L224.507 326.335C224.618 326.246 224.756 326.198 224.898 326.198C225.04 326.198 225.178 326.246 225.289 326.335L229.965 330.678C230.074 330.76 230.166 330.863 230.236 330.981C230.305 331.098 230.351 331.228 230.37 331.363C230.39 331.499 230.382 331.636 230.348 331.769C230.314 331.901 230.255 332.025 230.173 332.134C230.13 332.196 230.079 332.252 230.023 332.301C227.86 334.081 227.136 334.414 224.482 336.677C221.345 339.348 222.46 339.048 218.816 342.243C216.62 344.165 214.057 341.985 214.897 341.062C218.749 336.844 218.908 334.239 219.257 331.277C219.361 330.665 219.691 330.113 220.18 329.73Z" fill="#263238"/>
<path d="M194.064 198.016C193.764 197.5 193.457 197.009 193.124 196.527C193.024 196.358 192.913 196.197 192.791 196.044C192.675 195.869 192.558 195.695 192.433 195.537L166.4 194.147C166.4 194.147 166.525 195.354 166.633 197.3C167.997 197.375 171.134 197.525 174.903 197.592H175.594C177.407 197.592 179.363 197.592 181.309 197.592C181.512 197.995 181.623 198.438 181.634 198.89C181.639 199.11 181.622 199.33 181.584 199.547C181.488 200.071 181.262 200.563 180.927 200.978C179.329 201.061 177.707 201.119 176.143 201.169H175.311C172.448 201.292 169.582 201.248 166.724 201.036C166.8 204.669 166.591 208.302 166.1 211.902C164.062 225.821 163.238 243.46 165.11 255.308V255.424C165.11 255.565 165.16 255.699 165.194 255.84C170.416 256.702 175.711 257.047 181.002 256.872C182.545 256.839 184.084 256.709 185.611 256.481C190.145 255.832 194.838 256.206 200.154 253.203C200.254 253.178 204.922 216.486 194.064 198.016Z" fill="#00B373"/>
<path d="M181.667 198.89C181.672 199.11 181.655 199.33 181.617 199.547C181.521 200.071 181.295 200.563 180.96 200.978C179.363 201.061 177.74 201.119 176.176 201.169H175.344C172.482 201.292 169.615 201.248 166.758 201.036C166.758 199.722 166.7 198.54 166.641 197.525C166.646 197.445 166.646 197.364 166.641 197.284C168.006 197.359 171.142 197.508 174.911 197.575H175.602C177.416 197.575 179.371 197.575 181.318 197.575C181.532 197.981 181.651 198.431 181.667 198.89Z" fill="#263238"/>
<path d="M195.171 200.063C195.171 200.063 188.564 200.612 181.75 200.895L180.96 200.936C181.295 200.522 181.521 200.03 181.617 199.505C181.655 199.288 181.672 199.068 181.667 198.848C181.656 198.397 181.545 197.953 181.343 197.55H182.025C185.597 197.532 189.162 197.218 192.683 196.61C192.833 196.61 192.982 196.543 193.124 196.51L193.515 196.419C193.874 197.467 194.322 198.483 194.854 199.455L195.171 200.063Z" fill="#263238"/>
<path d="M173.164 157.414C173.164 157.414 175.369 165.327 185.153 158.022C185.153 158.022 175.061 170.169 173.164 157.414Z" fill="#00B373"/>
<path opacity="0.5" d="M173.164 157.414C173.164 157.414 175.369 165.327 185.153 158.022C185.153 158.022 175.061 170.169 173.164 157.414Z" fill="black"/>
<path d="M176.459 162.115C176.634 162.09 176.812 162.103 176.982 162.151C177.152 162.2 177.31 162.284 177.445 162.398C177.58 162.512 177.69 162.653 177.767 162.812C177.844 162.971 177.886 163.145 177.891 163.321C177.897 163.498 177.865 163.674 177.797 163.837C177.73 164.001 177.629 164.148 177.501 164.27C177.373 164.392 177.22 164.485 177.054 164.544C176.887 164.603 176.71 164.626 176.534 164.611L176.459 162.115Z" fill="white"/>
<path d="M184.513 139.26C183.356 144.419 182.973 146.615 179.92 148.861C175.319 152.248 169.237 149.693 168.821 144.302C168.463 139.443 170.41 131.822 175.843 130.582C177.039 130.302 178.287 130.331 179.469 130.668C180.65 131.005 181.726 131.638 182.595 132.507C183.463 133.376 184.095 134.452 184.431 135.634C184.766 136.816 184.795 138.064 184.513 139.26Z" fill="#EEC8C0"/>
<path d="M175.993 139.285C175.918 139.709 175.635 140.017 175.369 139.976C175.103 139.934 174.92 139.551 174.986 139.144C175.053 138.736 175.336 138.412 175.61 138.453C175.885 138.495 176.035 138.877 175.993 139.285Z" fill="#263238"/>
<path d="M171.201 138.528C171.126 138.961 170.851 139.26 170.577 139.219C170.302 139.177 170.127 138.794 170.194 138.387C170.26 137.979 170.543 137.654 170.818 137.704C171.092 137.754 171.267 138.112 171.201 138.528Z" fill="#263238"/>
<path d="M170.934 137.729L169.969 137.272C169.969 137.272 170.36 138.154 170.934 137.729Z" fill="#263238"/>
<path d="M172.557 139.535C172.025 140.454 171.367 141.294 170.602 142.031C170.794 142.22 171.026 142.364 171.28 142.455C171.535 142.545 171.805 142.579 172.074 142.555L172.557 139.535Z" fill="#ED893E"/>
<path d="M178.048 138.636C177.995 138.636 177.943 138.618 177.9 138.587C177.856 138.556 177.824 138.512 177.807 138.461C177.632 138.09 177.382 137.758 177.073 137.487C176.763 137.217 176.401 137.013 176.01 136.889C175.945 136.868 175.89 136.822 175.859 136.761C175.828 136.7 175.822 136.63 175.843 136.564C175.862 136.502 175.905 136.449 175.963 136.418C176.021 136.387 176.088 136.38 176.151 136.398C176.623 136.543 177.057 136.788 177.425 137.117C177.793 137.446 178.085 137.851 178.281 138.303C178.291 138.334 178.295 138.367 178.292 138.4C178.289 138.433 178.279 138.464 178.264 138.493C178.248 138.522 178.227 138.547 178.201 138.567C178.176 138.588 178.146 138.603 178.115 138.611C178.095 138.626 178.072 138.634 178.048 138.636Z" fill="#263238"/>
<path d="M170.119 136.09C170.073 136.089 170.029 136.076 169.989 136.053C169.95 136.03 169.917 135.997 169.894 135.957C169.863 135.899 169.856 135.832 169.873 135.768C169.89 135.705 169.93 135.651 169.986 135.616C170.33 135.4 170.72 135.272 171.125 135.241C171.529 135.211 171.935 135.28 172.307 135.441C172.336 135.455 172.363 135.474 172.384 135.497C172.406 135.521 172.423 135.549 172.434 135.579C172.444 135.609 172.449 135.641 172.447 135.673C172.446 135.705 172.438 135.737 172.424 135.766C172.41 135.795 172.39 135.822 172.365 135.843C172.34 135.865 172.312 135.881 172.281 135.891C172.249 135.901 172.217 135.905 172.184 135.902C172.151 135.899 172.12 135.89 172.091 135.874C171.798 135.755 171.48 135.707 171.165 135.734C170.85 135.762 170.545 135.864 170.277 136.032C170.232 136.069 170.177 136.089 170.119 136.09Z" fill="#263238"/>
<path d="M175.727 138.52L174.762 138.07C174.762 138.07 175.153 138.944 175.727 138.52Z" fill="#263238"/>
<path d="M187.658 142.472C184.954 144.319 184.696 148.179 182.125 150.201C181.492 148.429 182.499 145.575 182.957 143.478C183.04 143.256 183.04 143.01 182.957 142.788C182.749 142.447 182.175 142.53 181.917 142.846C181.707 143.197 181.611 143.604 181.642 144.011C181.559 143.811 181.484 143.612 181.409 143.42C181.226 144.252 181.06 145.009 180.877 145.8C180.773 145.187 180.734 144.565 180.76 143.944C180.788 143.492 180.901 143.049 181.093 142.638C173.846 124.509 174.72 125.932 182.541 126.83C185.786 127.204 188.506 129.884 189.43 133.028C190.353 136.173 191.36 139.967 187.658 142.472Z" fill="#263238"/>
<path d="M185.286 143.487C184.808 144.369 184.001 145.027 183.04 145.317C181.767 145.683 181.11 144.543 181.451 143.32C181.775 142.222 182.815 140.716 184.105 140.824C184.389 140.867 184.657 140.98 184.885 141.154C185.114 141.327 185.295 141.555 185.413 141.817C185.53 142.078 185.58 142.365 185.558 142.651C185.536 142.937 185.443 143.213 185.286 143.453V143.487Z" fill="#EEC8C0"/>
<path d="M171.683 144.435C171.816 145.122 171.9 145.817 171.933 146.515L172.307 146.557C173.971 146.732 174.803 146.257 175.219 145.683C175.398 145.407 175.511 145.094 175.552 144.768C175.58 144.575 175.58 144.379 175.552 144.186C174.479 144.531 173.345 144.647 172.224 144.527L171.683 144.435Z" fill="#2E353A"/>
<path d="M172.224 144.485L172.307 145.092C173.88 145.251 175.011 145.159 175.552 144.726C175.58 144.533 175.58 144.337 175.552 144.144C174.479 144.489 173.345 144.605 172.224 144.485Z" fill="white"/>
<path d="M172.307 146.557C173.971 146.732 174.803 146.257 175.219 145.683C174.584 145.632 173.945 145.691 173.331 145.858C172.924 145.977 172.566 146.222 172.307 146.557Z" fill="#DE5753"/>
<path d="M182.957 144.843L182.391 147.63L182.74 148.354L183.348 147.597L182.957 144.843Z" fill="#00B373"/>
<path d="M195.52 164.145C195.344 165.366 195.105 166.577 194.804 167.773C188.348 187.358 179.388 187.009 177.016 183.04C175.494 182.474 176.326 160.218 175.352 155.75L179.088 154.577C179.92 156.474 181.626 177.94 183.173 174.728C184.005 173.064 186.634 167.623 187.067 165.801C187.396 164.385 188.166 163.11 189.267 162.16C190.367 161.211 191.741 160.635 193.19 160.518C193.946 160.748 194.595 161.239 195.022 161.903C195.449 162.568 195.625 163.363 195.52 164.145Z" fill="#FBD3CD"/>
<path d="M178.131 158.122C175.011 158.812 172.058 156.374 172.058 156.374L175.893 149.153L179.121 155.068L178.131 158.122Z" fill="#FBD3CD"/>
<path d="M175.91 149.153L172.074 156.374L168.072 151.99L169.953 146.108L175.91 149.153Z" fill="#FBD3CD"/>
<path d="M177.308 126.647C175.108 127.212 173.12 128.405 171.587 130.081C170.054 131.756 169.041 133.841 168.671 136.082C169.77 135.874 170.26 136.648 171.342 136.914C172.277 135.056 173.785 133.548 175.644 132.612C176.148 133.949 176.65 135.294 177.149 136.648C177.424 137.38 177.807 139.044 177.807 139.044C178.875 139.083 179.939 139.192 180.993 139.368C180.993 139.368 182.383 133.985 181.068 130.391C180.511 128.86 179.828 127.238 178.431 126.406L177.308 126.647Z" fill="#263238"/>
<path d="M186.469 196.712L184.964 196.743L185.068 201.801L186.573 201.77L186.469 196.712Z" fill="#00B373"/>
<path d="M171.262 197.033L169.756 197.064L169.86 202.122L171.366 202.091L171.262 197.033Z" fill="#00B373"/>
<path d="M180.827 197.525C180.533 196.771 180.018 196.124 179.35 195.667C178.682 195.211 177.892 194.966 177.083 194.966C176.274 194.966 175.483 195.211 174.815 195.667C174.147 196.124 173.633 196.771 173.339 197.525L173.231 197.808H174.354L174.412 197.691C174.65 197.202 175.018 196.788 175.476 196.494C175.934 196.2 176.464 196.039 177.008 196.027C177.577 196.015 178.137 196.164 178.623 196.459C179.11 196.754 179.502 197.182 179.754 197.691C179.939 198.07 180.038 198.485 180.045 198.906C180.048 199.113 180.031 199.319 179.995 199.522C179.896 200.009 179.682 200.465 179.371 200.853C179.102 201.182 178.766 201.449 178.386 201.637C178.005 201.825 177.589 201.929 177.165 201.942C176.741 201.955 176.319 201.878 175.927 201.714C175.536 201.551 175.183 201.305 174.895 200.995L174.836 200.92H173.547L173.772 201.236C174.154 201.785 174.667 202.229 175.264 202.53C175.862 202.83 176.525 202.977 177.193 202.956C177.862 202.935 178.515 202.748 179.092 202.411C179.67 202.075 180.155 201.599 180.502 201.028C180.787 200.573 180.972 200.062 181.043 199.53C181.086 199.305 181.103 199.077 181.093 198.848C181.084 198.395 180.994 197.947 180.827 197.525Z" fill="white"/>
<g opacity="0.7">
<path d="M311.517 219.648C309.342 225.758 305.473 231.122 300.362 235.115C295.252 239.108 289.11 241.563 282.655 242.195C279.192 242.489 275.703 242.176 272.347 241.272C266.687 239.769 261.668 236.47 258.045 231.87L282.747 211.827L253.985 204.006C259.176 189.322 273.953 180.003 288.463 181.542C290.035 181.697 291.593 181.975 293.122 182.374C309.038 186.651 317.258 203.341 311.517 219.648Z" fill="#00B373"/>
<path opacity="0.5" d="M311.517 219.648C309.342 225.758 305.473 231.122 300.362 235.115C295.252 239.108 289.11 241.563 282.655 242.195C279.192 242.489 275.703 242.176 272.347 241.272C266.687 239.769 261.668 236.47 258.045 231.87L282.747 211.827L253.985 204.006C259.176 189.322 273.953 180.003 288.463 181.542C290.035 181.697 291.593 181.975 293.122 182.374C309.038 186.651 317.258 203.341 311.517 219.648Z" fill="white"/>
<path d="M317.092 219.648C311.917 234.308 297.124 243.618 282.655 242.112C289.1 241.487 295.235 239.044 300.345 235.067C305.455 231.089 309.329 225.742 311.517 219.648C317.258 203.382 309.021 186.692 293.155 182.374C291.626 181.975 290.069 181.697 288.496 181.542C291.935 181.249 295.399 181.561 298.73 182.466C314.612 186.709 322.816 203.382 317.092 219.648Z" fill="#00B373"/>
<g opacity="0.3">
<path d="M317.092 219.648C311.917 234.308 297.124 243.618 282.655 242.112C289.1 241.487 295.235 239.044 300.345 235.067C305.455 231.089 309.329 225.742 311.517 219.648C317.258 203.382 309.021 186.692 293.155 182.374C291.626 181.975 290.069 181.697 288.496 181.542C291.935 181.249 295.399 181.561 298.73 182.466C314.612 186.709 322.816 203.382 317.092 219.648Z" fill="white"/>
</g>
</g>
<g opacity="0.7">
<path d="M276.016 212.984L251.306 233.027L245.731 232.977L270.433 212.934L241.671 205.113L247.245 205.155L276.016 212.984Z" fill="#00B373"/>
<path opacity="0.3" d="M276.016 212.984L251.306 233.027L245.731 232.977L270.433 212.934L241.671 205.113L247.245 205.155L276.016 212.984Z" fill="white"/>
<path d="M270.4 212.934L245.731 232.96C239.907 225.597 238.085 215.263 241.671 205.096L270.4 212.934Z" fill="#00B373"/>
<g opacity="0.5">
<path d="M270.4 212.934L245.731 232.96C239.907 225.597 238.085 215.263 241.671 205.096L270.4 212.934Z" fill="white"/>
</g>
</g>
<g opacity="0.8">
<path d="M160.16 235.398H77.4509C76.4756 235.415 75.5078 235.225 74.6117 234.839C73.7157 234.454 72.912 233.882 72.254 233.162C71.596 232.442 71.0989 231.59 70.7957 230.663C70.4925 229.736 70.3901 228.755 70.4954 227.785L73.216 196.527C73.4263 194.458 74.3904 192.538 75.9248 191.134C77.4592 189.73 79.4564 188.94 81.536 188.914H164.253C165.228 188.896 166.196 189.087 167.092 189.472C167.987 189.858 168.791 190.43 169.448 191.15C170.105 191.87 170.602 192.722 170.904 193.649C171.206 194.577 171.307 195.557 171.201 196.527L168.463 227.785C168.252 229.851 167.289 231.767 165.759 233.17C164.228 234.573 162.236 235.366 160.16 235.398Z" fill="#00B373"/>
<path opacity="0.5" d="M160.16 235.398H77.4509C76.4756 235.415 75.5078 235.225 74.6117 234.839C73.7157 234.454 72.912 233.882 72.254 233.162C71.596 232.442 71.0989 231.59 70.7957 230.663C70.4925 229.736 70.3901 228.755 70.4954 227.785L73.216 196.527C73.4263 194.458 74.3904 192.538 75.9248 191.134C77.4592 189.73 79.4564 188.94 81.536 188.914H164.253C165.228 188.896 166.196 189.087 167.092 189.472C167.987 189.858 168.791 190.43 169.448 191.15C170.105 191.87 170.602 192.722 170.904 193.649C171.206 194.577 171.307 195.557 171.201 196.527L168.463 227.785C168.252 229.851 167.289 231.767 165.759 233.17C164.228 234.573 162.236 235.366 160.16 235.398Z" fill="white"/>
</g>
<path d="M95.7549 229.715H88.8659C88.7714 229.717 88.6776 229.699 88.5909 229.661C88.5042 229.624 88.4266 229.568 88.3635 229.497C88.3003 229.427 88.253 229.344 88.2249 229.254C88.1967 229.164 88.1883 229.068 88.2003 228.975L91.0874 195.978C91.11 195.773 91.2075 195.584 91.3612 195.448C91.5148 195.311 91.7137 195.236 91.9194 195.237H98.8C98.8948 195.235 98.9888 195.254 99.0759 195.291C99.163 195.329 99.241 195.384 99.3048 195.455C99.3686 195.525 99.4167 195.608 99.4459 195.698C99.475 195.788 99.4846 195.883 99.4739 195.978L96.5869 228.975C96.5642 229.179 96.4667 229.368 96.3131 229.505C96.1594 229.641 95.9606 229.716 95.7549 229.715Z" fill="white"/>
<path d="M152.156 229.715H145.276C145.181 229.717 145.087 229.699 145 229.661C144.913 229.624 144.834 229.568 144.771 229.498C144.707 229.428 144.659 229.345 144.63 229.255C144.6 229.164 144.591 229.069 144.602 228.975L147.489 195.978C147.511 195.773 147.609 195.584 147.762 195.448C147.916 195.311 148.115 195.236 148.321 195.237H155.21C155.304 195.237 155.397 195.256 155.483 195.294C155.569 195.332 155.646 195.388 155.709 195.458C155.772 195.528 155.819 195.61 155.848 195.7C155.876 195.789 155.886 195.884 155.875 195.978L152.988 228.975C152.966 229.179 152.868 229.368 152.714 229.505C152.561 229.641 152.362 229.716 152.156 229.715Z" fill="white"/>
<path d="M124.933 229.715H118.052C117.958 229.717 117.864 229.699 117.777 229.661C117.69 229.624 117.611 229.568 117.548 229.498C117.484 229.428 117.436 229.345 117.407 229.255C117.377 229.164 117.368 229.069 117.379 228.975L119.276 207.343C119.298 207.138 119.396 206.949 119.549 206.813C119.703 206.676 119.902 206.601 120.108 206.602H126.988C127.083 206.6 127.177 206.619 127.264 206.656C127.351 206.694 127.429 206.75 127.493 206.82C127.557 206.89 127.605 206.973 127.634 207.063C127.663 207.153 127.673 207.249 127.662 207.343L125.765 228.975C125.742 229.179 125.645 229.368 125.491 229.505C125.338 229.641 125.139 229.716 124.933 229.715Z" fill="white"/>
<path d="M110.465 229.715H103.584C103.489 229.717 103.395 229.699 103.308 229.661C103.221 229.624 103.143 229.568 103.079 229.498C103.015 229.428 102.967 229.345 102.938 229.255C102.909 229.164 102.899 229.069 102.91 228.975L104.324 212.892C104.347 212.688 104.445 212.499 104.598 212.362C104.752 212.225 104.951 212.15 105.156 212.152H112.037C112.132 212.15 112.226 212.168 112.313 212.206C112.4 212.243 112.478 212.299 112.542 212.369C112.606 212.439 112.654 212.522 112.683 212.612C112.712 212.703 112.722 212.798 112.711 212.892L111.305 228.975C111.282 229.181 111.183 229.371 111.028 229.508C110.873 229.644 110.672 229.719 110.465 229.715Z" fill="white"/>
<path d="M138.545 229.715H131.664C131.569 229.717 131.475 229.698 131.388 229.661C131.301 229.623 131.223 229.568 131.159 229.498C131.095 229.428 131.047 229.345 131.018 229.254C130.989 229.164 130.979 229.069 130.99 228.975L131.215 226.387C131.237 226.183 131.335 225.994 131.489 225.857C131.642 225.72 131.841 225.645 132.047 225.647H138.944C139.039 225.645 139.133 225.663 139.22 225.701C139.307 225.738 139.385 225.794 139.449 225.864C139.513 225.934 139.561 226.017 139.59 226.107C139.619 226.198 139.629 226.293 139.618 226.387L139.385 228.975C139.362 229.181 139.263 229.371 139.108 229.508C138.953 229.644 138.752 229.719 138.545 229.715Z" fill="white"/>
<path opacity="0.3" d="M152.056 193.024C151.865 192.947 151.652 192.943 151.458 193.014C151.265 193.084 151.104 193.224 151.008 193.407L138.253 218.991C138.202 219.119 138.115 219.229 138.004 219.311C137.892 219.392 137.76 219.44 137.623 219.451C137.485 219.461 137.348 219.433 137.225 219.369C137.103 219.306 137.001 219.209 136.931 219.091L126.947 199.389C126.899 199.302 126.834 199.225 126.755 199.165C126.675 199.105 126.584 199.063 126.488 199.041C126.391 199.019 126.29 199.018 126.193 199.038C126.096 199.057 126.004 199.098 125.923 199.156L112.378 207.734C112.263 207.804 112.131 207.842 111.996 207.842C111.86 207.842 111.728 207.804 111.613 207.734L92.352 196.627C92.2603 196.579 92.1601 196.55 92.0573 196.542C91.9544 196.533 91.8509 196.545 91.7526 196.577C91.6544 196.609 91.5634 196.66 91.4849 196.727C91.4065 196.794 91.342 196.876 91.2954 196.968L91.2454 197.051C91.1998 197.132 91.1707 197.222 91.1598 197.314C91.1489 197.407 91.1564 197.501 91.1819 197.591C91.2074 197.68 91.2504 197.764 91.3084 197.837C91.3665 197.91 91.4384 197.971 91.52 198.016L111.488 209.589C111.604 209.658 111.736 209.694 111.871 209.694C112.005 209.694 112.138 209.658 112.253 209.589L125.258 201.352C125.339 201.297 125.431 201.259 125.528 201.24C125.624 201.222 125.724 201.224 125.82 201.245C125.916 201.267 126.007 201.309 126.086 201.367C126.165 201.426 126.232 201.5 126.281 201.585L136.856 222.385C136.927 222.502 137.029 222.596 137.151 222.658C137.272 222.721 137.409 222.749 137.545 222.739C137.681 222.73 137.812 222.683 137.924 222.605C138.035 222.526 138.124 222.419 138.179 222.294L152.323 193.956C152.409 193.797 152.43 193.61 152.38 193.435C152.331 193.261 152.214 193.113 152.056 193.024Z" fill="black"/>
</g>
<defs>
<filter id="filter0_d_338_30" x="-4" y="0" width="424" height="375" filterUnits="userSpaceOnUse" color-interpolation-filters="sRGB">
<feFlood flood-opacity="0" result="BackgroundImageFix"/>
<feColorMatrix in="SourceAlpha" type="matrix" values="0 0 0 0 0 0 0 0 0 0 0 0 0 0 0 0 0 0 127 0" result="hardAlpha"/>
<feOffset dy="4"/>
<feGaussianBlur stdDeviation="2"/>
<feComposite in2="hardAlpha" operator="out"/>
<feColorMatrix type="matrix" values="0 0 0 0 0 0 0 0 0 0 0 0 0 0 0 0 0 0 0.25 0"/>
<feBlend mode="normal" in2="BackgroundImageFix" result="effect1_dropShadow_338_30"/>
<feBlend mode="normal" in="SourceGraphic" in2="effect1_dropShadow_338_30" result="shape"/>
</filter>
</defs>
</svg>
