<svg width="91" height="71" viewBox="0 0 91 71" fill="none" xmlns="http://www.w3.org/2000/svg">
<path d="M46.744 16.6667H10.1005C7.67084 16.6667 5.34073 17.5446 3.62273 19.1074C1.90474 20.6702 0.939575 22.7899 0.939575 25V41.6667C0.939575 43.8768 1.90474 45.9964 3.62273 47.5592C5.34073 49.122 7.67084 50 10.1005 50H14.6809V66.6667C14.6809 67.7717 15.1635 68.8315 16.0225 69.6129C16.8815 70.3943 18.0465 70.8333 19.2613 70.8333H28.4222C29.637 70.8333 30.8021 70.3943 31.6611 69.6129C32.5201 68.8315 33.0027 67.7717 33.0027 66.6667V50H46.744L69.6462 66.6667V0L46.744 16.6667ZM90.2581 33.3333C90.2581 40.4583 85.8609 46.9167 78.807 50V16.6667C85.8151 19.7917 90.2581 26.25 90.2581 33.3333Z" fill="#ffffff32"/>
</svg>
