<svg width="32" height="32" viewBox="0 0 32 32" fill="none" xmlns="http://www.w3.org/2000/svg">
<path d="M19.0619 16.6383C21.6987 17.4207 24.0147 19.0493 25.6628 21.28C27.3109 23.5107 28.2023 26.2235 28.2035 29.0117H2.78849C2.78906 26.2233 3.68025 23.5103 5.32843 21.2794C6.97661 19.0486 9.29294 17.4201 11.9301 16.6383L15.496 22.067L19.0619 16.6383ZM21.8497 9.66583C21.8497 11.3761 21.1803 13.0163 19.9888 14.2257C18.7972 15.435 17.1811 16.1144 15.496 16.1144C13.8109 16.1144 12.1948 15.435 11.0032 14.2257C9.81166 13.0163 9.14224 11.3761 9.14224 9.66583C9.14224 7.95555 9.81166 6.31533 11.0032 5.10598C12.1948 3.89663 13.8109 3.21722 15.496 3.21722C17.1811 3.21722 18.7972 3.89663 19.9888 5.10598C21.1803 6.31533 21.8497 7.95555 21.8497 9.66583Z" fill="#00B373"/>
</svg>
