<svg width="607" height="724" viewBox="0 0 607 724" fill="none" xmlns="http://www.w3.org/2000/svg">
<g filter="url(#filter0_d_1_29)">
<path d="M346.638 28.8378C347.378 1.60763 312.75 -10.5316 296.333 11.2029L176.934 169.271C173.076 174.38 167.583 178.011 161.373 179.559L25.8625 213.35C-0.684088 219.97 -2.9464 256.835 22.5917 266.649L299.948 373.225C299.974 373.235 300 373.245 300.026 373.255L221.524 680.645C214.784 707.038 245.871 726.536 266.686 708.969L418.062 581.215C422.955 577.086 429.113 574.76 435.512 574.623L575.135 571.637C602.487 571.051 612.841 535.598 590.104 520.379L343.171 355.098C341.35 353.88 339.455 352.907 337.518 352.167C337.771 350.769 337.922 349.328 337.963 347.85L346.638 28.8378Z" fill="url(#paint0_linear_1_29)"/>
</g>
<defs>
<filter id="filter0_d_1_29" x="0.640297" y="0.0220642" width="605.932" height="723.666" filterUnits="userSpaceOnUse" color-interpolation-filters="sRGB">
<feFlood flood-opacity="0" result="BackgroundImageFix"/>
<feColorMatrix in="SourceAlpha" type="matrix" values="0 0 0 0 0 0 0 0 0 0 0 0 0 0 0 0 0 0 127 0" result="hardAlpha"/>
<feOffset dy="4"/>
<feGaussianBlur stdDeviation="2"/>
<feComposite in2="hardAlpha" operator="out"/>
<feColorMatrix type="matrix" values="0 0 0 0 0 0 0 0 0 0 0 0 0 0 0 0 0 0 0.25 0"/>
<feBlend mode="normal" in2="BackgroundImageFix" result="effect1_dropShadow_1_29"/>
<feBlend mode="normal" in="SourceGraphic" in2="effect1_dropShadow_1_29" result="shape"/>
</filter>
<linearGradient id="paint0_linear_1_29" x1="185.52" y1="175.983" x2="420.992" y2="569.805" gradientUnits="userSpaceOnUse">
<stop stop-color="#8BCB01"/>
<stop offset="0.38209" stop-color="#E9F759"/>
<stop offset="0.610284" stop-color="#8BCB01"/>
<stop offset="1" stop-color="#E9F759"/>
</linearGradient>
</defs>
</svg>
