<svg width="668" height="616" viewBox="0 0 668 616" fill="none" xmlns="http://www.w3.org/2000/svg">
<g clip-path="url(#clip0_201_493)">
<mask id="mask0_201_493" style="mask-type:luminance" maskUnits="userSpaceOnUse" x="0" y="0" width="668" height="616">
<path d="M668 0H0V616H668V0Z" fill="white"/>
</mask>
<g mask="url(#mask0_201_493)">
<path d="M105.357 0H104.021V180.826H105.357V0Z" fill="#C7C7C7"/>
<path d="M167.561 241.359L162.511 252.46H46.8536L41.8169 241.359L91.0485 207.323H118.33L167.561 241.359Z" fill="#EBEBEB" fill-opacity="0.21"/>
<path d="M121.75 174.528L118.33 207.323H91.0484L87.6282 174.528H121.75Z" fill="#DBDBDB"/>
<path d="M167.561 241.359L162.498 252.46H46.8535L41.8035 241.359H167.561Z" fill="#DBDBDB"/>
<path d="M240.36 0H239.024V145.016H240.36V0Z" fill="#C7C7C7"/>
<path d="M302.564 205.535L297.514 216.649H181.856L176.82 205.535L226.051 171.5H253.332L302.564 205.535Z" fill="#EBEBEB" fill-opacity="0.21"/>
<path d="M256.753 138.718L253.332 171.5H226.051L222.631 138.718H256.753Z" fill="#DBDBDB"/>
<path d="M302.564 205.549L297.501 216.649H181.856L176.806 205.549H302.564Z" fill="#DBDBDB"/>
<path d="M64.7959 297.983L51.6096 319.21L58.156 323.213C59.0735 323.809 59.8084 324.646 60.2799 325.633C60.7514 326.619 60.941 327.716 60.828 328.803C60.7208 330.014 60.6806 331.23 60.7077 332.446C60.7452 333.552 60.4755 334.648 59.9285 335.611C59.3815 336.574 58.5785 337.367 57.6082 337.903L50.9282 341.518L62.7919 363.586L69.4719 359.971C70.4223 359.461 71.4946 359.223 72.5715 359.282C73.6484 359.341 74.6883 359.694 75.5774 360.304C76.6686 361.065 77.8015 361.764 78.9709 362.399C79.9207 362.921 80.7062 363.696 81.2395 364.639C81.7728 365.582 82.0327 366.654 81.9902 367.736L81.7497 375.381L106.76 376.155L106.987 368.483C107.022 367.399 107.358 366.346 107.957 365.441C108.556 364.537 109.395 363.816 110.38 363.359C110.968 363.079 111.543 362.786 112.117 362.479C112.692 362.172 113.253 361.852 113.8 361.518C114.722 360.952 115.784 360.652 116.867 360.652C117.949 360.652 119.011 360.952 119.933 361.518L126.492 365.521L139.665 344.294L133.106 340.224C132.187 339.629 131.451 338.792 130.98 337.806C130.508 336.819 130.319 335.721 130.434 334.634C130.541 333.427 130.581 332.216 130.554 331.005C130.518 329.897 130.789 328.801 131.339 327.837C131.888 326.874 132.694 326.082 133.667 325.548L140.347 321.932L128.523 299.918L121.763 303.533C120.782 304.046 119.678 304.276 118.574 304.198C117.47 304.12 116.409 303.738 115.51 303.093C114.508 302.399 113.466 301.759 112.411 301.185C111.438 300.678 110.626 299.91 110.066 298.967C109.507 298.024 109.222 296.944 109.245 295.848L109.552 288.19L84.5553 287.403L84.3149 295.074C84.2697 296.17 83.9212 297.231 83.3079 298.14C82.6946 299.05 81.8407 299.771 80.8413 300.224C80.2801 300.478 79.7324 300.758 79.1846 301.052C78.6369 301.345 78.1025 301.652 77.5814 301.972C76.6431 302.548 75.5632 302.853 74.4619 302.853C73.3605 302.853 72.2807 302.548 71.3423 301.972L64.7959 297.983ZM83.6869 315.168C87.1661 312.675 91.3396 311.333 95.6215 311.331C99.9033 311.328 104.078 312.665 107.561 315.154C111.043 317.642 113.657 321.157 115.036 325.206C116.415 329.254 116.49 333.632 115.25 337.725C114.01 341.818 111.517 345.42 108.122 348.026C104.727 350.631 100.6 352.11 96.3203 352.253C92.0408 352.396 87.8239 351.197 84.2617 348.824C80.6995 346.452 77.9709 343.024 76.4592 339.023C74.866 334.807 74.7108 330.184 76.0177 325.87C77.3245 321.557 80.0204 317.795 83.6869 315.168Z" fill="#EBEBEB" fill-opacity="0.21"/>
<path d="M613.224 90.7264C612.664 90.3987 612.206 89.922 611.902 89.3494C611.598 88.7769 611.459 88.1311 611.501 87.4843C611.501 87.124 611.501 86.7638 611.501 86.4036C611.501 86.0433 611.501 85.6698 611.501 85.3095C611.459 84.6627 611.598 84.0169 611.902 83.4444C612.206 82.8718 612.664 82.3951 613.224 82.0674L617.138 79.8126L609.79 67.0708L605.823 69.379C605.259 69.7022 604.616 69.8611 603.966 69.8375C603.317 69.8139 602.687 69.6089 602.149 69.2456C601.534 68.8587 600.906 68.4851 600.251 68.1515C599.673 67.8617 599.186 67.4181 598.845 66.8695C598.503 66.321 598.319 65.6889 598.314 65.0428V60.4932H583.618V64.9895C583.602 65.6295 583.411 66.2529 583.065 66.7917C582.718 67.3305 582.23 67.764 581.654 68.0448C581 68.3784 580.318 68.7519 579.757 69.1389C579.219 69.5021 578.589 69.7072 577.939 69.7308C577.29 69.7544 576.647 69.5955 576.083 69.2723L572.169 67.0175L564.807 79.7592L568.735 82.0274C569.306 82.3539 569.773 82.8358 570.08 83.4169C570.388 83.998 570.524 84.6543 570.472 85.3095C570.472 85.6698 570.472 86.03 570.472 86.3902C570.472 86.7505 570.472 87.1107 570.472 87.4709C570.515 88.1213 570.375 88.7708 570.069 89.3461C569.762 89.9213 569.3 90.3995 568.735 90.7264L564.807 92.9812L572.169 105.723L576.07 103.468C576.633 103.146 577.275 102.987 577.924 103.008C578.573 103.029 579.203 103.23 579.744 103.588C580.359 103.994 580.997 104.363 581.654 104.696C582.231 104.986 582.716 105.43 583.055 105.979C583.395 106.528 583.576 107.159 583.578 107.804V112.301H598.274V107.791C598.279 107.145 598.463 106.513 598.805 105.964C599.146 105.416 599.633 104.972 600.211 104.682C600.867 104.347 601.505 103.977 602.122 103.575C602.66 103.216 603.288 103.015 603.935 102.994C604.582 102.973 605.222 103.132 605.782 103.455L609.697 105.71L617.045 92.9679L613.224 90.7264ZM590.993 98.4515C588.615 98.4515 586.29 97.7473 584.313 96.4278C582.335 95.1084 580.794 93.233 579.884 91.0388C578.974 88.8447 578.736 86.4303 579.2 84.101C579.664 81.7717 580.809 79.6321 582.491 77.9527C584.172 76.2734 586.315 75.1297 588.647 74.6664C590.98 74.2031 593.397 74.4409 595.594 75.3497C597.791 76.2586 599.669 77.7977 600.991 79.7724C602.312 81.747 603.017 84.0687 603.017 86.4436C603.015 88.0228 602.702 89.5861 602.094 91.044C601.486 92.5019 600.597 93.8259 599.476 94.94C598.356 96.0542 597.026 96.9366 595.564 97.5369C594.101 98.1372 592.534 98.4434 590.953 98.4382L590.993 98.4515Z" fill="#EBEBEB" fill-opacity="0.21"/>
<path d="M281.789 425.427C281.266 425.121 280.831 424.685 280.527 424.161C280.223 423.637 280.059 423.044 280.052 422.438C280.052 421.838 280.052 421.251 280.052 420.651C279.987 420.048 280.024 419.44 280.159 418.849C280.307 418.259 280.612 417.72 281.041 417.288C281.494 416.892 281.997 416.555 282.537 416.288L285.65 414.473V414.54L278.222 401.838H278.396L274.308 404.24C273.555 404.615 272.696 404.718 271.876 404.533C271.104 404.293 270.37 403.942 269.698 403.493L268.683 402.919C268.309 402.723 267.97 402.466 267.681 402.158C267.089 401.543 266.73 400.741 266.666 399.89V395.154L266.973 395.461L252.277 395.594L252.731 395.154V399.904C252.689 400.585 252.473 401.244 252.103 401.819C251.734 402.393 251.223 402.864 250.62 403.186L249.618 403.786L248.616 404.373C248.228 404.616 247.805 404.796 247.36 404.907C246.46 405.104 245.52 404.996 244.688 404.6L240.547 402.238L241.348 402.025L234.041 414.793L233.8 413.899L237.942 416.274C238.524 416.674 238.997 417.213 239.317 417.842C239.637 418.472 239.793 419.171 239.772 419.877V421.051V422.212C239.78 422.663 239.717 423.113 239.585 423.546C239.307 424.447 238.727 425.224 237.942 425.747L233.8 428.122L234.027 427.282L241.322 440.05L240.574 439.85L244.729 437.515C245.562 437.125 246.504 437.026 247.401 437.235C247.829 437.347 248.239 437.522 248.616 437.755L249.632 438.356L250.634 438.943C251.022 439.156 251.374 439.431 251.676 439.756C252.278 440.413 252.636 441.256 252.691 442.145V446.908L252.33 446.548L267.026 446.694L266.813 446.908V442.171C266.876 441.341 267.225 440.559 267.801 439.957C268.407 439.425 269.081 438.977 269.805 438.622C270.473 438.185 271.196 437.839 271.956 437.595C272.753 437.405 273.591 437.504 274.321 437.875L278.422 440.25H278.329L285.73 427.535L281.789 425.427ZM281.789 425.427L285.704 427.668L278.396 440.424V440.49L274.281 438.155C273.583 437.818 272.79 437.733 272.036 437.915C271.265 438.147 270.535 438.499 269.872 438.956C269.175 439.308 268.532 439.758 267.962 440.29C267.444 440.849 267.137 441.571 267.093 442.331V447.055V447.268H266.879L252.183 447.415H251.836V446.961V442.251C251.781 441.557 251.488 440.902 251.008 440.397C250.765 440.148 250.485 439.936 250.179 439.77L249.137 439.183L248.095 438.596C247.802 438.419 247.482 438.293 247.147 438.222C246.475 438.072 245.773 438.157 245.156 438.462L241.148 440.851L240.68 441.131L240.4 440.65L232.985 427.949L232.678 427.415L233.212 427.108L237.22 424.747C237.753 424.381 238.144 423.844 238.329 423.226C238.42 422.914 238.465 422.59 238.463 422.265V421.064V419.863C238.465 419.538 238.42 419.215 238.329 418.903C238.142 418.289 237.745 417.76 237.207 417.408L233.199 415.034L232.624 414.713L232.958 414.153L240.36 401.451L240.667 400.931L241.175 401.224L245.183 403.586C245.779 403.88 246.458 403.96 247.107 403.813C247.434 403.744 247.746 403.618 248.028 403.439L249.071 402.852L250.126 402.265C250.423 402.108 250.693 401.905 250.928 401.665C251.4 401.173 251.684 400.53 251.729 399.85V395.167V394.7H252.17L266.866 394.834H267.2V395.14V399.85C267.249 400.584 267.546 401.281 268.042 401.825C268.603 402.356 269.238 402.805 269.926 403.159C270.555 403.608 271.248 403.959 271.983 404.2C272.714 404.373 273.481 404.293 274.161 403.973L278.289 401.665L278.396 401.598V401.705L285.704 414.473L282.577 416.261C282.04 416.521 281.541 416.853 281.094 417.248C280.666 417.665 280.361 418.191 280.213 418.769C280.072 419.354 280.031 419.959 280.092 420.557C280.092 421.158 280.092 421.758 280.092 422.345C280.079 422.962 280.228 423.572 280.526 424.114C280.824 424.655 281.26 425.108 281.789 425.427Z" fill="#EBEBEB"/>
<path d="M259.558 433.152C257.512 433.144 255.499 432.63 253.7 431.656C251.901 430.682 250.372 429.278 249.248 427.57C248.124 425.862 247.441 423.903 247.26 421.867C247.079 419.832 247.405 417.783 248.209 415.904C249.014 414.025 250.271 412.374 251.87 411.098C253.469 409.822 255.359 408.962 257.371 408.593C259.384 408.224 261.457 408.358 263.405 408.984C265.353 409.609 267.116 410.707 268.536 412.178C270.833 414.576 272.082 417.787 272.01 421.104C271.902 424.319 270.55 427.368 268.238 429.608C265.925 431.847 262.833 433.104 259.612 433.112L259.558 433.152ZM259.558 433.152C261.122 433.151 262.671 432.837 264.112 432.229C265.553 431.622 266.858 430.732 267.949 429.613C269.041 428.494 269.898 427.169 270.469 425.714C271.04 424.26 271.314 422.706 271.275 421.144C271.185 418.097 269.909 415.204 267.72 413.079C265.53 410.955 262.598 409.766 259.545 409.763C256.434 409.763 253.45 410.998 251.25 413.194C249.05 415.391 247.815 418.371 247.815 421.478C247.815 424.585 249.05 427.564 251.25 429.761C253.45 431.958 256.434 433.192 259.545 433.192L259.558 433.152Z" fill="#EBEBEB"/>
<path d="M41.0955 584.065L114.322 583.745L187.548 583.625L334 583.411L480.452 583.625L553.678 583.745L626.905 584.065L553.678 584.398L480.452 584.519L334 584.732L187.548 584.519L114.322 584.398L41.0955 584.065Z" fill="#263238"/>
<path d="M495.268 106.604C502.657 97.9446 515.308 95.8632 527.546 98.3315C539.784 100.8 554.44 106.964 555.776 127.404C556.871 144.002 551.768 160.186 551.768 178.704C551.768 197.223 572.757 242.333 539.169 264.348C508.989 284.121 447.84 265.962 445.957 225.255C444.474 192.994 482.79 163.161 486.825 150.392C490.86 137.624 487.172 116.077 495.268 106.604Z" fill="#263238"/>
<path d="M489.751 124.816C489.524 134.048 488.188 143.388 484.407 152.1C483.426 154.307 482.145 156.368 480.599 158.224C479.116 160.092 477.54 161.853 475.963 163.561C472.784 167.017 469.644 170.446 466.611 174.008C460.588 180.987 455.611 188.803 451.835 197.21C448.215 205.657 446.225 214.71 445.97 223.894C445.594 219.259 445.733 214.596 446.384 209.992C447.107 205.363 448.302 200.821 449.951 196.436C453.432 187.65 458.363 179.51 464.541 172.354C467.573 168.738 470.793 165.282 473.999 161.867C477.206 158.451 480.452 155.196 482.443 151.193C484.484 147.101 486.04 142.784 487.079 138.331C488.251 133.886 489.144 129.372 489.751 124.816Z" fill="#263238"/>
<path d="M554.934 141.347C554.707 150.766 554.106 160.172 554.36 169.525C554.469 174.183 554.862 178.83 555.536 183.441C556.23 187.977 557.593 192.514 558.729 197.103C559.864 201.693 560.88 206.349 561.628 211.046C562.351 215.764 562.655 220.537 562.536 225.309C562.319 230.103 561.419 234.843 559.864 239.384C558.071 243.848 555.394 247.905 551.995 251.312C554.974 247.656 557.239 243.474 558.675 238.984C559.921 234.519 560.541 229.903 560.519 225.269C560.14 215.938 558.679 206.684 556.163 197.69C555.095 193.114 553.732 188.578 553.077 183.761C552.464 179.042 552.223 174.282 552.356 169.525C552.638 160.088 553.499 150.678 554.934 141.347Z" fill="#263238"/>
<path d="M506.344 220.559C475.616 254.341 450.539 270.565 425.823 270.565C402.323 270.565 352.116 213.581 348.429 206.069C345.249 199.585 386.465 164.108 392.797 168.524C403.485 175.916 437.767 218.704 441.401 218.904C445.035 219.104 458.422 210.272 490.659 195.195C510.245 186.056 527.72 197.143 506.344 220.559Z" fill="#EB9481"/>
<path d="M353.212 211.686C348.696 206.803 329.738 182.427 325.984 174.475C322.23 166.523 313.132 142.854 318.943 139.372C324.755 135.89 327.961 142.601 327.961 142.601C327.961 142.601 325.703 132.007 331.876 129.032C338.048 126.056 342.697 136.663 342.697 136.663C342.697 136.663 341.174 125.616 347.534 123.081C353.893 120.546 356.806 132.02 356.806 132.02C356.806 132.02 354.935 121.974 361.054 122.094C368.415 122.241 369.765 141.146 374.561 149.619C375.643 151.54 399.397 186.977 399.397 186.977L353.212 211.686Z" fill="#EB9481"/>
<path d="M356.552 131.046C357.58 144.936 360.44 150.846 368.576 161.88C368.736 162.094 368.456 162.374 368.268 162.174C359.277 152.087 354.628 145.202 355.844 131.06C355.937 130.366 356.498 130.379 356.552 131.046Z" fill="#263238"/>
<path d="M342.657 135.569C344.982 149.912 348.001 156.343 355.737 168.524C355.844 168.698 355.563 168.898 355.443 168.738C346.879 157.41 342.39 150.432 341.949 135.796C341.922 135.129 342.55 134.902 342.657 135.569Z" fill="#263238"/>
<path d="M328.389 143.214C331.649 156.943 334.681 164.135 343.686 174.995C343.9 175.262 343.539 175.596 343.312 175.356C333.051 165.162 329.204 156.21 327.988 143.334C327.908 142.481 328.188 142.347 328.389 143.214Z" fill="#263238"/>
<path d="M409.992 190.366C409.992 190.366 409.684 172.901 407.854 165.256C406.024 157.611 388.776 131.647 382.884 135.062C375.363 139.465 382.39 156.41 386.892 164.282C386.892 164.282 369.524 174.475 371.889 187.737C374.254 200.999 409.992 190.366 409.992 190.366Z" fill="#EB9481"/>
<path d="M381.214 136.944C377.206 145.909 383.886 155.849 387.694 163.788C387.755 163.902 387.788 164.029 387.79 164.159C387.792 164.288 387.763 164.417 387.706 164.533C387.649 164.649 387.564 164.75 387.46 164.827C387.355 164.904 387.234 164.955 387.106 164.975C380.079 169.739 371.568 178.478 371.462 187.417C371.462 187.47 371.44 187.521 371.403 187.558C371.365 187.596 371.314 187.617 371.261 187.617C371.208 187.617 371.157 187.596 371.119 187.558C371.082 187.521 371.061 187.47 371.061 187.417C369.872 177.811 377.527 168.524 385.543 163.815C381.535 155.716 375.296 145.469 381.134 136.864L381.214 136.944Z" fill="#263238"/>
<path d="M453.358 209.085L478.048 255.088C478.048 255.088 511.528 222.627 516.872 209.085C522.216 195.542 516.458 185.709 492.637 192.954C479.028 196.982 465.867 202.387 453.358 209.085Z" fill="#00B373"/>
<path d="M483.752 245.495C482.537 243 481.468 240.425 480.199 237.944C478.929 235.462 477.66 233.007 476.338 230.579C473.666 225.669 470.994 220.746 468.215 215.902C466.638 213.234 464.982 210.485 463.258 207.897C463.191 207.777 462.964 207.897 463.031 207.99C467.56 218.117 473.051 227.817 478.529 237.45C480.118 240.238 481.922 242.894 483.579 245.642C483.632 245.709 483.819 245.589 483.752 245.495Z" fill="#263238"/>
<path d="M516.872 209.085C511.528 222.627 478.048 255.088 478.048 255.088L461.414 224.148L516.284 193.848C519.437 197.13 519.397 202.694 516.872 209.085Z" fill="#263238"/>
<path d="M458.983 286.536C458.983 286.536 445.409 318.984 450.205 343.667H599.864C595.001 276.569 561.508 218.904 541.721 200.239C525.77 185.189 508.976 186.536 497.286 194.235C494.534 196.063 464.167 237.97 460.88 244.601C447.841 270.765 458.983 286.536 458.983 286.536Z" fill="#00B373"/>
<path d="M498.328 192.26C498.328 192.26 488.976 219.118 494.4 220.519C507.894 223.988 525.997 201.987 527.079 199.745C527.346 199.171 528.548 184.135 529.443 172.434C530.018 164.909 530.459 158.758 530.459 158.758L497.166 170.166L498.234 190.779L498.328 192.26Z" fill="#EB9481"/>
<path d="M497.112 170.166L498.181 190.779C504.955 189.832 519.851 186.163 529.39 172.434C529.965 164.909 530.405 158.758 530.405 158.758L526.237 160.092L497.112 170.166Z" fill="#263238"/>
<path d="M472.316 141.306C471.915 151.78 472.957 160.252 475.509 165.883C477.695 170.692 481.174 174.801 485.559 177.755C489.943 180.709 495.061 182.39 500.345 182.614C504.353 182.76 515.896 181.706 524.246 175.356C530.739 170.419 534.654 161.52 536.872 145.869C541.948 110.086 525.556 98.0513 509.403 96.6103C493.251 95.1694 473.652 105.203 472.316 141.306Z" fill="#EB9481"/>
<path d="M481.575 133.328C482.416 133.208 483.191 132.968 484.006 132.781C484.892 132.701 485.73 132.341 486.398 131.754C486.565 131.525 486.655 131.249 486.655 130.966C486.655 130.683 486.565 130.408 486.398 130.179C485.982 129.793 485.471 129.524 484.917 129.4C484.363 129.276 483.786 129.301 483.245 129.472C482.093 129.655 481.05 130.259 480.319 131.167C480.146 131.377 480.042 131.634 480.02 131.905C479.998 132.176 480.06 132.447 480.196 132.682C480.333 132.917 480.538 133.105 480.784 133.22C481.031 133.336 481.306 133.373 481.575 133.328Z" fill="#263238"/>
<path d="M505.182 134.222C504.362 134.078 503.55 133.89 502.75 133.661C501.864 133.588 501.027 133.222 500.372 132.621C500.205 132.392 500.115 132.117 500.115 131.834C500.115 131.551 500.205 131.275 500.372 131.046C500.791 130.661 501.306 130.395 501.862 130.275C502.419 130.156 502.998 130.187 503.538 130.366C504.7 130.551 505.749 131.166 506.478 132.087C506.645 132.3 506.743 132.56 506.76 132.83C506.776 133.101 506.709 133.37 506.569 133.602C506.428 133.834 506.22 134.017 505.972 134.128C505.724 134.239 505.449 134.271 505.182 134.222Z" fill="#263238"/>
<path d="M499.277 143.241C499.277 143.148 499.464 143.361 499.464 143.468C499.263 145.91 499.464 148.805 501.641 149.685C501.641 149.685 501.641 149.832 501.641 149.819C498.916 149.312 498.702 145.523 499.277 143.241Z" fill="#263238"/>
<path d="M501.601 140.773C505.609 140.666 505.502 148.605 501.815 148.711C498.128 148.818 498.328 140.866 501.601 140.773Z" fill="#263238"/>
<path d="M503.164 141.213C503.846 141.667 504.5 142.467 505.355 142.547C506.21 142.627 507.065 141.827 507.707 141.026C507.774 140.946 507.84 141.026 507.84 141.12C507.84 142.641 507.252 144.202 505.609 144.415C503.966 144.629 503.071 143.241 502.697 141.747C502.63 141.427 502.884 141.026 503.164 141.213Z" fill="#263238"/>
<path d="M486.117 142.2C486.117 142.107 485.93 142.32 485.93 142.414C485.93 144.882 485.676 147.751 483.445 148.525C483.378 148.525 483.378 148.671 483.445 148.658C486.184 148.284 486.585 144.522 486.117 142.2Z" fill="#263238"/>
<path d="M483.926 139.625C479.918 139.319 479.637 147.257 483.311 147.537C486.985 147.817 487.239 139.892 483.926 139.625Z" fill="#263238"/>
<path d="M482.296 140.092C481.655 140.493 480.96 141.226 480.252 141.253C479.544 141.28 478.769 140.386 478.248 139.545C478.248 139.452 478.128 139.545 478.114 139.625C478.021 141.146 478.448 142.734 479.905 143.094C481.361 143.455 482.256 142.147 482.67 140.653C482.697 140.359 482.497 139.932 482.296 140.092Z" fill="#263238"/>
<path d="M499.036 162.347C498.462 162.947 497.901 163.761 497.019 163.868C496.102 163.875 495.194 163.698 494.347 163.348C494.331 163.334 494.31 163.326 494.289 163.328C494.267 163.329 494.247 163.338 494.233 163.354C494.219 163.37 494.212 163.391 494.213 163.412C494.214 163.434 494.224 163.454 494.24 163.468C494.611 163.939 495.102 164.301 495.661 164.517C496.221 164.733 496.828 164.795 497.42 164.695C497.913 164.541 498.351 164.247 498.681 163.849C499.01 163.452 499.217 162.967 499.277 162.454C499.284 162.423 499.281 162.391 499.267 162.363C499.253 162.335 499.23 162.312 499.201 162.3C499.173 162.287 499.14 162.285 499.11 162.293C499.08 162.302 499.054 162.321 499.036 162.347Z" fill="#263238"/>
<path d="M488.976 153.234C488.976 153.234 488.388 156.903 488.361 158.638C488.361 158.798 488.776 158.878 489.363 158.931C489.363 158.931 489.363 158.931 489.43 158.931C490.905 159.223 492.431 159.106 493.844 158.593C495.257 158.08 496.503 157.192 497.446 156.023C497.566 155.863 497.353 155.676 497.192 155.783C494.947 157.243 492.292 157.945 489.617 157.784C489.51 157.29 490.833 151.54 490.552 151.513C489.185 151.598 487.836 151.872 486.544 152.327C487.546 144.655 489.764 137.21 490.633 129.565C490.633 129.299 490.272 129.205 490.192 129.445C487.306 137.077 485.97 145.883 484.728 153.768C484.621 154.769 488.228 153.528 488.976 153.234Z" fill="#263238"/>
<path d="M490.472 158.024C491.328 159.332 492.505 160.398 493.893 161.12C494.657 161.483 495.515 161.605 496.351 161.466C498.181 161.133 498.355 159.492 498.141 158.064C498.011 157.304 497.796 156.561 497.5 155.849C495.45 157.305 492.987 158.067 490.472 158.024Z" fill="#263238"/>
<path d="M493.892 161.119C494.657 161.483 495.515 161.605 496.351 161.466C498.181 161.133 498.355 159.492 498.141 158.064C497.192 158.022 496.256 158.3 495.485 158.855C494.714 159.409 494.153 160.207 493.892 161.119Z" fill="#FF98B9"/>
<path d="M536.217 142.654C532.276 142.774 521.093 132.954 519.063 114.089C519.063 114.089 522.069 130.9 523.565 133.261C525.061 135.623 517.313 127.724 515.456 112.541C515.456 112.541 507.573 119.399 500.546 122.067C493.518 124.736 489.123 125.082 488.522 124.602C487.921 124.122 498.248 119.826 500.813 116.277C500.813 116.277 482.47 126.95 473.706 128.391C472.69 128.551 474.4 112.794 487.239 102.654C500.078 92.5144 517.727 95.0494 524.059 100.119C524.059 100.119 530.98 100.48 539.316 109.886C547.653 119.292 540.452 142.521 536.217 142.654Z" fill="#263238"/>
<path d="M531.02 148.418C531.02 148.418 538.355 136.77 543.605 139.332C548.856 141.894 543.739 158.504 537.847 161.026C537.114 161.405 536.311 161.631 535.488 161.691C534.665 161.751 533.838 161.643 533.058 161.375C532.277 161.107 531.559 160.684 530.947 160.131C530.335 159.578 529.842 158.906 529.497 158.158L531.02 148.418Z" fill="#EB9481"/>
<path d="M542.015 144.095C542.122 144.095 542.135 144.215 542.015 144.255C537.887 146.163 535.87 150.179 534.507 154.302C535.696 152.674 537.353 151.74 539.517 153.128C539.624 153.194 539.517 153.381 539.41 153.354C538.666 153.173 537.885 153.221 537.169 153.493C536.454 153.764 535.837 154.246 535.402 154.875C534.682 155.954 534.073 157.103 533.585 158.304C533.411 158.691 532.717 158.531 532.85 158.091C532.844 158.056 532.844 158.019 532.85 157.984C532.476 152.594 536.284 144.882 542.015 144.095Z" fill="#263238"/>
<path d="M553.304 207.563C568.107 224.628 609.603 286.402 599.984 303.093C590.752 319.104 569.817 323.613 557.767 302.106C549.096 286.722 534.52 240.825 530.9 218.811C527.961 200.986 539.624 191.78 553.304 207.563Z" fill="#EB9481"/>
<path d="M539.477 262.253L588.535 244.254C588.535 244.254 561 206.616 548.321 199.451C535.642 192.287 525.088 196.61 528.962 221.172C531.048 235.19 534.571 248.956 539.477 262.253Z" fill="#00B373"/>
<path d="M579.824 237.263C577.152 238.13 574.48 238.824 571.808 239.731C569.136 240.639 566.571 241.559 563.979 242.533C558.729 244.481 553.492 246.429 548.294 248.524C545.382 249.698 542.47 250.965 539.624 252.3C539.49 252.3 539.544 252.58 539.624 252.54C550.312 249.471 560.679 245.388 570.993 241.319C573.986 240.132 576.858 238.651 579.811 237.463C580.011 237.41 579.918 237.223 579.824 237.263Z" fill="#263238"/>
<path d="M542.242 261.105C541.271 261.32 540.319 261.614 539.397 261.986C538.061 259.091 534.894 246.362 534.16 243.094C532.69 236.583 531.488 230.005 529.951 223.494C529.951 223.307 529.59 223.361 529.617 223.494C530.071 227.11 530.633 230.712 531.26 234.288C530.592 232.58 529.924 230.859 529.403 229.111C529.409 229.099 529.411 229.085 529.41 229.072C529.409 229.059 529.404 229.046 529.397 229.035C529.39 229.024 529.38 229.015 529.368 229.009C529.356 229.002 529.343 228.999 529.33 228.999C529.317 228.999 529.304 229.002 529.292 229.009C529.28 229.015 529.27 229.024 529.263 229.035C529.256 229.046 529.251 229.059 529.25 229.072C529.249 229.085 529.251 229.099 529.256 229.111C529.864 231.282 530.609 233.412 531.488 235.489C532.009 242.16 538.087 263.36 538.261 263.28C539.635 262.658 540.974 261.958 542.269 261.185C542.416 261.225 542.416 261.092 542.242 261.105Z" fill="#263238"/>
<path d="M517.981 135.516L504.019 195.035C503.418 196.783 504.313 198.184 506.023 198.157L532.677 203.574C533.61 203.489 534.501 203.14 535.244 202.568C535.986 201.997 536.551 201.226 536.872 200.345L550.833 140.826C551.434 139.078 550.539 137.677 548.829 137.717L522.176 132.287C521.242 132.373 520.351 132.721 519.609 133.293C518.866 133.865 518.301 134.636 517.981 135.516Z" fill="#A6A6A6"/>
<path d="M520.265 135.85L506.344 195.369C505.743 197.117 506.638 198.517 508.348 198.491L535.001 203.908C535.934 203.823 536.823 203.477 537.566 202.907C538.308 202.338 538.874 201.57 539.196 200.692L553.104 141.173C553.705 139.412 552.81 138.024 551.1 138.051L524.46 132.621C523.528 132.711 522.64 133.061 521.898 133.632C521.156 134.204 520.59 134.972 520.265 135.85Z" fill="#DBDBDB"/>
<path d="M528.709 138.411C528.722 138.945 528.574 139.47 528.285 139.92C527.996 140.369 527.579 140.721 527.087 140.931C526.595 141.14 526.052 141.198 525.527 141.096C525.002 140.994 524.52 140.737 524.143 140.359C523.766 139.98 523.511 139.497 523.412 138.973C523.313 138.448 523.373 137.906 523.586 137.416C523.798 136.926 524.153 136.511 524.604 136.225C525.056 135.938 525.582 135.794 526.117 135.81C526.805 135.813 527.465 136.089 527.95 136.576C528.436 137.064 528.709 137.724 528.709 138.411Z" fill="#263238"/>
<path d="M564.888 307.496C573.558 323.507 596.511 314.381 599.984 303.093C608.134 276.609 603.084 232.58 598.221 207.99C596.658 200.079 542.844 207.99 543.164 216.543C543.538 226.883 547.894 276.009 564.888 307.496Z" fill="#EB9481"/>
<path d="M597.62 219.745C600.331 208.078 600.495 195.964 598.101 184.228C595.268 171.433 586.01 144.295 548.789 132.194C539.958 129.312 525.329 131.46 538.101 141.386C547.132 148.444 554.988 150.192 559.477 155.262C559.477 155.262 541.2 160.199 538.662 169.138C536.44 176.963 534.774 184.934 533.679 192.994C535.11 193.53 536.574 193.975 538.061 194.328C537.276 202.111 539.089 209.935 543.218 216.583L597.62 219.745Z" fill="#EB9481"/>
<path d="M593.438 172.447C587.907 168.444 576.07 159.932 563.926 156.437C550.459 152.434 523.485 148.565 520.679 158.505C518.622 165.803 528.789 168.218 528.789 168.218C528.789 168.218 517.299 168.938 516.885 175.929C516.511 182.307 524.487 183.708 524.487 183.708C524.487 183.708 517.593 185.336 518.408 191.553C519.397 199.011 533.705 194.368 541.254 201.066C542.95 202.534 593.438 172.447 593.438 172.447Z" fill="#EB9481"/>
<path d="M562.135 171.286C556.311 168.298 541.321 164.922 529.003 167.977C528.722 167.977 528.629 168.284 528.896 168.284C540.052 167.984 551.204 169.032 562.109 171.406C562.176 171.433 562.202 171.313 562.135 171.286Z" fill="#263238"/>
<path d="M557.78 184.735C552.436 182.68 536.872 179.879 524.5 183.401C524.22 183.481 524.139 183.734 524.407 183.721C535.547 182.832 546.753 183.217 557.807 184.869C557.824 184.865 557.84 184.855 557.85 184.84C557.86 184.825 557.864 184.806 557.86 184.788C557.857 184.771 557.846 184.755 557.831 184.745C557.816 184.735 557.798 184.732 557.78 184.735Z" fill="#263238"/>
<path d="M559.971 296.342C559.57 295.008 559.183 293.674 558.755 292.459C557.873 289.791 557.112 287.123 556.337 284.454C554.761 279.117 553.251 273.7 551.928 268.257C549.289 257.407 547.286 246.412 545.93 235.328C545.556 232.26 545.235 229.191 544.901 226.122C544.567 223.054 544.46 219.865 543.872 216.783C543.872 216.623 542.309 214.275 541.695 213.114C541.057 211.906 540.499 210.658 540.025 209.378C539.026 206.765 538.348 204.042 538.007 201.266C538 201.249 537.988 201.234 537.973 201.223C537.957 201.213 537.939 201.207 537.92 201.207C537.902 201.207 537.883 201.213 537.868 201.223C537.852 201.234 537.84 201.249 537.833 201.266C537.66 204.424 538.058 207.588 539.009 210.605C539.832 213.129 541.253 215.418 543.151 217.277C543.151 217.677 543.244 222.613 543.405 225.375C543.565 228.137 543.819 230.899 544.126 233.647C544.754 239.171 545.529 244.681 546.504 250.165C548.41 261.257 551.062 272.209 554.44 282.947C554.44 283.12 554.56 283.293 554.614 283.467C554.614 283.867 554.614 284.267 554.614 284.668C554.633 285.654 554.714 286.639 554.854 287.616C555.128 289.56 555.607 291.47 556.284 293.313C556.278 293.329 556.276 293.347 556.278 293.364C556.28 293.381 556.286 293.397 556.296 293.411C556.306 293.426 556.319 293.437 556.334 293.445C556.35 293.453 556.367 293.457 556.384 293.457C556.401 293.457 556.418 293.453 556.433 293.445C556.449 293.437 556.462 293.426 556.472 293.411C556.481 293.397 556.488 293.381 556.49 293.364C556.492 293.347 556.49 293.329 556.484 293.313C556.01 291.385 555.688 289.422 555.522 287.443L555.282 285.415C556.016 287.576 556.791 289.738 557.553 291.886C558.087 293.38 558.635 294.834 559.25 296.289C559.864 297.743 560.345 299.157 561.067 300.505C561.067 300.611 561.28 300.505 561.254 300.425C560.92 298.997 560.385 297.69 559.971 296.342Z" fill="#263238"/>
<path d="M183.66 419.703C195.417 470.79 219.732 532.031 230.113 541.97C243.245 554.539 330.126 577.594 334.454 578.061C345.142 579.142 366.692 502.011 355.256 500.343C337.888 497.835 274.615 494.406 270.834 490.523C267.053 486.641 240.199 452.832 212.758 414.847C193.813 388.603 176.352 388.002 183.66 419.703Z" fill="#AD6359"/>
<path d="M325.85 573.898C327.12 574.539 345.276 583.665 356.498 586.907C364.875 589.335 389.163 595.673 392.757 586.72C395.216 580.636 381.361 575.232 371.662 571.19C366.545 569.055 360.239 563.718 361.749 560.436C364.421 554.699 377.554 560.436 386.211 565.479C402.951 575.192 425.249 592.684 435.469 584.158C439.33 580.956 434.841 575.112 428.282 569.389C438.97 576.06 450.299 581.53 454.721 578.141C457.273 576.206 457.393 573.551 455.977 570.536C459.263 571.603 462.163 571.39 464.193 569.202C467.653 565.573 465.97 560.236 462.176 554.752C462.827 554.685 463.453 554.463 464.001 554.106C464.55 553.749 465.005 553.266 465.329 552.698C472.663 541.53 435.937 509.469 423.258 506.467C385.917 497.595 346.558 499.249 346.558 499.249C331.889 511.003 325.81 573.872 325.85 573.898Z" fill="#AD6359"/>
<path d="M380.76 539.569C389.651 540.956 398.145 544.217 405.676 549.135C415.149 555.379 421.428 562.691 429.364 570.042C429.395 570.084 429.411 570.135 429.409 570.187C429.407 570.24 429.387 570.29 429.353 570.329C429.318 570.368 429.271 570.394 429.22 570.403C429.168 570.411 429.115 570.402 429.07 570.376C425.289 566.88 409.604 553.725 405.556 550.736C398.234 545.234 389.755 541.465 380.76 539.716C380.64 539.702 380.667 539.542 380.76 539.569Z" fill="#263238"/>
<path d="M387.721 523.732C397.54 526.4 407.6 529.069 416.712 533.765C426.678 538.835 434.481 547.107 442.096 555.112C446.709 559.889 451.212 564.781 455.603 569.789C455.776 570.002 455.496 570.336 455.309 570.122C447.524 561.904 439.508 553.898 431.261 546.107C423.627 538.871 414.637 533.212 404.808 529.456C399.197 527.307 393.425 525.613 387.654 523.905C387.574 523.879 387.614 523.705 387.721 523.732Z" fill="#263238"/>
<path d="M398.208 509.896C407.747 511.857 416.07 513.525 424.514 518.622C435.696 525.386 446.491 536.767 450.272 540.81C454.454 545.266 458.488 549.856 462.443 554.512C462.603 554.699 462.283 554.992 462.109 554.806C453.046 544.596 443.331 534.983 433.024 526.027C428.176 521.691 422.687 518.126 416.752 515.46C410.735 513.101 404.526 511.262 398.195 509.963C398.195 509.963 398.128 509.883 398.208 509.896Z" fill="#263238"/>
<path d="M340.546 496.18L313.826 580.716C313.826 580.716 241.482 560.089 228.322 545.853C215.163 531.617 190.701 458.102 183.526 422.465C176.352 386.828 194.388 387.775 210.968 410.177C227.548 432.578 268.83 487.094 271.088 488.282C273.346 489.469 340.546 496.18 340.546 496.18Z" fill="#00B373"/>
<path opacity="0.1" d="M340.546 496.18L313.826 580.716C313.826 580.716 241.482 560.089 228.322 545.853C215.163 531.617 190.701 458.102 183.526 422.465C176.352 386.828 194.388 387.775 210.968 410.177C227.548 432.578 268.83 487.094 271.088 488.282C273.346 489.469 340.546 496.18 340.546 496.18Z" fill="black"/>
<path d="M306.879 543.158C310.126 533.191 313.439 523.251 316.298 513.165C317.928 507.441 319.585 501.704 321.161 495.967C321.228 495.74 320.867 495.62 320.787 495.833C317.14 505.707 313.506 515.62 310.313 525.653C307.12 535.686 303.873 545.666 300.827 555.633C299.104 561.343 297.541 567.08 296.165 572.884C296.165 572.991 296.325 573.058 296.365 572.951C300.346 563.198 303.619 553.191 306.879 543.158Z" fill="#263238"/>
<path d="M277.34 569.095L274.134 567.974C268.109 565.826 261.963 563.518 256.178 561.156C255.43 560.863 254.695 560.556 253.974 560.249C252.811 559.769 251.649 559.275 250.527 558.782L248.843 558.048L248.242 557.781L246.505 556.98C244.207 555.926 242.03 554.872 239.999 553.805L238.663 553.058C235.489 551.427 232.497 549.464 229.739 547.201C229.485 546.974 229.231 546.747 229.004 546.52C228.777 546.293 228.536 546.067 228.336 545.853C215.109 531.617 190.714 458.102 183.54 422.465L183.299 421.238V420.971C182.818 418.302 182.391 414.913 182.043 411.284C181.041 393.553 189.445 390.657 199.826 398.449C225.704 453.912 265.343 545.56 277.34 569.095Z" fill="#263238"/>
<path d="M239.812 583.291L82.1641 584.118C82.2977 580.729 104.742 481.597 122.591 445.013C145.477 398.102 157.327 394.313 164.315 391.805C173.333 388.576 189.391 390.177 193.199 391.978C197.528 393.993 211.288 417.982 216.218 435.58C226.078 470.977 242.03 581.13 239.812 583.291Z" fill="#EBEBEB"/>
<path d="M156.232 395.514C156.232 395.514 176.272 469.629 177.274 474.553C178.784 481.704 188.777 583.745 188.777 583.745L78.8909 584.118C78.8909 584.118 102.872 489.656 120.721 448.295C140.2 402.932 156.232 395.514 156.232 395.514Z" fill="#00B373"/>
<g opacity="0.1">
<path d="M156.232 395.514C156.232 395.514 176.272 469.629 177.274 474.553C178.784 481.704 188.777 583.745 188.777 583.745L78.8909 584.118C78.8909 584.118 102.872 489.656 120.721 448.295C140.2 402.932 156.232 395.514 156.232 395.514Z" fill="black"/>
</g>
<path d="M194.642 393.126C195.23 395.487 213.707 455.7 214.989 470.71C216.419 487.361 229.057 584.118 229.057 584.118H245.089C245.089 584.118 221.883 445.107 215.51 430.417C202.471 400.437 194.642 393.126 194.642 393.126Z" fill="#00B373"/>
<path opacity="0.1" d="M194.642 393.126C195.23 395.487 213.707 455.7 214.989 470.71C216.419 487.361 229.057 584.118 229.057 584.118H245.089C245.089 584.118 221.883 445.107 215.51 430.417C202.471 400.437 194.642 393.126 194.642 393.126Z" fill="black"/>
<path d="M135.484 412.845C109.084 441.091 44.903 548.255 65.2637 567.801C85.6243 587.347 198.663 561.036 230.407 545.92C239.852 541.437 203.967 482.625 192.865 481.25C183.62 480.116 136.379 501.691 135.003 498.982C133.466 495.913 140.975 473.272 152.371 432.272C165.45 385.014 147.16 400.357 135.484 412.845Z" fill="#AD6359"/>
<path d="M239.785 462.278C262.738 459.076 269.177 461.784 287.066 448.816C298.836 440.304 309.337 444.159 302.617 457.675C291.635 479.796 262.885 490.123 251.849 490.844L239.785 462.278Z" fill="#AD6359"/>
<path d="M178.81 484.319C178.81 484.319 204.608 470.016 228.737 464.199C245.41 460.197 282.684 455.46 318.356 492.218C326.812 500.93 332.677 519.342 313.693 510.123C300.199 503.572 293.653 495.353 285.089 492.965C285.089 492.965 289.765 517.261 280.694 525.386C272.765 532.487 264.341 539.014 255.483 544.919C254.027 543.55 252.661 542.089 251.395 540.543C251.395 540.543 242.204 547.334 224.916 545.68L178.81 484.319Z" fill="#AD6359"/>
<path d="M245.276 462.972C253.292 467.121 270.006 476.207 281.121 488.402C293.479 501.957 313.613 531.363 303.499 540.436C296.098 547.04 287.467 536.433 287.467 536.433C287.467 536.433 293.225 550.349 285.223 554.846C277.942 558.955 271.716 550.389 271.716 550.389C271.716 550.389 273.76 559.422 265.971 562.024C256.619 565.146 253.867 545.693 241.642 540.676C238.85 539.475 245.276 462.972 245.276 462.972Z" fill="#AD6359"/>
<path d="M264.622 498.995C271.475 504.132 284.06 519.783 287.534 535.993C287.614 536.367 287.387 536.62 287.24 536.3C281.205 523.033 273.578 510.546 264.528 499.116C264.421 498.995 264.528 498.995 264.622 498.995Z" fill="#263238"/>
<path d="M251.288 511.844C256.752 516.887 269.004 533.592 271.956 550.149C272.023 550.523 271.769 550.763 271.649 550.429C266.299 536.872 259.428 523.963 251.168 511.951C251.088 511.871 251.168 511.777 251.288 511.844Z" fill="#263238"/>
<path d="M285.089 492.805C292.571 495.006 297.434 498.675 303.793 503.051C306.888 505.26 310.104 507.296 313.426 509.149C316.472 510.79 320.974 513.271 324.207 510.696C326.024 509.269 325.997 506.694 325.543 504.599C324.63 501.567 323.241 498.698 321.428 496.1C321.428 495.993 321.522 495.873 321.602 495.967C323.352 498.334 324.856 500.873 326.091 503.545C326.9 505.376 327.137 507.408 326.772 509.376C325.663 513.485 320.8 514.032 317.42 512.898C315.372 512.146 313.403 511.194 311.542 510.056C309.725 509.015 307.961 507.895 306.198 506.721C302.644 504.319 299.237 501.717 295.71 499.276C292.284 496.978 288.714 494.902 285.022 493.058C284.994 493.045 284.972 493.022 284.959 492.994C284.946 492.966 284.943 492.934 284.951 492.904C284.959 492.874 284.977 492.847 285.002 492.829C285.027 492.811 285.058 492.802 285.089 492.805Z" fill="#263238"/>
<path d="M300.76 519.089C298.823 514.833 288.336 497.088 284.942 492.978C284.93 492.958 284.924 492.934 284.927 492.91C284.93 492.886 284.941 492.864 284.958 492.847C284.975 492.83 284.997 492.819 285.021 492.816C285.045 492.814 285.069 492.819 285.089 492.831C290.927 498.355 300.293 513.018 302.457 517.714C304.621 522.411 307.106 528.295 307.106 533.458C307.106 541.263 301.923 542.798 300.012 543.131C297.726 543.545 295.367 543.158 293.332 542.037C290.952 540.585 288.897 538.659 287.293 536.38C287.213 536.273 287.36 536.127 287.454 536.233C290.126 539.315 294.668 542.344 298.903 541.784C299.843 541.695 300.755 541.419 301.586 540.972C302.416 540.525 303.149 539.917 303.74 539.182C304.897 537.305 305.343 535.075 304.995 532.898C304.371 528.09 302.939 523.421 300.76 519.089Z" fill="#263238"/>
<path d="M178.81 484.319L214.989 560.369C214.989 560.369 73.48 592.097 61.269 567.494C49.0579 542.891 104.021 446.614 128.777 418.569C157.488 386.068 161.148 397.128 154.829 425.934C148.149 456.087 135.417 499.689 135.417 499.689L178.81 484.319Z" fill="#00B373"/>
<path opacity="0.1" d="M178.81 484.319L214.989 560.369C214.989 560.369 73.48 592.097 61.269 567.494C49.0579 542.891 104.021 446.614 128.777 418.569C157.488 386.068 161.148 397.128 154.829 425.934C148.149 456.087 135.417 499.689 135.417 499.689L178.81 484.319Z" fill="black"/>
<path d="M92.411 519.929C105.464 510.876 119.797 503.821 134.936 498.995C139.225 497.661 143.553 496.394 147.882 495.153C148.015 495.153 148.069 495.326 147.882 495.366C140.332 497.806 132.931 500.684 125.718 503.985C118.512 507.188 111.387 510.519 104.342 513.979C100.334 515.94 96.4323 518.088 92.5044 520.183C92.4781 520.177 92.4537 520.165 92.4333 520.147C92.413 520.129 92.3973 520.107 92.388 520.082C92.3787 520.056 92.3759 520.029 92.3799 520.003C92.3839 519.976 92.3946 519.951 92.411 519.929Z" fill="#263238"/>
<path d="M178.436 484.119C177.728 484.306 139.024 497.074 137.755 497.661C137.915 497.074 144.863 476.527 145.905 473.512C145.998 473.218 146.092 472.912 146.199 472.618C146.893 471.284 147.615 469.95 148.269 468.615C149.098 466.868 149.926 465.093 150.741 463.279H150.661L147.989 468.442C147.575 469.229 147.187 470.043 146.8 470.857C147.481 468.735 148.136 466.601 148.79 464.453C149.832 461.05 150.768 457.608 151.69 454.166C151.69 454.046 151.556 454.019 151.516 454.166C149.458 460.156 147.214 466.08 145.143 472.071C143.072 478.062 135.11 500.089 135.177 500.089C135.243 500.089 177.795 485.066 178.623 484.733C178.664 484.72 178.701 484.7 178.734 484.674C178.766 484.647 178.793 484.614 178.813 484.577C178.833 484.54 178.845 484.499 178.849 484.457C178.854 484.415 178.849 484.373 178.837 484.332C178.825 484.292 178.805 484.255 178.778 484.222C178.751 484.19 178.718 484.163 178.681 484.143C178.644 484.123 178.603 484.111 178.561 484.107C178.519 484.102 178.477 484.107 178.436 484.119Z" fill="#263238"/>
<path d="M181.041 533.685C177.033 525.213 173.146 516.687 168.857 508.335C166.412 503.599 163.994 498.849 161.509 494.139C161.416 493.965 161.095 494.139 161.175 494.286C164.836 502.958 168.523 511.63 172.585 520.156C176.646 528.682 180.601 537.101 184.729 545.506C187.08 550.283 189.578 554.983 192.224 559.609C192.224 559.702 192.437 559.609 192.397 559.609C189.031 550.776 185.063 542.251 181.041 533.685Z" fill="#263238"/>
<path d="M216.82 561.543C215.403 559.195 213.613 555.833 212.103 553.538C211.703 552.938 211.235 553.058 211.556 553.685C212.638 555.82 213.533 558.208 214.588 560.356C212.611 560.756 210.58 561.103 208.63 561.517C206.332 561.997 204.047 562.491 201.749 562.958C197.243 563.847 192.736 564.737 188.229 565.626C179.091 567.325 169.917 568.819 160.708 570.109C142.258 572.807 123.68 574.548 105.05 575.326C99.8394 575.513 94.6156 575.606 89.4052 575.539C84.2656 575.552 79.1286 575.303 74.0145 574.792C73.8675 574.792 73.8408 575.019 74.0145 575.046C78.4151 575.974 82.8824 576.554 87.3745 576.78C92.0906 577.007 96.82 577.114 101.549 577.06C110.901 576.954 120.347 576.34 129.712 575.486C148.283 573.778 166.8 571.27 185.156 568.028C190.304 567.138 195.439 566.173 200.56 565.132C203.152 564.612 205.731 564.092 208.309 563.518C210.888 562.944 217.06 561.944 216.82 561.543Z" fill="#263238"/>
<path d="M194.669 420.784C185.317 423.359 168.577 409.55 161.736 398.102C161.269 397.315 162.19 388.83 162.818 378.463C163.179 372.179 163.42 365.121 163.179 358.743C163.179 357.409 203.834 367.042 203.834 367.042C203.834 367.042 200.36 380.624 200.841 391.805C200.883 392.704 201.009 393.597 201.215 394.473C201.252 394.613 201.279 394.756 201.295 394.9C202.297 399.85 203.713 418.289 194.669 420.784Z" fill="#AD6359"/>
<path d="M165.664 358.903C167.935 369.684 175.657 395.634 197.167 395.327C198.546 395.314 199.923 395.189 201.282 394.954C201.299 394.807 201.299 394.66 201.282 394.513C201.084 393.635 200.954 392.743 200.894 391.845C200.427 380.651 203.887 367.055 203.887 367.055C203.887 367.055 174.468 360.117 165.664 358.903Z" fill="#263238"/>
<path d="M208.683 339.49C208.229 349.337 214.882 357.636 223.54 358.036C232.197 358.436 239.572 350.751 240.012 340.905C240.453 331.058 233.8 322.759 225.156 322.372C216.512 321.986 209.124 329.644 208.683 339.49Z" fill="#455A64"/>
<path d="M238.424 341.448C238.92 330.495 231.518 321.263 221.892 320.828C212.265 320.393 204.059 328.92 203.563 339.874C203.067 350.827 210.469 360.059 220.095 360.494C229.722 360.929 237.928 352.402 238.424 341.448Z" fill="#C7C7C7"/>
<path d="M168.483 307.656C161.482 320.838 161.041 362.746 169.271 373.713C181.202 389.59 204.648 395.421 219.104 380.251C233.172 365.494 232.771 310.872 223.219 300.505C209.178 285.201 178.824 288.19 168.483 307.656Z" fill="#AD6359"/>
<path d="M203.379 340.051C203.379 339.944 203.152 340.198 203.166 340.318C203.313 343.133 203.019 346.388 200.494 347.376C200.413 347.376 200.427 347.549 200.494 347.536C203.62 347.029 203.967 342.706 203.379 340.051Z" fill="#263238"/>
<path d="M200.788 337.169C196.232 336.929 196.085 346.041 200.293 346.255C204.502 346.468 204.608 337.369 200.788 337.169Z" fill="#263238"/>
<path d="M219.198 340.398C219.198 340.291 219.411 340.544 219.411 340.651C219.278 343.48 219.598 346.735 222.083 347.709C222.163 347.709 222.083 347.883 222.083 347.869C218.997 347.376 218.61 343.053 219.198 340.398Z" fill="#263238"/>
<path d="M221.776 337.556C226.318 337.276 226.532 346.388 222.31 346.642C218.089 346.895 217.955 337.716 221.776 337.556Z" fill="#263238"/>
<path d="M196.699 329.884C198.035 329.817 199.144 329.537 200.413 329.35C201.752 329.325 203.045 328.855 204.087 328.016C204.367 327.695 204.532 327.29 204.556 326.865C204.58 326.44 204.462 326.019 204.221 325.668C203.637 325.054 202.899 324.607 202.084 324.372C201.27 324.138 200.407 324.124 199.585 324.334C197.844 324.472 196.218 325.258 195.029 326.535C194.78 326.841 194.625 327.213 194.581 327.605C194.538 327.997 194.608 328.393 194.785 328.747C194.961 329.1 195.235 329.395 195.574 329.597C195.914 329.798 196.304 329.898 196.699 329.884Z" fill="#263238"/>
<path d="M226.065 330.885C224.845 330.617 223.641 330.283 222.457 329.884C221.143 329.726 219.918 329.14 218.97 328.216C218.731 327.864 218.615 327.442 218.642 327.017C218.669 326.592 218.836 326.188 219.117 325.868C219.771 325.321 220.558 324.958 221.399 324.815C222.239 324.672 223.102 324.754 223.9 325.054C225.609 325.413 227.123 326.392 228.149 327.803C228.349 328.138 228.449 328.523 228.438 328.913C228.427 329.302 228.305 329.681 228.086 330.004C227.868 330.328 227.562 330.582 227.204 330.738C226.846 330.894 226.451 330.945 226.065 330.885Z" fill="#263238"/>
<path d="M198.222 366.215C198.89 366.882 199.558 367.802 200.574 367.909C201.624 367.9 202.662 367.673 203.62 367.242C203.639 367.238 203.659 367.239 203.677 367.246C203.696 367.252 203.712 367.264 203.725 367.279C203.737 367.294 203.745 367.312 203.748 367.332C203.751 367.351 203.748 367.371 203.74 367.389C203.33 367.94 202.778 368.369 202.142 368.63C201.507 368.89 200.812 368.973 200.133 368.87C199.559 368.709 199.044 368.383 198.655 367.932C198.265 367.481 198.017 366.926 197.942 366.335C197.902 366.175 198.115 366.108 198.222 366.215Z" fill="#263238"/>
<path d="M201.335 357.809C202.033 358.937 202.957 359.908 204.049 360.661C205.141 361.414 206.378 361.933 207.681 362.185C208.818 362.427 209.983 362.504 211.141 362.412C211.365 362.404 211.588 362.382 211.809 362.345L212.424 362.252C212.575 362.227 212.714 362.154 212.82 362.043C212.926 361.932 212.994 361.79 213.012 361.638C213.018 361.541 213.018 361.442 213.012 361.345V361.091C213.105 358.916 213.012 355.608 213.012 355.608C213.8 356.021 217.835 357.916 217.781 356.782C217.381 347.362 216.926 336.902 214.535 327.629C214.521 327.57 214.488 327.518 214.441 327.48C214.394 327.442 214.335 327.422 214.274 327.422C214.214 327.422 214.155 327.442 214.108 327.48C214.06 327.518 214.027 327.57 214.014 327.629C214.014 336.688 215.67 345.681 215.844 354.78C214.414 354.089 212.894 353.6 211.328 353.326C211.021 353.42 211.743 359.717 211.622 360.691C211.626 360.726 211.626 360.762 211.622 360.798C207.948 361.198 205.21 360.051 201.709 357.542C201.389 357.395 201.162 357.569 201.335 357.809Z" fill="#263238"/>
<path d="M209.872 361.278C208.657 362.814 207.065 364.009 205.25 364.747C204.248 365.117 203.156 365.169 202.123 364.894C199.879 364.253 199.852 362.225 200.293 360.424C200.539 359.497 200.894 358.601 201.349 357.756C203.742 359.807 206.728 361.041 209.872 361.278Z" fill="#263238"/>
<path d="M205.25 364.747C204.248 365.117 203.156 365.169 202.123 364.894C199.879 364.253 199.852 362.225 200.293 360.424C202.711 360.718 205.076 362.399 205.25 364.747Z" fill="#FF98B9"/>
<path opacity="0.2" d="M163.233 337.249C165.985 336.809 172.585 327.509 175.377 323.813C178.169 320.118 179.786 300.305 180.039 295.795C175.14 298.562 171.128 302.661 168.47 307.616C165.343 313.54 163.54 325.188 163.233 337.249Z" fill="#263238"/>
<path d="M214.174 312.206C212.543 313.993 210.481 315.334 208.185 316.102C205.889 316.87 203.435 317.04 201.055 316.595C198.626 316.149 196.351 315.089 194.448 313.518C192.545 311.946 191.075 309.915 190.18 307.616C190.18 307.469 189.912 307.549 189.966 307.683C190.688 310.187 192.082 312.446 193.996 314.216C195.91 315.987 198.272 317.202 200.827 317.729C203.366 318.112 205.961 317.821 208.351 316.884C210.741 315.947 212.841 314.398 214.441 312.393C214.45 312.358 214.449 312.322 214.437 312.288C214.424 312.255 214.402 312.226 214.373 312.206C214.344 312.186 214.309 312.175 214.274 312.175C214.238 312.175 214.203 312.185 214.174 312.206Z" fill="#263238"/>
<path d="M200.6 276.689C192.357 276.609 184.662 280.918 181.469 286.415C179.695 289.548 179.036 293.188 179.599 296.742C179.599 296.889 179.906 296.862 179.892 296.742C179.823 293.61 180.599 290.516 182.139 287.786C183.678 285.056 185.925 282.79 188.643 281.225C191.62 279.404 194.979 278.297 198.456 277.991C201.933 277.685 205.434 278.19 208.683 279.464C211.85 280.634 214.494 282.896 216.138 285.842C216.298 286.149 216.913 285.975 216.793 285.668C214.709 280.438 208.042 276.756 200.6 276.689Z" fill="#263238"/>
<path d="M247.828 296.022C246.606 291.922 243.976 288.383 240.4 286.028C235.443 282.746 229.712 283.026 224.047 283.427C224.015 283.427 223.985 283.439 223.962 283.462C223.94 283.484 223.927 283.515 223.927 283.547C223.927 283.579 223.94 283.609 223.962 283.632C223.985 283.654 224.015 283.667 224.047 283.667C228.884 283.347 233.813 283.293 238.169 285.708C241.794 287.668 244.627 290.823 246.185 294.634C247.668 298.544 247.687 302.857 246.238 306.779C244.79 310.701 241.972 313.969 238.302 315.982C236.162 317.086 233.819 317.741 231.416 317.909C229.013 318.076 226.601 317.752 224.328 316.956C224.141 316.889 224.007 317.142 224.181 317.222C227.251 318.431 230.598 318.762 233.846 318.179C237.094 317.596 240.116 316.122 242.573 313.922C245.03 311.722 246.825 308.882 247.758 305.721C248.691 302.559 248.724 299.201 247.855 296.022H247.828Z" fill="#263238"/>
<path d="M165.504 315.728C165.504 315.728 158.209 300.745 165.049 292.473C168.924 287.79 181.188 288.857 181.188 288.857C181.188 288.857 185.397 281.959 195.657 279.998C205.918 278.037 218.022 284.454 218.022 284.454C218.022 284.454 227.988 279.237 236.94 284.788C249.431 292.526 247.133 311.859 234.067 317.623C224.902 321.625 212.958 313.273 212.958 313.273C211.769 313.393 199.451 320.198 190.741 309.137C190.741 309.137 183.099 315.435 176.619 310.591C175.517 312.482 173.86 313.989 171.871 314.907C169.883 315.826 167.66 316.113 165.504 315.728Z" fill="#263238"/>
<path d="M170.754 342.319C170.754 342.319 163.82 327.643 157.287 329.831C150.754 332.019 154.375 352.326 160.921 356.141C161.729 356.689 162.639 357.067 163.597 357.254C164.555 357.441 165.541 357.433 166.496 357.23C167.45 357.027 168.354 356.633 169.152 356.072C169.951 355.511 170.627 354.795 171.142 353.967L170.754 342.319Z" fill="#AD6359"/>
<path d="M158.463 335.608C158.356 335.608 158.303 335.741 158.463 335.795C163.032 338.623 164.836 343.626 165.824 348.656C164.689 346.588 162.858 345.254 160.133 346.562C160.105 346.58 160.083 346.607 160.071 346.639C160.059 346.67 160.058 346.705 160.067 346.737C160.076 346.77 160.094 346.799 160.121 346.82C160.147 346.841 160.179 346.853 160.213 346.855C161.125 346.732 162.054 346.892 162.871 347.315C163.689 347.737 164.356 348.402 164.782 349.217C165.475 350.588 166.021 352.028 166.412 353.513C166.573 353.993 167.401 353.887 167.321 353.353C167.327 353.313 167.327 353.273 167.321 353.233C168.443 347.002 165.09 337.409 158.463 335.608Z" fill="#263238"/>
<path d="M185.864 371.872L172.705 366.201L162.124 353.046L164.154 351.405L174.335 364.067L186.906 369.483L185.864 371.872Z" fill="#C7C7C7"/>
<path d="M184.462 369.777C185.798 365.948 196.486 367.362 194.548 373.152C192.611 378.943 183.166 373.579 184.462 369.777Z" fill="#37474F"/>
<path d="M157.087 329.43C157.087 329.43 155.657 307.91 161.963 296.075C168.991 282.853 198.115 270.271 218.075 284.481C218.075 284.481 185.651 278.69 170.54 297.022C164.181 304.734 164.341 330.031 164.341 330.031L157.087 329.43Z" fill="#C7C7C7"/>
<path d="M160.027 360.339C169.663 360.244 177.386 351.278 177.277 340.314C177.168 329.35 169.268 320.54 159.632 320.635C149.996 320.731 142.273 329.697 142.382 340.661C142.491 351.625 150.391 360.435 160.027 360.339Z" fill="#C7C7C7"/>
<path d="M172.184 339.744C172.277 349.604 165.343 357.662 156.686 357.742C148.029 357.822 140.921 349.911 140.828 340.051C140.734 330.191 147.668 322.132 156.325 322.052C164.983 321.972 172.09 329.884 172.184 339.744Z" fill="#455A64"/>
<path d="M201.135 394.233L191.716 417.982L162.084 388.122L153.774 397.782C153.774 397.782 182.832 445.293 183.005 443.145L192.691 422.665L206.88 436.821L205.544 401.144L201.135 394.233Z" fill="#EBEBEB"/>
<path d="M207.227 419.143C206.813 413.259 206.572 407.322 205.891 401.465C205.891 401.264 205.544 401.171 205.49 401.465C204.341 407.162 206.038 429.643 206.038 435.047H205.971C205.383 434.433 192.825 422.599 192.705 422.785C190.607 426.041 183.486 440.944 183.005 442.305C178.409 434.753 158.957 405.014 153.48 397.876C153.453 397.83 153.409 397.796 153.358 397.782C153.307 397.768 153.252 397.776 153.206 397.802C153.16 397.829 153.126 397.872 153.112 397.924C153.099 397.975 153.106 398.03 153.132 398.076C157.14 406.081 182.391 445.32 182.738 445.213C186.487 438.178 189.871 430.955 192.878 423.573C195.003 426.148 207.668 439.516 207.708 438.636C207.892 432.134 207.732 425.627 207.227 419.143Z" fill="#263238"/>
<path d="M524.834 331.792H483.512C479.505 331.788 475.664 330.197 472.831 327.368C469.998 324.539 468.405 320.703 468.402 316.702C468.402 312.7 469.994 308.862 472.827 306.032C475.661 303.202 479.504 301.612 483.512 301.612H524.834C528.842 301.612 532.685 303.202 535.519 306.032C538.352 308.862 539.944 312.7 539.944 316.702C539.944 318.684 539.554 320.646 538.794 322.477C538.035 324.307 536.922 325.971 535.519 327.372C534.116 328.773 532.45 329.885 530.617 330.643C528.783 331.402 526.819 331.792 524.834 331.792Z" fill="#455A64"/>
<path d="M492.543 316.435C492.572 315.958 492.729 315.497 492.997 315.101L493.371 314.554L494.159 313.767L495.081 313.1C496.351 312.293 497.767 311.744 499.249 311.485C502.667 310.805 506.186 310.805 509.603 311.485C511.067 311.735 512.466 312.275 513.718 313.073C514.039 313.286 514.36 313.527 514.667 313.753L515.442 314.527C515.644 314.82 515.832 315.123 516.003 315.435C516.134 315.755 516.241 316.085 516.324 316.422H509.55C509.497 316.429 509.444 316.418 509.398 316.392C509.352 316.365 509.316 316.324 509.296 316.275C509.111 315.916 508.834 315.613 508.494 315.395C508.154 315.177 507.763 315.053 507.359 315.034C505.388 314.908 503.411 314.908 501.44 315.034C501.04 315.051 500.651 315.174 500.313 315.389C499.975 315.605 499.7 315.906 499.517 316.262C499.517 316.355 499.423 316.422 499.29 316.422H492.543V316.435Z" fill="white"/>
<path d="M492.543 320.211V317.743H499.223C499.223 317.89 499.223 318.05 499.223 318.223V320.211C499.241 320.327 499.232 320.446 499.195 320.558C499.159 320.67 499.096 320.772 499.013 320.855C498.93 320.938 498.828 321.001 498.716 321.037C498.604 321.074 498.485 321.083 498.368 321.065H493.385C493.269 321.084 493.15 321.075 493.038 321.038C492.927 321.002 492.825 320.939 492.743 320.856C492.66 320.772 492.599 320.67 492.564 320.558C492.53 320.445 492.522 320.327 492.543 320.211Z" fill="white"/>
<path d="M509.604 320.291C509.604 319.45 509.604 318.61 509.604 317.783H516.217V317.929C516.217 318.703 516.217 319.491 516.217 320.264C516.23 320.376 516.217 320.489 516.18 320.595C516.143 320.702 516.082 320.798 516.003 320.878C515.923 320.957 515.827 321.018 515.72 321.055C515.614 321.092 515.501 321.104 515.389 321.092H510.352C510.248 321.096 510.144 321.078 510.048 321.039C509.951 320.999 509.864 320.939 509.793 320.863C509.722 320.787 509.669 320.697 509.636 320.598C509.603 320.499 509.592 320.394 509.604 320.291Z" fill="white"/>
<path d="M355.296 585.719H346.131V591.697H355.296V585.719Z" fill="#455A64" fill-opacity="0.21"/>
<path d="M367.173 585.319H358.008V591.296H367.173V585.319Z" fill="#455A64" fill-opacity="0.21"/>
<path d="M379.063 584.919H369.898V590.896H379.063V584.919Z" fill="#455A64" fill-opacity="0.21"/>
<path d="M390.954 584.532H381.789V590.509H390.954V584.532Z" fill="#455A64" fill-opacity="0.21"/>
<path d="M402.844 584.132H393.679V590.109H402.844V584.132Z" fill="#455A64" fill-opacity="0.21"/>
<path d="M414.735 583.745H405.57V589.722H414.735V583.745Z" fill="#455A64" fill-opacity="0.21"/>
<path d="M426.625 583.344H417.46V589.322H426.625V583.344Z" fill="#455A64" fill-opacity="0.21"/>
<path d="M438.515 582.944H429.35V588.921H438.515V582.944Z" fill="#455A64" fill-opacity="0.21"/>
<path d="M450.392 582.557H441.227V588.534H450.392V582.557Z" fill="#455A64" fill-opacity="0.21"/>
<path d="M452.65 595.125H343.873V587.854L452.65 584.825V595.125Z" fill="#37474F"/>
<path d="M558.809 566.453H379.25L407.801 432.952H587.359L558.809 566.453Z" fill="#455A64" fill-opacity="0.21"/>
<path d="M565.449 566.453H385.89L414.441 432.952H593.999L565.449 566.453Z" fill="#00B35F"/>
<path d="M501.326 499.465C506.198 494.969 507.03 487.955 503.184 483.799C499.338 479.642 492.271 479.918 487.399 484.413C482.528 488.909 481.696 495.923 485.542 500.079C489.388 504.236 496.455 503.961 501.326 499.465Z" fill="#263238"/>
<path d="M514.667 601.316H426.358V594.458L514.667 591.616V601.316Z" fill="#455A64" fill-opacity="0.21"/>
<path d="M538.675 601.303H491.261L462.697 526.494H510.112L538.675 601.303Z" fill="#455A64" fill-opacity="0.21"/>
<path d="M546.477 601.303H499.063L470.512 526.494H517.927L546.477 601.303Z" fill="#263238"/>
<path d="M340.52 603.131H249.471C241.709 603.131 252.945 581.036 281.308 572.564C309.671 564.092 349.471 594.845 340.52 603.131Z" fill="#37474F"/>
<path d="M304.795 603.131C304.868 600.613 305.286 598.117 306.038 595.712C306.771 593.288 307.799 590.963 309.097 588.788C310.404 586.603 312.034 584.628 313.933 582.931C315.812 581.228 317.979 579.873 320.333 578.928C319.357 579.729 318.249 580.262 317.353 581.156L316.017 582.344L314.681 583.678C312.993 585.437 311.514 587.384 310.273 589.482C309.012 591.58 307.93 593.78 307.04 596.059C306.133 598.363 305.383 600.726 304.795 603.131Z" fill="#263238"/>
<path d="M315.577 582.104C320.984 583.891 326.102 586.457 330.767 589.722C333.124 591.349 335.258 593.278 337.113 595.459C338.024 596.574 338.808 597.787 339.451 599.075C340.086 600.361 340.45 601.765 340.52 603.197C340.201 601.839 339.645 600.547 338.876 599.382C338.15 598.213 337.298 597.126 336.338 596.139C334.391 594.169 332.267 592.383 329.992 590.803C327.734 589.175 325.343 587.721 322.951 586.28C321.749 585.559 320.52 584.865 319.291 584.198C318.062 583.531 316.819 582.784 315.577 582.104Z" fill="#263238"/>
<path d="M347.039 300.051C346.254 307.492 343.413 314.57 338.835 320.493C334.257 326.417 328.121 330.954 321.112 333.598C314.103 336.242 306.496 336.889 299.139 335.468C291.783 334.047 284.967 330.612 279.451 325.548L259.184 328.563L269.311 311.098C266.78 304.945 265.825 298.26 266.532 291.646C267.051 286.342 268.615 281.194 271.135 276.497C273.654 271.8 277.079 267.647 281.213 264.277C285.346 260.908 290.107 258.388 295.219 256.863C300.332 255.339 305.696 254.839 311.003 255.393C316.31 255.948 321.454 257.545 326.14 260.093C330.826 262.641 334.961 266.09 338.307 270.241C341.653 274.392 344.143 279.163 345.635 284.279C347.127 289.395 347.591 294.755 346.999 300.051H347.039Z" fill="#817D69" fill-opacity="0.04"/>
<path d="M347.039 300.051C346.262 307.499 343.437 314.587 338.876 320.531C337.743 322.01 336.521 323.418 335.216 324.747C333.863 326.031 332.435 327.234 330.941 328.35C327.964 330.612 324.68 332.441 321.188 333.78C317.697 335.145 314.032 336.017 310.299 336.368C308.43 336.544 306.55 336.58 304.675 336.475C302.797 336.431 300.925 336.24 299.077 335.901C291.608 334.533 284.669 331.114 279.037 326.028L279.518 326.175L259.304 329.284L257.848 329.551L258.583 328.216L268.656 310.698V311.392C266.293 305.653 265.271 299.451 265.669 293.259C266.066 287.066 267.873 281.046 270.952 275.656C274.031 270.266 278.3 265.648 283.435 262.154C288.57 258.66 294.435 256.381 300.585 255.492C306.734 254.603 313.006 255.126 318.922 257.022C324.839 258.918 330.244 262.137 334.728 266.433C339.211 270.73 342.654 275.991 344.794 281.817C346.934 287.642 347.716 293.878 347.079 300.051H347.039ZM347.039 300.051C347.674 293.971 346.905 287.826 344.792 282.088C342.679 276.35 339.278 271.172 334.85 266.951C330.421 262.73 325.084 259.578 319.247 257.736C313.409 255.895 307.227 255.414 301.174 256.329C295.173 257.223 289.455 259.478 284.461 262.92C279.522 266.391 275.393 270.888 272.357 276.102C269.37 281.343 267.607 287.19 267.2 293.207C266.827 299.235 267.808 305.271 270.072 310.872L270.219 311.232L270.019 311.552L259.839 328.99L259.117 327.923L279.371 325.094H279.652L279.852 325.281C285.258 330.335 291.965 333.786 299.224 335.248C301.034 335.611 302.87 335.834 304.715 335.915C306.556 336.041 308.404 336.041 310.246 335.915C313.942 335.633 317.581 334.833 321.054 333.54C324.545 332.28 327.831 330.513 330.807 328.296C332.298 327.19 333.725 326.001 335.082 324.734C336.391 323.418 337.618 322.024 338.756 320.558C343.366 314.621 346.234 307.521 347.039 300.051Z" fill="#263238"/>
<path d="M329.364 297.076C329.367 298.045 329.081 298.993 328.544 299.8C328.007 300.607 327.242 301.237 326.347 301.609C325.451 301.982 324.465 302.081 323.513 301.893C322.561 301.706 321.686 301.241 320.999 300.556C320.312 299.872 319.843 299 319.653 298.049C319.463 297.099 319.559 296.114 319.93 295.218C320.301 294.323 320.929 293.557 321.736 293.019C322.542 292.48 323.491 292.193 324.461 292.193C325.104 292.191 325.742 292.316 326.336 292.561C326.931 292.805 327.472 293.165 327.927 293.618C328.383 294.072 328.744 294.611 328.991 295.204C329.237 295.797 329.364 296.433 329.364 297.076Z" fill="#00B373"/>
<path d="M311.809 297.076C311.812 298.045 311.526 298.994 310.988 299.801C310.451 300.609 309.685 301.238 308.788 301.61C307.892 301.983 306.905 302.081 305.953 301.892C305 301.704 304.125 301.237 303.439 300.552C302.752 299.866 302.285 298.992 302.096 298.041C301.908 297.09 302.006 296.104 302.379 295.209C302.751 294.314 303.382 293.549 304.19 293.012C304.999 292.475 305.948 292.19 306.919 292.193C308.216 292.193 309.46 292.707 310.377 293.623C311.294 294.539 311.809 295.781 311.809 297.076Z" fill="#00B373"/>
<path d="M294.267 297.076C294.27 298.045 293.985 298.993 293.448 299.8C292.91 300.607 292.146 301.237 291.25 301.609C290.354 301.982 289.368 302.081 288.416 301.893C287.464 301.706 286.589 301.241 285.902 300.556C285.215 299.872 284.747 299 284.556 298.049C284.366 297.099 284.462 296.114 284.833 295.218C285.204 294.323 285.832 293.557 286.639 293.019C287.445 292.48 288.394 292.193 289.364 292.193C290.662 292.193 291.907 292.707 292.827 293.622C293.746 294.537 294.264 295.78 294.267 297.076Z" fill="#00B373"/>
<path d="M376.284 57.1844C380.69 52.8452 386.036 49.5754 391.908 47.6276C397.78 45.6797 404.022 45.1058 410.152 45.9503C416.325 46.7633 422.229 48.9769 427.413 52.4213C435.266 57.6561 441.065 65.441 443.829 74.4571C446.592 83.4733 446.15 93.1662 442.577 101.894V101.2L452.623 118.745L453.358 120.079L451.902 119.852L431.675 116.757L432.156 116.61C426.524 121.696 419.584 125.115 412.116 126.483C410.268 126.822 408.396 127.013 406.518 127.057C404.648 127.155 402.772 127.119 400.907 126.95C393.414 126.237 386.265 123.466 380.252 118.945C378.758 117.829 377.33 116.626 375.977 115.343C374.675 114.01 373.453 112.602 372.316 111.127C366.26 103.225 363.317 93.3788 364.043 83.4544C364.769 73.5301 369.115 64.2164 376.258 57.2778L376.284 57.1844ZM372.463 110.94C373.602 112.401 374.829 113.791 376.137 115.103C377.488 116.377 378.916 117.566 380.413 118.665C383.388 120.893 386.679 122.665 390.179 123.922C393.65 125.209 397.283 126.008 400.974 126.297C402.82 126.423 404.672 126.423 406.518 126.297C408.358 126.215 410.19 125.992 411.996 125.63C419.254 124.168 425.962 120.717 431.368 115.663L431.568 115.476H431.849L452.102 118.305L451.381 119.372L441.201 101.934L441 101.6L441.147 101.24C443.415 95.6612 444.388 89.6416 443.992 83.6334C443.597 77.6253 441.843 71.7848 438.863 66.5506C435.831 61.3336 431.701 56.8361 426.758 53.3685C421.768 49.9285 416.056 47.674 410.058 46.7775C402.131 45.5552 394.02 46.7411 386.776 50.1813C379.533 53.6214 373.492 59.1569 369.438 66.069C365.385 72.9811 363.506 80.9505 364.046 88.9425C364.585 96.9346 367.518 104.58 372.463 110.886V110.94Z" fill="#263238"/>
<path d="M408.014 91.2869V96.3302C408.025 96.8325 407.934 97.3319 407.747 97.7982C407.559 98.2645 407.279 98.688 406.924 99.0433C406.568 99.3986 406.144 99.6783 405.677 99.8655C405.21 100.053 404.71 100.144 404.207 100.133C403.198 100.129 402.232 99.7274 401.518 99.0151C400.805 98.3027 400.403 97.3376 400.399 96.3302V88.3249C400.399 88.2449 400.479 88.2449 400.479 88.1648C400.479 88.0848 400.399 88.0848 400.399 88.018C400.426 87.0181 400.836 86.0665 401.544 85.3591C402.253 84.6518 403.205 84.2425 404.207 84.2155C405.404 84.3094 406.609 84.1549 407.744 83.7617C408.879 83.3684 409.92 82.745 410.802 81.9305C411.684 81.116 412.388 80.1281 412.869 79.0289C413.351 77.9297 413.599 76.7429 413.599 75.5432C413.599 74.3434 413.351 73.1566 412.869 72.0574C412.388 70.9582 411.684 69.9703 410.802 69.1558C409.92 68.3413 408.879 67.7179 407.744 67.3246C406.609 66.9314 405.404 66.7769 404.207 66.8708C402.698 66.8647 401.214 67.2562 399.905 68.0059C398.596 68.7555 397.509 69.8367 396.752 71.1403C396.492 71.5817 396.147 71.967 395.736 72.2737C395.325 72.5804 394.858 72.8023 394.36 72.9265C393.863 73.0507 393.345 73.0747 392.838 72.9971C392.332 72.9195 391.845 72.7418 391.408 72.4745C390.977 72.2213 390.601 71.8856 390.3 71.4867C390 71.0878 389.781 70.6336 389.657 70.15C389.533 69.6665 389.506 69.1633 389.577 68.6692C389.648 68.1751 389.816 67.7 390.072 67.271C391.424 64.9282 393.338 62.9578 395.642 61.5374C397.946 60.117 400.567 59.2912 403.27 59.1343C405.973 58.9774 408.673 59.4943 411.126 60.6385C413.579 61.7828 415.709 63.5184 417.324 65.6891C418.938 67.8597 419.987 70.3974 420.375 73.0734C420.763 75.7495 420.479 78.4799 419.547 81.0189C418.616 83.5579 417.067 85.8257 415.04 87.6181C413.013 89.4105 410.571 90.6713 407.934 91.2869H408.014ZM408.014 108.271V109.606C408.027 110.108 407.938 110.609 407.751 111.076C407.564 111.543 407.284 111.967 406.928 112.323C406.572 112.679 406.147 112.958 405.679 113.145C405.211 113.331 404.71 113.421 404.207 113.408C403.197 113.408 402.229 113.007 401.514 112.294C400.8 111.581 400.399 110.614 400.399 109.606V108.271C400.413 107.267 400.819 106.308 401.53 105.598C402.241 104.888 403.201 104.483 404.207 104.469C404.708 104.464 405.206 104.558 405.67 104.747C406.135 104.937 406.556 105.217 406.911 105.571C407.266 105.925 407.546 106.346 407.735 106.81C407.925 107.274 408.02 107.771 408.014 108.271Z" fill="#00B373"/>
</g>
</g>
<defs>
<clipPath id="clip0_201_493">
<rect width="668" height="616" fill="white"/>
</clipPath>
</defs>
</svg>
