<svg width="120" height="120" viewBox="0 0 120 120" fill="none" xmlns="http://www.w3.org/2000/svg">
<g filter="url(#filter0_d_20_2)">
<circle cx="60" cy="64" r="50" fill="#FAFAFA"/>
</g>
<g filter="url(#filter1_d_20_2)">
<circle cx="60" cy="64" r="13" fill="#BEFF7D" fill-opacity="0.17" shape-rendering="crispEdges"/>
</g>
<path d="M49.0269 41.157L41.4792 53.4593C40.8442 54.4942 41.2521 55.8513 42.3524 56.3648C43.3635 56.8366 44.5659 56.4054 45.0467 55.3985L46.7754 51.7783L46.473 83.8151C46.462 84.9892 47.416 85.9501 48.604 85.9613C49.7919 85.9726 50.7639 85.0298 50.775 83.8557L51.0823 51.2994L53.2504 55.5059C53.7657 56.5058 54.9904 56.9039 55.9952 56.3982C57.0771 55.8536 57.4539 54.495 56.8069 53.471L49.0269 41.157Z" fill="black" fill-opacity="0.9"/>
<path d="M71.3992 86.1008L78.9469 73.7985C79.5818 72.7636 79.1739 71.4065 78.0737 70.893C77.0626 70.4212 75.8601 70.8524 75.3793 71.8593L73.6506 75.4795L73.953 43.4427C73.9641 42.2686 73.01 41.3077 71.8221 41.2965C70.6341 41.2853 69.6621 42.228 69.651 43.4021L69.3437 75.9584L67.1757 71.7519C66.6603 70.752 65.4356 70.3539 64.4308 70.8596C63.3489 71.4042 62.9722 72.7628 63.6191 73.7868L71.3992 86.1008Z" fill="black" fill-opacity="0.9"/>
<defs>
<filter id="filter0_d_20_2" x="0" y="0" width="120" height="120" filterUnits="userSpaceOnUse" color-interpolation-filters="sRGB">
<feFlood flood-opacity="0" result="BackgroundImageFix"/>
<feColorMatrix in="SourceAlpha" type="matrix" values="0 0 0 0 0 0 0 0 0 0 0 0 0 0 0 0 0 0 127 0" result="hardAlpha"/>
<feOffset dy="-4"/>
<feGaussianBlur stdDeviation="5"/>
<feComposite in2="hardAlpha" operator="out"/>
<feColorMatrix type="matrix" values="0 0 0 0 0.745098 0 0 0 0 1 0 0 0 0 0.490196 0 0 0 0.34 0"/>
<feBlend mode="normal" in2="BackgroundImageFix" result="effect1_dropShadow_20_2"/>
<feBlend mode="normal" in="SourceGraphic" in2="effect1_dropShadow_20_2" result="shape"/>
</filter>
<filter id="filter1_d_20_2" x="27" y="31" width="66" height="66" filterUnits="userSpaceOnUse" color-interpolation-filters="sRGB">
<feFlood flood-opacity="0" result="BackgroundImageFix"/>
<feColorMatrix in="SourceAlpha" type="matrix" values="0 0 0 0 0 0 0 0 0 0 0 0 0 0 0 0 0 0 127 0" result="hardAlpha"/>
<feOffset/>
<feGaussianBlur stdDeviation="10"/>
<feComposite in2="hardAlpha" operator="out"/>
<feColorMatrix type="matrix" values="0 0 0 0 0.745098 0 0 0 0 1 0 0 0 0 0.490196 0 0 0 0.7 0"/>
<feBlend mode="normal" in2="BackgroundImageFix" result="effect1_dropShadow_20_2"/>
<feBlend mode="normal" in="SourceGraphic" in2="effect1_dropShadow_20_2" result="shape"/>
</filter>
</defs>
</svg>
