<svg width="56" height="50" viewBox="0 0 56 50" fill="none" xmlns="http://www.w3.org/2000/svg">
<path fill-rule="evenodd" clip-rule="evenodd" d="M7.93064 0C5.84811 0 3.85088 0.65848 2.37831 1.83058C0.905742 3.00268 0.0784607 4.5924 0.0784607 6.25V50L13.8198 43.75L27.5611 50L41.3024 43.75L55.0437 50V6.25C55.0437 4.5924 54.2165 3.00268 52.7439 1.83058C51.2713 0.65848 49.2741 0 47.1916 0H7.93064ZM26.4108 11.5844C27.1259 10.995 27.5217 10.2056 27.5127 9.38625C27.5038 8.56688 27.0909 7.78309 26.3629 7.20369C25.635 6.62429 24.6503 6.29564 23.6209 6.28852C22.5915 6.2814 21.5997 6.59638 20.8593 7.16563L9.08099 16.5406C8.34496 17.1266 7.93148 17.9214 7.93148 18.75C7.93148 19.5786 8.34496 20.3734 9.08099 20.9594L20.8593 30.3344C21.5997 30.9036 22.5915 31.2186 23.6209 31.2115C24.6503 31.2044 25.635 30.8757 26.3629 30.2963C27.0909 29.7169 27.5038 28.9331 27.5127 28.1138C27.5217 27.2944 27.1259 26.505 26.4108 25.9156L21.3343 21.875H27.5611C30.6849 21.875 33.6807 22.8627 35.8896 24.6209C38.0985 26.379 39.3394 28.7636 39.3394 31.25V34.375C39.3394 35.2038 39.753 35.9987 40.4893 36.5847C41.2256 37.1708 42.2242 37.5 43.2655 37.5C44.3067 37.5 45.3053 37.1708 46.0416 36.5847C46.7779 35.9987 47.1916 35.2038 47.1916 34.375V31.25C47.1916 27.106 45.1234 23.1317 41.4419 20.2015C37.7605 17.2712 32.7674 15.625 27.5611 15.625H21.3343L26.4108 11.5844Z" fill="#0F003A"/>
</svg>
