<svg width="56" height="50" viewBox="0 0 56 50" fill="none" xmlns="http://www.w3.org/2000/svg">
<path d="M4.30656 42.8522C4.30656 44.7479 5.19748 46.566 6.78332 47.9065C8.36917 49.2469 10.52 50 12.7628 50H24.9185C25.0587 50 25.1931 49.9529 25.2923 49.8692C25.3914 49.7854 25.4471 49.6717 25.4471 49.5533V29.0035C25.4471 28.885 25.3914 28.7713 25.2923 28.6876C25.1931 28.6038 25.0587 28.5567 24.9185 28.5567H5.36358C5.08324 28.5567 4.81439 28.6508 4.61615 28.8184C4.41792 28.986 4.30656 29.2132 4.30656 29.4502V42.8522ZM25.4471 24.5361V12.4743H29.6751V24.5361C29.6751 24.6546 29.7308 24.7682 29.8299 24.852C29.9291 24.9358 30.0635 24.9828 30.2037 24.9828H48.7016C49.4218 24.9828 50.1367 24.8789 50.8156 24.6757C52.0511 24.3049 53.1206 23.6202 53.8776 22.7155C54.6345 21.8107 55.0419 20.7302 55.0437 19.622V17.8351C55.0437 16.4133 54.3756 15.0497 53.1862 14.0444C51.9968 13.039 50.3836 12.4743 48.7016 12.4743H43.3451C43.2991 12.4736 43.2541 12.4629 43.2145 12.443C43.1749 12.4231 43.1421 12.3949 43.1194 12.361C43.0967 12.3272 43.0849 12.2889 43.0851 12.25C43.0853 12.2111 43.0975 12.1729 43.1205 12.1392C44.3438 10.3935 44.7411 8.32135 44.2328 6.33837C43.7244 4.3554 42.348 2.60816 40.3796 1.447C38.4111 0.285841 35.9961 -0.203393 33.6188 0.0773985C31.2415 0.35819 29.0776 1.38825 27.5611 2.96103C26.0446 1.38825 23.8807 0.35819 21.5034 0.0773985C19.1261 -0.203393 16.7111 0.285841 14.7426 1.447C12.7742 2.60816 11.3978 4.3554 10.8894 6.33837C10.3811 8.32135 10.7784 10.3935 12.0017 12.1392C12.0247 12.1729 12.0369 12.2111 12.0371 12.25C12.0373 12.2889 12.0255 12.3272 12.0028 12.361C11.9801 12.3949 11.9473 12.4231 11.9077 12.443C11.8681 12.4629 11.8231 12.4736 11.7771 12.4743H6.42061C4.73857 12.4743 3.12542 13.039 1.93603 14.0444C0.74665 15.0497 0.0784607 16.4133 0.0784607 17.8351V19.622C0.0803266 20.7302 0.487666 21.8107 1.24463 22.7155C2.00159 23.6202 3.07111 24.3049 4.30656 24.6757C4.98545 24.8789 5.70039 24.9828 6.42061 24.9828H24.9185C25.0587 24.9828 25.1931 24.9358 25.2923 24.852C25.3914 24.7682 25.4471 24.6546 25.4471 24.5361ZM29.6751 8.0069C29.6751 7.12334 29.9851 6.25962 30.5659 5.52497C31.1466 4.79032 31.972 4.21773 32.9377 3.87961C33.9035 3.54148 34.9661 3.45301 35.9913 3.62539C37.0166 3.79776 37.9583 4.22324 38.6974 4.84801C39.4366 5.47278 39.9399 6.26878 40.1438 7.13536C40.3478 8.00194 40.2431 8.90018 39.8431 9.71648C39.4431 10.5328 38.7657 11.2305 37.8965 11.7214C37.0274 12.2122 36.0056 12.4743 34.9603 12.4743H29.6751V8.0069ZM19.784 3.55072C20.5081 3.50684 21.2351 3.58952 21.9197 3.79359C22.6043 3.99767 23.2318 4.31876 23.7631 4.73685C24.2944 5.15494 24.7182 5.66107 25.0079 6.22367C25.2976 6.78628 25.4471 7.3933 25.4471 8.0069V12.4743H20.1619C18.7953 12.4713 17.4832 12.021 16.5009 11.2178C15.5187 10.4147 14.9426 9.32116 14.8938 8.16674C14.8449 7.01232 15.3269 5.88677 16.2387 5.02631C17.1505 4.16586 18.4212 3.63739 19.784 3.55183V3.55072ZM30.2037 50H42.3594C44.6022 50 46.753 49.2469 48.3389 47.9065C49.9247 46.566 50.8156 44.7479 50.8156 42.8522V29.4502C50.8156 29.2132 50.7043 28.986 50.506 28.8184C50.3078 28.6508 50.039 28.5567 49.7586 28.5567H30.2037C30.0635 28.5567 29.9291 28.6038 29.8299 28.6876C29.7308 28.7713 29.6751 28.885 29.6751 29.0035V49.5533C29.6751 49.6717 29.7308 49.7854 29.8299 49.8692C29.9291 49.9529 30.0635 50 30.2037 50Z" fill="#0F003A"/>
</svg>
