<svg width="148" height="148" viewBox="0 0 148 148" fill="none" xmlns="http://www.w3.org/2000/svg">
<path d="M74.0053 0C64.6899 0 57.0218 6.78677 55.6382 15.7143H92.3621C90.9807 6.78677 83.3203 0 74.0053 0ZM41.463 2.90085L19.4303 25.2169C27.6569 33.0988 35.1628 37.6116 41.0927 39.4461C47.5177 41.435 51.7483 40.4074 54.0487 38.0498C54.823 37.2566 55.4448 36.2246 55.8622 34.9636C51.9626 30.6258 49.5842 24.8891 49.5842 18.6155C49.5842 16.9654 49.7486 15.3496 50.0615 13.7901C47.8412 10.3608 45.0035 6.70582 41.4636 2.90085H41.463ZM106.538 2.90085C102.997 6.70551 100.157 10.3608 97.9385 13.7901C98.2568 15.3788 98.4167 16.9952 98.4158 18.6155C98.4165 24.8891 96.0355 30.6258 92.1381 34.9636C92.5543 36.2249 93.177 37.2569 93.9513 38.0501C96.2517 40.4078 100.482 41.4353 106.907 39.4471C112.838 37.6116 120.343 33.0988 128.57 25.2172L106.537 2.90116L106.538 2.90085ZM55.6476 21.5541C56.8979 29.5122 63.141 35.7699 71.09 37.0147V21.5541H55.6476ZM76.9197 21.5541V37.0147C84.8674 35.7699 91.1036 29.5122 92.3527 21.5541H76.9197ZM60.493 38.968C59.8909 40.1337 59.1354 41.1953 58.2219 42.132C56.035 44.3727 53.1244 45.7085 49.7498 46.1457C55.1297 55.7839 64.5614 60.2961 73.9953 60.2677C83.3965 60.2396 92.8113 55.6986 98.2021 46.1454C94.8485 45.7016 91.9553 44.3621 89.779 42.1316C88.8662 41.1959 88.1184 40.1315 87.5172 38.967C83.6448 41.5588 78.9965 43.0786 74.005 43.0786C69.0135 43.0786 64.3674 41.5588 60.493 38.967V38.968ZM27.5118 39.2508C23.8044 41.7791 20.6042 44.7496 18.1434 48.1483C19.7594 48.7709 21.2837 49.7747 22.6576 51.0779C22.7471 51.1633 22.8314 51.2536 22.9206 51.3417C25.4138 47.9527 28.9079 45.0325 33.2155 42.5323C31.3646 41.6135 29.4591 40.5228 27.5118 39.2508ZM120.42 39.2995C118.463 40.5737 116.546 41.6632 114.687 42.581C119.038 45.0937 122.568 48.0252 125.08 51.4192C125.161 51.3386 125.241 51.2545 125.323 51.1754C126.693 49.8603 128.215 48.839 129.828 48.1971C127.355 44.8022 124.143 41.8301 120.42 39.2995H120.42ZM14.3312 53.2659C13.0396 53.2753 11.6139 53.8275 9.98328 55.3948C8.35169 56.9625 6.62651 59.5348 5.11814 63.1392C2.30107 69.8709 0.261741 80.178 0 93.8259H28.623C28.3622 80.063 26.3207 69.7184 23.5046 63.0029C21.9968 59.4083 20.2717 56.8556 18.6494 55.3167C17.0272 53.7778 15.6221 53.2565 14.3306 53.2659H14.3312ZM133.708 53.2659C132.416 53.2753 130.99 53.8275 129.36 55.3948C127.729 56.9625 126.003 59.5348 124.495 63.1392C121.678 69.8709 119.639 80.178 119.377 93.8259H148C147.74 80.063 145.698 69.7184 142.882 63.0029C141.374 59.4083 139.649 56.8556 138.026 55.3167C136.404 53.7778 134.999 53.2565 133.708 53.2659ZM82.3888 64.9949C79.6531 65.7239 76.8354 66.0982 74.0047 66.1088C71.1689 66.1172 68.3393 65.7556 65.5816 65.0343C63.9319 66.7869 62.9495 69.054 62.9495 71.4898C62.9495 76.8808 67.7382 81.4418 74.005 81.4418C80.2715 81.4418 85.0602 76.8812 85.0602 71.4898C85.0602 69.0352 84.0619 66.7535 82.3888 64.9956V64.9949ZM58.6793 78.1022C52.1878 81.3962 46.3946 86.8735 42.1646 94.4309C43.8106 95.145 45.3738 96.2154 46.8441 97.6149C50.7406 90.355 56.1951 85.4627 62.2086 82.77C60.7476 81.4374 59.5512 79.8604 58.6793 78.1016V78.1022ZM89.3011 78.1797C88.4182 79.9355 87.2025 81.5018 85.7322 82.8285C91.726 85.5381 97.172 90.4187 101.078 97.6052C101.097 97.5865 101.116 97.5646 101.136 97.5458C102.567 96.1995 104.126 95.1419 105.767 94.4309C101.537 86.9391 95.7663 81.4862 89.3011 78.1797ZM37.3288 99.236C35.6273 99.2241 33.8092 99.9245 31.8107 101.805C29.8126 103.685 27.7498 106.748 25.942 111.024C23.6406 116.467 21.7785 123.888 20.7259 133.194C23.3761 131.881 26.3026 131.242 29.2083 131.25C33.8223 131.263 38.4613 132.911 41.989 136.26C44.9486 139.071 47.0373 143.088 47.6334 148H54.8867C54.6196 131.636 52.1694 119.282 48.7546 111.19C45.1358 102.615 40.7314 99.2597 37.3288 99.2357V99.236ZM110.632 99.236C108.93 99.2241 107.122 99.9245 105.123 101.805C103.125 103.685 101.053 106.748 99.2447 111.024C95.8309 119.098 93.3879 131.499 93.1224 148H100.365C100.957 143.054 103.042 139.024 106.01 136.211C109.543 132.864 114.197 131.237 118.811 131.25C121.712 131.258 124.632 131.906 127.273 133.223C126.222 124.005 124.363 116.631 122.067 111.19C118.448 102.614 114.034 99.2597 110.632 99.236ZM5.7714 99.6657C5.45008 100.883 5.4532 102.191 5.82943 103.485C7.02115 107.579 11.8089 110.234 16.6023 109.051C21.3567 107.878 23.8855 103.729 22.7637 99.6663L5.77078 99.6657H5.7714ZM125.147 99.6657C124.827 100.883 124.829 102.191 125.206 103.485C126.397 107.579 131.185 110.234 135.978 109.051C140.733 107.878 143.262 103.729 142.14 99.6663L125.147 99.6657ZM29.1886 137.091C25.9551 137.081 22.7584 138.22 20.4052 140.45C18.5537 142.205 17.1688 144.648 16.6522 148H41.7457C41.2265 144.686 39.8339 142.257 37.9833 140.499C35.6248 138.26 32.4231 137.1 29.189 137.09L29.1886 137.091ZM118.792 137.091C115.558 137.081 112.371 138.22 110.018 140.45C108.166 142.205 106.772 144.648 106.255 148H131.349C130.829 144.686 129.436 142.257 127.585 140.499C125.227 138.26 122.026 137.1 118.792 137.091Z" fill="#00B35F"/>
</svg>
