<svg width="56" height="50" viewBox="0 0 56 50" fill="none" xmlns="http://www.w3.org/2000/svg">
<path d="M6.94912 50C5.05969 50 3.44165 49.44 2.095 48.32C0.748355 47.2 0.0761763 45.8552 0.0784665 44.2857V18.5714C0.0784665 17.6667 0.322374 16.8095 0.810191 16C1.29801 15.1905 1.97019 14.5238 2.82673 14L23.4387 1.14286C24.0685 0.761905 24.7269 0.47619 25.414 0.285714C26.1011 0.0952378 26.8168 0 27.5611 0C28.3054 0 29.0211 0.0952378 29.7082 0.285714C30.3952 0.47619 31.0537 0.761905 31.6835 1.14286L52.2955 14C53.1543 14.5238 53.8276 15.1905 54.3154 16C54.8032 16.8095 55.046 17.6667 55.0437 18.5714V44.2857C55.0437 45.8571 54.3704 47.2029 53.0238 48.3228C51.6771 49.4429 50.0602 50.0019 48.1731 50H34.4318V30H20.6904V50H6.94912Z" fill="#0F003A"/>
</svg>
