<svg width="131" height="209" viewBox="0 0 131 209" fill="none" xmlns="http://www.w3.org/2000/svg">
<g filter="url(#filter0_d_120_26)">
<path d="M22.6217 83.5769C24.3885 105.1 34.3621 128.216 35.3112 130.385L9.82682 141.312L8.84943 100.994C8.736 96.315 10.9681 91.8282 14.8364 89.0947L22.6217 83.5769ZM86.5348 125.209C86.5348 125.209 96.7974 98.6129 96.2785 77.2092C94.9753 23.4513 69.0895 7.54347 62.8376 4.40789C56.6941 7.79415 31.6604 24.9861 32.9636 78.7441C33.4825 100.148 45.0217 126.215 45.0217 126.215L86.5348 125.209ZM106.842 81.5352C106.121 103.118 97.2788 126.691 96.436 128.903L122.42 138.583L121.442 98.2644C121.329 93.5855 118.882 89.2122 114.886 86.6694L106.842 81.5352ZM81.0935 141.129C85.3251 145.16 87.4974 150.536 87.6277 155.912C87.9125 167.659 67.4881 196.244 67.4881 196.244C67.4881 196.244 45.7025 168.682 45.4178 156.935C45.3055 152.755 46.4379 148.636 48.6712 145.101C50.9045 141.566 54.1378 138.775 57.9607 137.081C61.7836 135.387 66.0237 134.868 70.1424 135.588C74.2612 136.309 78.0729 138.237 81.0935 141.129ZM54.6369 77.0234C49.0288 71.6807 48.8116 62.7211 54.1543 57.113C59.4969 51.5049 68.4565 51.2877 74.0646 56.6303C79.6727 61.973 79.8899 70.9326 74.5473 76.5407C69.2047 82.1488 60.245 82.366 54.6369 77.0234Z" fill="#00B35F"/>
</g>
<defs>
<filter id="filter0_d_120_26" x="0.845276" y="0.407898" width="129.575" height="207.836" filterUnits="userSpaceOnUse" color-interpolation-filters="sRGB">
<feFlood flood-opacity="0" result="BackgroundImageFix"/>
<feColorMatrix in="SourceAlpha" type="matrix" values="0 0 0 0 0 0 0 0 0 0 0 0 0 0 0 0 0 0 127 0" result="hardAlpha"/>
<feOffset dy="4"/>
<feGaussianBlur stdDeviation="4"/>
<feComposite in2="hardAlpha" operator="out"/>
<feColorMatrix type="matrix" values="0 0 0 0 0 0 0 0 0 0 0 0 0 0 0 0 0 0 0.25 0"/>
<feBlend mode="normal" in2="BackgroundImageFix" result="effect1_dropShadow_120_26"/>
<feBlend mode="normal" in="SourceGraphic" in2="effect1_dropShadow_120_26" result="shape"/>
</filter>
</defs>
</svg>
