<svg width="8" height="10" viewBox="0 0 8 10" fill="none" xmlns="http://www.w3.org/2000/svg">
<path d="M5.60369 2.67188C5.56392 2.29972 5.39631 2.00994 5.10085 1.80256C4.80824 1.59517 4.42756 1.49148 3.95881 1.49148C3.62926 1.49148 3.34659 1.54119 3.1108 1.64062C2.875 1.74006 2.6946 1.875 2.5696 2.04545C2.4446 2.21591 2.38068 2.41051 2.37784 2.62926C2.37784 2.81108 2.41903 2.96875 2.50142 3.10227C2.58665 3.2358 2.7017 3.34943 2.84659 3.44318C2.99148 3.53409 3.15199 3.6108 3.32812 3.6733C3.50426 3.7358 3.68182 3.78835 3.8608 3.83097L4.67898 4.03551C5.00852 4.11222 5.32528 4.21591 5.62926 4.34659C5.93608 4.47727 6.21023 4.64205 6.4517 4.84091C6.69602 5.03977 6.8892 5.27983 7.03125 5.56108C7.1733 5.84233 7.24432 6.17187 7.24432 6.54972C7.24432 7.06108 7.11364 7.51136 6.85227 7.90057C6.59091 8.28693 6.21307 8.58949 5.71875 8.80824C5.22727 9.02415 4.6321 9.1321 3.93324 9.1321C3.25426 9.1321 2.66477 9.02699 2.16477 8.81676C1.66761 8.60653 1.27841 8.29972 0.997159 7.89631C0.71875 7.4929 0.568182 7.00142 0.545455 6.42188H2.10085C2.12358 6.72585 2.21733 6.97869 2.3821 7.1804C2.54688 7.3821 2.76136 7.53267 3.02557 7.6321C3.29261 7.73153 3.59091 7.78125 3.92045 7.78125C4.2642 7.78125 4.56534 7.73011 4.82386 7.62784C5.08523 7.52273 5.28977 7.37784 5.4375 7.19318C5.58523 7.00568 5.66051 6.78693 5.66335 6.53693C5.66051 6.30966 5.59375 6.12216 5.46307 5.97443C5.33239 5.82386 5.14915 5.69886 4.91335 5.59943C4.6804 5.49716 4.40767 5.40625 4.09517 5.3267L3.10227 5.07102C2.38352 4.88636 1.81534 4.60653 1.39773 4.23153C0.982955 3.85369 0.775568 3.35227 0.775568 2.72727C0.775568 2.21307 0.914773 1.76278 1.19318 1.37642C1.47443 0.990057 1.85653 0.690341 2.33949 0.477272C2.82244 0.261363 3.36932 0.153409 3.98011 0.153409C4.59943 0.153409 5.14205 0.261363 5.60795 0.477272C6.0767 0.690341 6.4446 0.987216 6.71165 1.3679C6.97869 1.74574 7.11648 2.1804 7.125 2.67188H5.60369Z" fill="url(#paint0_linear_416_2)"/>
<defs>
<linearGradient id="paint0_linear_416_2" x1="0.551724" y1="5" x2="8" y2="5" gradientUnits="userSpaceOnUse">
<stop stop-color="#872166"/>
<stop offset="1" stop-color="#4F2455"/>
</linearGradient>
</defs>
</svg>
