<svg width="667" height="614" viewBox="0 0 667 614" fill="none" xmlns="http://www.w3.org/2000/svg">
<g clip-path="url(#clip0_402_2)">
<path d="M651.32 543.815H600.788V544.197H651.32V543.815Z" fill="#EBEBEB" fill-opacity="0.12"/>
<path d="M470.247 547.965H456.988V548.347H470.247V547.965Z" fill="#EBEBEB" fill-opacity="0.12"/>
<path d="M599.262 529.656H569.984V530.038H599.262V529.656Z" fill="#EBEBEB" fill-opacity="0.12"/>
<path d="M110.831 532.219H44.9346V532.601H110.831V532.219Z" fill="#EBEBEB" fill-opacity="0.12"/>
<path d="M134.083 532.219H124.425V532.601H134.083V532.219Z" fill="#EBEBEB" fill-opacity="0.12"/>
<path d="M308.413 538.658H165.482V539.04H308.413V538.658Z" fill="#EBEBEB" fill-opacity="0.12"/>
<path d="M328.629 451.216H34.0103C31.6997 451.216 29.4838 450.298 27.85 448.664C26.2162 447.03 25.2983 444.814 25.2983 442.504V28.3626C25.3185 26.0652 26.2452 23.8688 27.8768 22.2514C29.5084 20.634 31.7129 19.7266 34.0103 19.7267H328.629C329.773 19.7267 330.905 19.952 331.962 20.3899C333.019 20.8277 333.98 21.4694 334.789 22.2784C335.598 23.0874 336.239 24.0478 336.677 25.1049C337.115 26.1619 337.34 27.2948 337.34 28.4389V442.504C337.34 443.648 337.115 444.781 336.677 445.838C336.239 446.895 335.598 447.855 334.789 448.664C333.98 449.473 333.019 450.115 331.962 450.553C330.905 450.991 329.773 451.216 328.629 451.216ZM34.0103 20.0318C31.8021 20.0359 29.6856 20.9149 28.1242 22.4763C26.5628 24.0378 25.6838 26.1544 25.6798 28.3626V442.504C25.6838 444.712 26.5628 446.829 28.1242 448.39C29.6856 449.951 31.8021 450.83 34.0103 450.835H328.629C330.837 450.83 332.953 449.951 334.515 448.39C336.076 446.829 336.955 444.712 336.959 442.504V28.3626C336.955 26.1544 336.076 24.0378 334.515 22.4763C332.953 20.9149 330.837 20.0359 328.629 20.0318H34.0103Z" fill="#EBEBEB" fill-opacity="0.12"/>
<path d="M658.644 451.216H364.025C361.715 451.216 359.499 450.298 357.865 448.664C356.231 447.03 355.313 444.814 355.313 442.504V28.3626C355.334 26.0652 356.26 23.8688 357.892 22.2514C359.524 20.634 361.728 19.7266 364.025 19.7267H658.644C660.954 19.7267 663.17 20.6446 664.804 22.2784C666.438 23.9123 667.356 26.1282 667.356 28.4389V442.504C667.356 444.814 666.438 447.03 664.804 448.664C663.17 450.298 660.954 451.216 658.644 451.216ZM364.025 20.0318C361.817 20.0359 359.701 20.9149 358.139 22.4763C356.578 24.0378 355.699 26.1544 355.695 28.3626V442.504C355.699 444.712 356.578 446.829 358.139 448.39C359.701 449.951 361.817 450.83 364.025 450.835H658.644C660.852 450.83 662.968 449.951 664.53 448.39C666.091 446.829 666.97 444.712 666.974 442.504V28.3626C666.97 26.1544 666.091 24.0378 664.53 22.4763C662.968 20.9149 660.852 20.0359 658.644 20.0318H364.025Z" fill="#EBEBEB" fill-opacity="0.84"/>
<path d="M727.759 519.266H-35.1052V519.647H727.759V519.266Z" fill="#EBEBEB" fill-opacity="0.12"/>
<path d="M276.006 44.7036H167.298V413.499H276.006V44.7036Z" fill="#FAFAFA" fill-opacity="0.16"/>
<path opacity="0.1" d="M275.793 44.7036H167.084V413.499H275.793V44.7036Z" fill="white" fill-opacity="0.46"/>
<g opacity="0.3">
<path d="M265.173 44.7036H230.509L192.594 413.499H227.244L265.173 44.7036Z" fill="white" fill-opacity="0.46"/>
</g>
<path d="M276.937 40.0348H166.398V49.3878H276.937V40.0348Z" fill="#E0E0E0"/>
<path d="M276.937 410.279H166.398V419.632H276.937V410.279Z" fill="#EBEBEB" fill-opacity="0.12"/>
<path d="M281.224 427.612H161.393V30.9106H281.224V427.612ZM170.532 418.458H272.085V40.0653H170.532V418.458Z" fill="#EBEBEB" fill-opacity="0.12"/>
<path d="M157.594 44.7036H48.8862V413.499H157.594V44.7036Z" fill="#FAFAFA" fill-opacity="0.16"/>
<path d="M141.208 200.882H57.064V271.495H141.208V200.882Z" fill="#E6E6E6" fill-opacity="0.46"/>
<path d="M73.2216 209.686H62.45V220.458H73.2216V209.686Z" fill="#FAFAFA" fill-opacity="0.16"/>
<path d="M94.0934 209.686H83.3218V220.458H94.0934V209.686Z" fill="#FAFAFA" fill-opacity="0.16"/>
<path d="M114.965 209.686H104.194V220.458H114.965V209.686Z" fill="#FAFAFA" fill-opacity="0.16"/>
<path d="M135.822 209.686H125.051V220.458H135.822V209.686Z" fill="#FAFAFA" fill-opacity="0.16"/>
<path d="M73.2216 229.261H62.45V240.033H73.2216V229.261Z" fill="#FAFAFA" fill-opacity="0.16"/>
<path d="M94.0934 229.261H83.3218V240.033H94.0934V229.261Z" fill="#FAFAFA" fill-opacity="0.16"/>
<path d="M114.965 229.261H104.194V240.033H114.965V229.261Z" fill="#FAFAFA" fill-opacity="0.16"/>
<path d="M135.822 229.261H125.051V240.033H135.822V229.261Z" fill="#E6E6E6" fill-opacity="0.46"/>
<path d="M73.2216 248.822H62.45V259.594H73.2216V248.822Z" fill="#E6E6E6" fill-opacity="0.46"/>
<path d="M94.0934 248.822H83.3218V259.594H94.0934V248.822Z" fill="#E6E6E6" fill-opacity="0.46"/>
<path d="M114.965 248.822H104.194V259.594H114.965V248.822Z" fill="#FAFAFA" fill-opacity="0.16"/>
<path d="M135.822 248.822H125.051V259.594H135.822V248.822Z" fill="#E6E6E6" fill-opacity="0.46"/>
<path d="M141.208 270.61H57.064V341.223H141.208V270.61Z" fill="#E6E6E6" fill-opacity="0.46"/>
<path d="M73.2216 279.398H62.45V290.17H73.2216V279.398Z" fill="#FAFAFA" fill-opacity="0.16"/>
<path d="M94.0934 279.398H83.3218V290.17H94.0934V279.398Z" fill="#FAFAFA" fill-opacity="0.16"/>
<path d="M114.965 279.398H104.194V290.17H114.965V279.398Z" fill="#FAFAFA" fill-opacity="0.16"/>
<path d="M135.822 279.398H125.051V290.17H135.822V279.398Z" fill="#FAFAFA" fill-opacity="0.16"/>
<path d="M73.2216 298.974H62.45V309.746H73.2216V298.974Z" fill="#FAFAFA" fill-opacity="0.16"/>
<path d="M94.0934 298.974H83.3218V309.746H94.0934V298.974Z" fill="#FAFAFA" fill-opacity="0.16"/>
<path d="M114.965 298.974H104.194V309.746H114.965V298.974Z" fill="#FAFAFA" fill-opacity="0.16"/>
<path d="M135.822 298.974H125.051V309.746H135.822V298.974Z" fill="#E6E6E6" fill-opacity="0.46"/>
<path d="M73.2216 318.55H62.45V329.322H73.2216V318.55Z" fill="#E6E6E6" fill-opacity="0.46"/>
<path d="M94.0934 318.55H83.3218V329.322H94.0934V318.55Z" fill="#E6E6E6" fill-opacity="0.46"/>
<path d="M114.965 318.55H104.194V329.322H114.965V318.55Z" fill="#FAFAFA" fill-opacity="0.16"/>
<path d="M135.822 318.55H125.051V329.322H135.822V318.55Z" fill="#E6E6E6" fill-opacity="0.46"/>
<path d="M141.208 340.323H57.064V410.936H141.208V340.323Z" fill="#E6E6E6" fill-opacity="0.46"/>
<path d="M73.2216 349.126H62.45V359.898H73.2216V349.126Z" fill="#FAFAFA" fill-opacity="0.16"/>
<path d="M94.0934 349.126H83.3218V359.898H94.0934V349.126Z" fill="#FAFAFA" fill-opacity="0.16"/>
<path d="M114.965 349.126H104.194V359.898H114.965V349.126Z" fill="#FAFAFA" fill-opacity="0.16"/>
<path d="M135.822 349.126H125.051V359.898H135.822V349.126Z" fill="#FAFAFA" fill-opacity="0.16"/>
<path d="M73.2216 368.702H62.45V379.474H73.2216V368.702Z" fill="#FAFAFA" fill-opacity="0.16"/>
<path d="M94.0934 368.702H83.3218V379.474H94.0934V368.702Z" fill="#FAFAFA" fill-opacity="0.16"/>
<path d="M114.965 368.702H104.194V379.474H114.965V368.702Z" fill="#FAFAFA" fill-opacity="0.16"/>
<path d="M135.822 368.702H125.051V379.474H135.822V368.702Z" fill="#E6E6E6" fill-opacity="0.46"/>
<path d="M73.2216 388.278H62.45V399.05H73.2216V388.278Z" fill="#E6E6E6" fill-opacity="0.46"/>
<path d="M94.0934 388.278H83.3218V399.05H94.0934V388.278Z" fill="#E6E6E6" fill-opacity="0.46"/>
<path d="M114.965 388.278H104.194V399.05H114.965V388.278Z" fill="#FAFAFA" fill-opacity="0.16"/>
<path d="M135.822 388.278H125.051V399.05H135.822V388.278Z" fill="#E6E6E6" fill-opacity="0.46"/>
<g opacity="0.3">
<path d="M146.762 44.7036H112.097L74.1826 413.499H108.832L146.762 44.7036Z" fill="white" fill-opacity="0.46"/>
</g>
<path d="M158.525 40.0348H47.9861V49.3878H158.525V40.0348Z" fill="#E0E0E0"/>
<path d="M158.525 410.279H47.9861V419.632H158.525V410.279Z" fill="#EBEBEB" fill-opacity="0.12"/>
<path d="M162.812 427.612H42.9817V30.9106H162.812V427.612ZM52.1208 418.458H153.673V40.0653H52.1208V418.458Z" fill="#EBEBEB" fill-opacity="0.27"/>
<path d="M325.531 476.864L324.311 477.017C324.311 476.391 316.819 414.323 332.122 363.606C347.38 313.255 336.852 281.062 336.7 280.756L337.874 280.36C337.981 280.68 348.555 313.179 333.297 363.957C318.07 414.43 325.455 476.254 325.531 476.864Z" fill="#E0E0E0"/>
<path d="M338.927 287.668C336.262 284.494 332.646 282.263 328.613 281.306L328.903 280.1C333.193 281.119 337.041 283.495 339.873 286.875L338.927 287.668Z" fill="#E0E0E0"/>
<path d="M344.168 292.8L340.648 294.789L341.256 295.865L344.776 293.875L344.168 292.8Z" fill="#E0E0E0"/>
<path d="M337.6 321.418C334.53 314.422 328.846 308.902 321.763 306.038L322.22 304.909C329.588 307.894 335.5 313.637 338.698 320.915L337.6 321.418Z" fill="#E0E0E0"/>
<path d="M334.304 360.188H333.068C333.028 357.692 332.435 355.236 331.332 352.996C330.229 350.756 328.644 348.789 326.691 347.234L327.454 346.273C329.552 347.943 331.254 350.057 332.438 352.463C333.623 354.869 334.26 357.507 334.304 360.188Z" fill="#E0E0E0"/>
<path d="M331.558 370.106L330.398 369.663C331.032 368.09 331.982 366.663 333.189 365.471C334.396 364.28 335.835 363.349 337.417 362.736L337.844 363.896C336.425 364.443 335.135 365.276 334.053 366.345C332.971 367.414 332.122 368.694 331.558 370.106Z" fill="#E0E0E0"/>
<path d="M323.578 433.013L322.617 432.235C324.143 430.42 325.257 423.538 325.867 419.846C326.004 418.961 326.126 418.213 326.233 417.664L327.454 417.893C327.347 418.427 327.225 419.175 327.072 420.044C326.172 425.583 325.15 431.106 323.578 433.013Z" fill="#E0E0E0"/>
<path d="M322.861 452.772C322.002 450.355 320.404 448.269 318.292 446.812C316.18 445.355 313.663 444.6 311.098 444.655V443.419C313.934 443.351 316.719 444.183 319.054 445.794C321.389 447.406 323.154 449.715 324.097 452.391L322.861 452.772Z" fill="#E0E0E0"/>
<path d="M332.27 465.68L323.587 475.395L324.509 476.219L333.192 466.503L332.27 465.68Z" fill="#E0E0E0"/>
<path d="M338.408 402.315C340.377 408.677 326.66 420.807 326.66 420.807C326.66 420.807 308.489 418.534 306.521 412.156C304.553 405.778 309.16 395.373 317.964 392.657C326.767 389.941 336.44 395.952 338.408 402.315Z" fill="#F0F0F0" fill-opacity="0.66"/>
<path d="M353.635 325.05C351.896 331.809 338.897 336.615 338.897 336.615C338.897 336.615 329.834 326.133 331.573 319.374C333.312 312.615 340.499 305.153 346.586 306.725C352.674 308.297 355.374 318.29 353.635 325.05Z" fill="#EBEBEB" fill-opacity="0.12"/>
<path d="M301.501 426.086C309.648 429.275 314.653 443.694 314.653 443.694C314.653 443.694 301.211 450.941 293.048 447.768C284.886 444.594 276.265 435.562 278.584 429.657C280.904 423.752 293.338 422.913 301.501 426.086Z" fill="#F5F5F5"/>
<path d="M319.383 346.7C321.028 348.087 322.916 349.158 324.952 349.859C325.977 350.187 327.073 350.229 328.121 349.982C329.17 349.735 330.131 349.207 330.902 348.455C332.657 346.441 332.184 343.328 331.085 340.902C328.903 336.096 320.863 327.949 314.683 330.222C305.773 333.655 315.401 343.756 319.383 346.7Z" fill="#E6E6E6" fill-opacity="0.46"/>
<path d="M337.63 358.952C336.455 360.402 335.22 362.218 335.86 363.972C336.223 364.716 336.824 365.319 337.567 365.683C338.31 366.048 339.154 366.155 339.965 365.986C341.577 365.61 343.085 364.874 344.374 363.835C347.517 361.638 353.971 357.06 349.851 352.773C345.732 348.486 340.087 355.886 337.63 358.952Z" fill="#EBEBEB" fill-opacity="0.12"/>
<path d="M311.235 297.921C310.558 297.957 309.909 298.207 309.383 298.634C308.856 299.062 308.479 299.646 308.306 300.302C308.031 301.827 309.328 303.231 310.579 304.192C313.631 306.603 323.09 313.103 325.196 306.832C327.24 300.912 315.446 297.418 311.235 297.921Z" fill="#E0E0E0"/>
<path d="M328.613 277.293C326.676 277.476 324.738 276.774 322.8 276.896C320.863 277.018 318.696 278.575 319.138 280.482C319.581 282.389 321.717 282.816 323.502 282.938C326.568 283.121 329.645 282.906 332.656 282.297C333.371 282.23 334.035 281.898 334.518 281.367C335.296 280.207 334.045 278.651 332.702 278.315C331.32 278.138 329.959 277.815 328.644 277.354L328.613 277.293Z" fill="#E6E6E6" fill-opacity="0.46"/>
<path d="M347.548 290.628C349.501 290.628 351.377 289.85 353.33 289.85C355.283 289.85 357.526 291.254 357.221 293.176C356.916 295.099 354.795 295.694 353.01 295.923C349.972 296.325 346.893 296.325 343.855 295.923C343.135 295.907 342.448 295.618 341.933 295.114C341.078 294 342.223 292.383 343.459 291.879C344.832 291.613 346.172 291.199 347.456 290.643L347.548 290.628Z" fill="#F0F0F0" fill-opacity="0.66"/>
<path d="M345.64 433.99C346.075 433.529 346.659 433.237 347.288 433.166C347.704 433.214 348.092 433.398 348.39 433.691C348.689 433.984 348.881 434.369 348.936 434.783C349.025 435.615 348.921 436.456 348.631 437.24C347.303 441.649 332.504 473.614 329.086 467.878C327.072 464.475 332.031 453.245 333.496 450.056C336.313 443.873 340.46 438.387 345.64 433.99Z" fill="#F0F0F0" fill-opacity="0.66"/>
<path d="M336.776 278.498C337.728 275.761 339.374 273.316 341.551 271.403C343.901 269.71 347.654 269.588 349.333 271.922C351.24 274.531 349.333 278.498 346.418 279.887C343.504 281.275 340.102 280.848 336.898 280.405C336.898 279.932 336.898 279.459 336.898 278.986L336.776 278.498Z" fill="#E6E6E6" fill-opacity="0.46"/>
<path d="M347.12 519.494C331.265 522.195 315.068 522.195 299.212 519.494L280.583 464.567H365.765L347.12 519.494Z" fill="#F0F0F0" fill-opacity="0.66"/>
<path d="M637.085 226.027C636.757 225.98 636.435 225.898 636.124 225.783C629.853 223.708 620.332 213.912 612.216 200.607C604.099 187.303 599.811 174.288 600.864 167.742C600.985 166.625 601.424 165.565 602.131 164.691C602.159 164.64 602.195 164.594 602.237 164.553C602.456 164.29 602.719 164.068 603.015 163.897C603.33 163.71 603.669 163.566 604.022 163.47C605.12 163.244 606.258 163.34 607.303 163.745C608.659 164.193 609.947 164.825 611.132 165.621C612.017 166.201 612.948 166.888 613.909 167.666C614.443 168.108 615.008 168.581 615.572 169.085C627.746 181.014 636.741 195.801 641.738 212.096C641.922 212.829 642.089 213.622 642.242 214.278C642.512 215.495 642.701 216.729 642.806 217.971C642.955 219.364 642.904 220.772 642.654 222.151C642.499 223.31 641.962 224.384 641.128 225.203C640.957 225.406 640.75 225.577 640.518 225.706C640.31 225.837 640.084 225.934 639.847 225.996C638.948 226.268 637.99 226.278 637.085 226.027Z" fill="#EBEBEB" fill-opacity="0.12"/>
<path d="M637.085 226.027L636.566 225.188L619.036 196.335C618.578 195.557 618.105 194.809 617.678 194.077L601.307 167.147C601.415 166.291 601.695 165.466 602.131 164.721C602.282 164.455 602.467 164.209 602.68 163.989L604.465 162.905L609.82 159.656L612.261 163.623L612.689 164.34L614.352 167.101L615.572 169.115L641.738 212.127L642.684 213.653L644.515 216.704L644.942 217.406L647.384 221.388L641.174 225.157L639.892 225.95C638.983 226.246 638.009 226.272 637.085 226.027Z" fill="#EBEBEB" fill-opacity="0.12"/>
<path d="M609.836 159.625C604.557 162.844 608.661 179.277 618.99 196.335C629.319 213.393 642.044 224.623 647.323 221.419C652.602 218.215 648.498 201.767 638.168 184.709C627.839 167.651 615.115 156.421 609.836 159.625Z" fill="#EBEBEB" fill-opacity="0.12"/>
<path d="M609.836 159.625C604.557 162.844 608.661 179.277 618.99 196.335C629.319 213.393 642.044 224.623 647.323 221.419C652.602 218.215 648.498 201.767 638.168 184.709C627.839 167.651 615.115 156.421 609.836 159.625Z" fill="#FAFAFA" fill-opacity="0.16"/>
<path d="M612.597 163.333C612.261 163.528 611.998 163.828 611.85 164.187C616.244 164.187 625.459 173.952 633.652 187.44C641.845 200.928 646.285 213.653 644.241 217.528C644.626 217.546 645.008 217.451 645.339 217.254C648.925 215.087 644.561 201.218 635.514 186.326C626.466 171.435 616.167 161.151 612.597 163.333Z" fill="#EBEBEB" fill-opacity="0.12"/>
<path opacity="0.4" d="M612.597 163.333C612.261 163.528 611.998 163.828 611.85 164.187C616.244 164.187 625.459 173.952 633.652 187.44C641.845 200.928 646.285 213.653 644.241 217.528C644.626 217.546 645.008 217.451 645.339 217.254C648.925 215.087 644.561 201.218 635.514 186.326C626.466 171.435 616.167 161.151 612.597 163.333Z" fill="#EBEBEB" fill-opacity="0.12"/>
<path d="M546.197 77.9198C546.122 78.1352 546.031 78.3444 545.923 78.5454C543.771 82.5276 536.006 87.8068 526.088 91.6975C516.171 95.5883 506.803 96.9462 502.5 95.4509C501.768 95.2299 501.112 94.8069 500.609 94.2303C500.574 94.2083 500.548 94.1764 500.532 94.1388C500.381 93.9572 500.262 93.7507 500.181 93.5285C500.097 93.2919 500.04 93.046 500.014 92.7961C499.997 92.0287 500.198 91.2724 500.593 90.6142C501.053 89.7482 501.634 88.9519 502.317 88.2493C502.859 87.6715 503.435 87.1263 504.041 86.6167C504.392 86.3115 504.789 85.9911 505.201 85.6707C509.901 82.2001 515.062 79.4013 520.535 77.3552C525.926 75.1568 531.603 73.7338 537.394 73.1288L538.92 73.0373C539.773 72.982 540.629 72.982 541.483 73.0373C542.444 73.1021 543.389 73.3077 544.29 73.6476C545.048 73.8822 545.707 74.3594 546.167 75.0056C546.281 75.1466 546.369 75.3067 546.426 75.4785C546.485 75.6353 546.521 75.7997 546.533 75.9668C546.628 76.6369 546.511 77.3199 546.197 77.9198Z" fill="#EBEBEB" fill-opacity="0.12"/>
<path d="M546.197 77.9198L545.572 78.1792L523.968 86.5862L522.274 87.227L502.104 95.0847C501.545 94.9074 501.027 94.6223 500.578 94.2456C500.42 94.108 500.277 93.9547 500.151 93.7878L499.632 92.4452L498.106 88.4324L501.082 87.2575L501.616 87.0592L503.691 86.2658L505.216 85.686L537.394 73.1288L538.584 72.6711L540.857 71.7862L541.376 71.5878L544.428 70.413L546.197 75.0513L546.564 76.0126C546.64 76.6708 546.512 77.3366 546.197 77.9198Z" fill="#EBEBEB" fill-opacity="0.12"/>
<path d="M498.091 88.3866C499.617 92.3383 511.243 91.4381 524.028 86.5556C536.814 81.6732 545.907 74.3494 544.366 70.3824C542.825 66.4154 531.23 67.2393 518.429 72.2133C505.628 77.1874 496.55 84.4501 498.091 88.3866Z" fill="#EBEBEB" fill-opacity="0.12"/>
<path d="M498.091 88.3866C499.617 92.3383 511.243 91.4381 524.028 86.5556C536.814 81.6732 545.907 74.3494 544.366 70.3824C542.825 66.4154 531.23 67.2393 518.429 72.2133C505.628 77.1874 496.55 84.4501 498.091 88.3866Z" fill="#FAFAFA" fill-opacity="0.16"/>
<path d="M500.929 86.9982C501.025 87.2429 501.196 87.4511 501.417 87.5932C501.951 84.6332 509.641 79.5524 519.726 75.6311C529.811 71.7099 538.965 70.2146 541.33 72.0608C541.414 71.8082 541.414 71.5353 541.33 71.2827C540.293 68.5973 530.391 69.8942 519.238 74.2427C508.085 78.5911 499.891 84.3128 500.929 86.9982Z" fill="#EBEBEB" fill-opacity="0.12"/>
<path opacity="0.4" d="M500.929 86.9982C501.025 87.2429 501.196 87.4511 501.417 87.5932C501.951 84.6332 509.641 79.5524 519.726 75.6311C529.811 71.7099 538.965 70.2146 541.33 72.0608C541.414 71.8082 541.414 71.5353 541.33 71.2827C540.293 68.5973 530.391 69.8942 519.238 74.2427C508.085 78.5911 499.891 84.3128 500.929 86.9982Z" fill="#EBEBEB" fill-opacity="0.12"/>
<path d="M501.417 87.5932C503.813 89.4394 512.921 87.9747 523.037 84.0382C533.153 80.1017 540.858 75.0208 541.346 72.0608C538.981 70.2146 529.888 71.6794 519.741 75.6311C509.595 79.5829 501.951 84.6332 501.417 87.5932Z" fill="#FAFAFA" fill-opacity="0.16"/>
<path d="M548.013 288.507C544.439 282.468 542.735 275.504 543.117 268.497C543.5 261.489 545.951 254.752 550.162 249.138C554.372 243.523 560.153 239.283 566.773 236.954C573.393 234.624 580.554 234.31 587.353 236.05C594.152 237.79 600.282 241.507 604.968 246.731C609.655 251.954 612.687 258.45 613.683 265.397C614.678 272.344 613.592 279.43 610.56 285.76C607.529 292.089 602.69 297.378 596.653 300.958C588.552 305.757 578.877 307.141 569.755 304.806C560.633 302.471 552.812 296.608 548.013 288.507Z" fill="#EBEBEB" fill-opacity="0.12"/>
<path d="M544.351 290.689C540.773 284.651 539.065 277.687 539.444 270.678C539.823 263.669 542.272 256.93 546.481 251.313C550.69 245.696 556.47 241.453 563.09 239.121C569.71 236.789 576.873 236.473 583.673 238.212C590.473 239.951 596.605 243.667 601.293 248.891C605.981 254.115 609.015 260.612 610.01 267.56C611.006 274.508 609.919 281.595 606.887 287.926C603.855 294.256 599.014 299.545 592.976 303.124C584.878 307.92 575.208 309.304 566.09 306.972C556.972 304.64 549.153 298.783 544.351 290.689Z" fill="#EBEBEB" fill-opacity="0.12"/>
<path d="M544.351 290.689C540.773 284.651 539.065 277.687 539.444 270.678C539.823 263.669 542.272 256.93 546.481 251.313C550.69 245.696 556.47 241.453 563.09 239.121C569.71 236.789 576.873 236.473 583.673 238.212C590.473 239.951 596.605 243.667 601.293 248.891C605.981 254.115 609.015 260.612 610.01 267.56C611.006 274.508 609.919 281.595 606.887 287.926C603.855 294.256 599.014 299.545 592.976 303.124C584.878 307.92 575.208 309.304 566.09 306.972C556.972 304.64 549.153 298.783 544.351 290.689Z" fill="#FAFAFA" fill-opacity="0.16"/>
<path d="M588.414 295.45C587.568 295.96 586.686 296.409 585.775 296.792C579.492 299.556 572.378 299.76 565.947 297.361C559.516 294.963 554.273 290.15 551.334 283.947C548.395 277.744 547.991 270.639 550.208 264.142C552.426 257.646 557.089 252.27 563.207 249.158C569.325 246.046 576.415 245.443 582.971 247.476C589.527 249.51 595.031 254.021 598.314 260.049C601.597 266.077 602.399 273.148 600.55 279.759C598.702 286.37 594.348 291.999 588.414 295.45Z" fill="#EBEBEB" fill-opacity="0.12"/>
<path d="M561.973 273.677C558.098 269.099 559.563 263.713 565.498 259.472L563.133 255.23L566.932 252.987L569.297 257.229C572.712 255.538 576.472 254.661 580.282 254.666L581.35 260.403C578.167 260.276 574.999 260.904 572.104 262.233L575.735 268.749C580.084 267.619 585.042 266.582 588.567 270.702C592.442 275.279 590.932 280.741 584.829 284.983L587.194 289.224L583.395 291.467L580.999 287.195C578.293 288.503 575.351 289.251 572.348 289.392L571.036 283.808C573.513 283.819 575.964 283.299 578.222 282.282L574.423 275.508C570.136 276.591 565.33 277.583 561.973 273.677ZM578.848 274.257L581.899 279.81C583.73 278.147 584.051 276.377 582.983 275.065C582.128 273.997 580.648 273.951 578.848 274.257ZM567.374 269.145C568.214 270.137 569.617 270.228 571.326 269.878L568.275 264.614C566.627 266.2 566.261 267.848 567.374 269.145Z" fill="#FAFAFA" fill-opacity="0.16"/>
<path d="M619.432 95.0848C625.535 107.444 618.166 123.479 603.061 130.91C587.957 138.34 570.777 134.343 564.689 121.969C558.602 109.595 565.956 93.5742 581.06 86.1437C596.165 78.7132 613.329 82.726 619.432 95.0848Z" fill="#EBEBEB" fill-opacity="0.12"/>
<path d="M617.006 90.1564C623.109 102.53 615.755 118.566 600.635 125.997C585.515 133.427 568.351 129.415 562.279 117.056C556.206 104.697 563.53 88.6459 578.65 81.2306C593.77 73.8154 610.934 77.7976 617.006 90.1564Z" fill="#EBEBEB" fill-opacity="0.12"/>
<path d="M617.006 90.1564C623.109 102.53 615.755 118.566 600.635 125.997C585.515 133.427 568.351 129.415 562.279 117.056C556.206 104.697 563.53 88.6459 578.65 81.2306C593.77 73.8154 610.934 77.7976 617.006 90.1564Z" fill="#FAFAFA" fill-opacity="0.16"/>
<path d="M609.958 93.1317C610.248 93.7268 610.492 94.3371 610.721 94.9016C610.721 94.9016 610.721 94.9932 610.721 95.0389C613.696 104.041 608.173 114.874 597.645 119.985C587.118 125.097 575.202 123.037 569.877 115.103C569.877 115.103 569.877 114.996 569.801 114.966C569.495 114.447 569.16 113.882 568.87 113.287C564.293 104.041 569.831 91.9264 581.167 86.4183C592.503 80.9103 605.411 83.8855 609.958 93.1317Z" fill="#EBEBEB" fill-opacity="0.12"/>
<path d="M597.615 111.99C595.83 116.568 591.283 118.093 585.851 115.881L583.685 119.36L580.557 117.834L582.708 114.34C580.146 112.793 578.019 110.619 576.529 108.023L580.282 104.773C581.452 106.99 583.169 108.871 585.271 110.236L588.598 104.88C586.065 102.439 583.349 99.54 584.966 95.3289C586.751 90.7515 591.374 89.2257 596.882 91.5449L599.049 88.0662L602.177 89.5919L600.01 93.1165C602.026 94.3511 603.737 96.0254 605.014 98.0142L601.444 101.356C600.459 99.6766 599.095 98.2504 597.462 97.1903L593.999 102.775C596.547 105.17 599.156 107.993 597.615 111.99ZM591.405 100.303L594.243 95.7255C592.305 95.2068 590.886 95.7255 590.337 97.0835C589.788 98.4414 590.444 99.2043 591.405 100.303ZM592.183 110.342C592.333 109.79 592.316 109.205 592.134 108.662C591.952 108.119 591.614 107.642 591.161 107.291L588.491 111.624C590.322 112.143 591.68 111.655 592.183 110.342Z" fill="#FAFAFA" fill-opacity="0.16"/>
<path d="M461.565 92.0942C455.676 107.352 433.644 111.151 413.245 98.3804C392.846 85.6097 386.56 63.9742 397.53 52.0273C407.005 41.6673 426.428 42.1556 442.021 51.9205C457.614 61.6855 466.646 78.9878 461.565 92.0942Z" fill="#EBEBEB" fill-opacity="0.12"/>
<path d="M463.671 86.6624C458.132 100.959 436.97 104.27 417.243 91.9264C397.515 79.5828 391.138 59.0306 401.467 47.6789C410.423 37.8681 429.174 38.5242 444.385 48.0756C459.597 57.6269 468.477 74.2579 463.671 86.6624Z" fill="#EBEBEB" fill-opacity="0.12"/>
<path d="M463.671 86.6624C458.132 100.959 436.97 104.27 417.243 91.9264C397.515 79.5828 391.138 59.0306 401.467 47.6789C410.423 37.8681 429.174 38.5242 444.385 48.0756C459.597 57.6269 468.477 74.2579 463.671 86.6624Z" fill="#FAFAFA" fill-opacity="0.16"/>
<path d="M456.073 81.368C455.798 81.9684 455.493 82.5541 455.157 83.1227C455.157 83.1227 455.157 83.2142 455.157 83.26C449.573 91.8043 435.079 92.8724 421.866 84.6179C408.653 76.3635 403.161 62.7688 408.333 53.9498C408.333 53.9498 408.455 53.9498 408.424 53.8278C408.788 53.2982 409.18 52.7889 409.599 52.302C415.977 44.6731 430.242 44.8867 441.96 52.302C453.677 59.7173 460.101 72.2134 456.073 81.368Z" fill="#EBEBEB" fill-opacity="0.12"/>
<path d="M442.448 70.1535C445.133 74.3341 443.592 78.8352 438.649 81.9478L440.174 85.7469L437.047 87.2727L435.521 83.4735C432.757 84.6343 429.744 85.0753 426.763 84.7552L426.351 79.7812C428.83 80.1551 431.363 79.8817 433.705 78.9877L431.356 73.144C427.877 73.7543 423.941 74.2273 421.484 70.4282C418.799 66.2628 420.386 61.7007 425.466 58.5881L423.941 54.789L427.068 53.2632L428.594 57.0929C430.785 56.2044 433.145 55.8085 435.506 55.9333L436.101 60.8005C434.165 60.6009 432.21 60.8623 430.395 61.5634L432.851 67.6665C436.345 67.0257 440.113 66.5527 442.448 70.1535ZM429.327 68.2768L427.328 63.3028C425.802 64.5539 425.39 66.0492 426.138 67.2545C426.763 68.231 427.908 68.3836 429.327 68.2768ZM437.871 73.5713C437.291 72.6558 436.208 72.4574 434.819 72.61L436.742 77.3399C438.267 76.1803 438.664 74.7614 437.871 73.5713Z" fill="#FAFAFA" fill-opacity="0.16"/>
<path d="M346.327 587.331C509.706 587.331 642.151 579.598 642.151 570.059C642.151 560.52 509.706 552.787 346.327 552.787C182.948 552.787 50.5034 560.52 50.5034 570.059C50.5034 579.598 182.948 587.331 346.327 587.331Z" fill="#F5F5F5" fill-opacity="0.14"/>
<path d="M313.28 570.242C312.632 570.244 311.99 570.118 311.391 569.871C310.793 569.624 310.249 569.261 309.791 568.803C309.332 568.345 308.97 567.801 308.723 567.202C308.476 566.603 308.35 565.961 308.352 565.313V560.385H318.208V565.313C318.208 566.621 317.689 567.874 316.764 568.798C315.84 569.723 314.587 570.242 313.28 570.242Z" fill="#263238"/>
<path d="M487.121 570.242C486.474 570.242 485.833 570.114 485.235 569.867C484.637 569.619 484.094 569.256 483.637 568.798C483.179 568.341 482.816 567.797 482.568 567.199C482.321 566.602 482.193 565.961 482.193 565.313V560.385H492.049V565.313C492.051 565.961 491.925 566.603 491.678 567.202C491.431 567.801 491.068 568.345 490.61 568.803C490.152 569.261 489.608 569.624 489.01 569.871C488.411 570.118 487.769 570.244 487.121 570.242Z" fill="#263238"/>
<path d="M576.895 570.242C576.248 570.242 575.607 570.114 575.009 569.867C574.411 569.619 573.868 569.256 573.41 568.798C572.953 568.341 572.59 567.797 572.342 567.199C572.094 566.602 571.967 565.961 571.967 565.313V560.385H581.823V565.313C581.825 565.961 581.699 566.603 581.452 567.202C581.205 567.801 580.842 568.345 580.384 568.803C579.926 569.261 579.382 569.624 578.783 569.871C578.185 570.118 577.543 570.244 576.895 570.242Z" fill="#263238"/>
<path d="M584.142 503.199H299.716V564.642H584.142V503.199Z" fill="#00B35F"/>
<path opacity="0.3" d="M584.142 503.199H299.716V564.642H584.142V503.199Z" fill="white" fill-opacity="0.46"/>
<path opacity="0.2" d="M583.868 503.199H495.741V564.657H583.868V503.199Z" fill="black"/>
<path d="M601.658 350.271L587.712 475.705C586.782 484.508 578.055 491.313 567.481 491.619C567.227 491.634 566.972 491.634 566.718 491.619H390.909C378.55 491.619 368.831 482.83 369.915 472.638L383.844 347.204C384.79 338.187 393.914 331.26 404.854 331.26H581.472C593.495 331.687 602.649 340.292 601.658 350.271Z" fill="#00B35F"/>
<path opacity="0.5" d="M601.658 350.271L587.712 475.705C586.782 484.508 578.055 491.313 567.481 491.619C567.227 491.634 566.972 491.634 566.718 491.619H390.909C378.55 491.619 368.831 482.83 369.915 472.638L383.844 347.204C384.79 338.187 393.914 331.26 404.854 331.26H581.472C593.495 331.687 602.649 340.292 601.658 350.271Z" fill="white" fill-opacity="0.46"/>
<path d="M611.316 350.271L597.37 475.705C596.44 484.508 587.728 491.313 577.139 491.619C565.178 491.252 555.916 482.632 556.969 472.668L570.899 347.234C571.83 338.431 580.542 331.626 591.13 331.305C603.107 331.687 612.368 340.292 611.316 350.271Z" fill="#00B35F"/>
<path opacity="0.3" d="M611.316 350.271L597.37 475.705C596.44 484.508 587.728 491.313 577.139 491.619C565.178 491.252 555.916 482.632 556.969 472.668L570.899 347.234C571.83 338.431 580.542 331.626 591.13 331.305C603.107 331.687 612.368 340.292 611.316 350.271Z" fill="white" fill-opacity="0.46"/>
<path d="M576.086 457.548H453.693C441.398 457.548 431.432 467.515 431.432 479.809V494.09C431.432 506.385 441.398 516.351 453.693 516.351H576.086C588.381 516.351 598.347 506.385 598.347 494.09V479.809C598.347 467.515 588.381 457.548 576.086 457.548Z" fill="#00B35F"/>
<path opacity="0.3" d="M576.086 457.548H453.693C441.398 457.548 431.432 467.515 431.432 479.809V494.09C431.432 506.385 441.398 516.351 453.693 516.351H576.086C588.381 516.351 598.347 506.385 598.347 494.09V479.809C598.347 467.515 588.381 457.548 576.086 457.548Z" fill="white" fill-opacity="0.46"/>
<path d="M497.283 457.548H306.765C294.724 457.548 284.962 467.31 284.962 479.351V494.548C284.962 506.59 294.724 516.351 306.765 516.351H497.283C509.324 516.351 519.085 506.59 519.085 494.548V479.351C519.085 467.31 509.324 457.548 497.283 457.548Z" fill="#00B35F"/>
<path opacity="0.6" d="M497.283 457.548H306.765C294.724 457.548 284.962 467.31 284.962 479.351V494.548C284.962 506.59 294.724 516.351 306.765 516.351H497.283C509.324 516.351 519.085 506.59 519.085 494.548V479.351C519.085 467.31 509.324 457.548 497.283 457.548Z" fill="white" fill-opacity="0.46"/>
<path d="M327.56 520.471L317.399 553.062L305.697 552.299L314.271 509.287L327.56 520.471Z" fill="#FF8B7B"/>
<path d="M450.61 395.22C450.61 395.22 429.25 394.488 413.596 389.727C413.596 389.727 407.066 403.23 401.879 408.204L399.804 410.188C399.804 410.188 338.515 395.281 330.139 414.552C322.983 430.984 304.354 538.994 304.354 538.994H325.211C325.211 538.994 339.873 493.388 353.62 459.654C354.352 457.868 356.885 448.378 356.885 448.378C381.984 459.208 409.223 464.165 436.528 462.873C442.631 462.583 451.785 449.843 451.907 430.038C452.058 418.418 451.625 406.797 450.61 395.22Z" fill="#263238"/>
<path opacity="0.2" d="M404.549 451.521C387.415 443.541 363.812 422.15 352.857 414.155C350.309 412.227 347.406 410.822 344.313 410.02C353.971 408.113 366.284 408.494 376.857 409.41L401.802 421.006L441.868 439.727L446.598 454.084C444.721 461.713 439.869 462.766 435.536 462.98C418.673 463.65 401.797 462.028 385.37 458.158C387.369 458.326 421.088 459.15 404.549 451.521Z" fill="black"/>
<path d="M283.436 465.863L261.42 487.331L253.166 480.557L270.269 455.809L283.436 465.863Z" fill="#FF8B7B"/>
<path d="M254.783 477.597L264.38 485.226C264.585 485.385 264.729 485.61 264.787 485.863C264.845 486.116 264.815 486.381 264.7 486.614L259.574 497.172C259.356 497.623 258.97 497.969 258.499 498.138C258.029 498.306 257.51 498.283 257.057 498.073L256.706 497.859C252.784 494.64 249.428 491.603 244.5 487.682C238.641 483.105 239.572 484.92 232.63 479.565C228.434 476.33 231.424 471.021 233.362 472.18C242.196 477.551 246.392 476.91 251.777 476.498C252.879 476.491 253.946 476.881 254.783 477.597Z" fill="#263238"/>
<path d="M250.862 477.139C250.901 477.163 250.946 477.176 250.992 477.176C251.038 477.176 251.083 477.163 251.121 477.139C251.151 477.099 251.167 477.051 251.167 477.002C251.167 476.952 251.151 476.904 251.121 476.864C250.938 476.391 249.062 472.18 247.658 471.921C247.523 471.899 247.385 471.909 247.255 471.952C247.124 471.994 247.006 472.067 246.91 472.165C246.757 472.326 246.641 472.519 246.569 472.73C246.498 472.941 246.474 473.164 246.499 473.386C246.727 474.911 249.275 476.437 250.771 477.185L250.862 477.139ZM247.704 472.363C248.482 472.638 249.657 474.713 250.435 476.346C248.421 475.216 247.17 474.072 247.048 473.294C247.018 473.149 247.028 472.999 247.076 472.86C247.125 472.72 247.21 472.596 247.322 472.501C247.357 472.459 247.402 472.427 247.453 472.408C247.504 472.389 247.559 472.384 247.612 472.394L247.704 472.363Z" fill="#00B35F"/>
<path d="M250.862 477.139C250.907 477.146 250.952 477.139 250.993 477.12C251.033 477.101 251.068 477.07 251.091 477.032C251.963 475.846 252.438 474.415 252.449 472.943C252.403 472.706 252.311 472.479 252.177 472.278C252.044 472.076 251.872 471.903 251.671 471.768C251.508 471.632 251.303 471.557 251.091 471.557C250.879 471.557 250.673 471.632 250.511 471.768C249.581 472.577 250.069 475.842 250.664 477.063C250.69 477.089 250.721 477.109 250.755 477.122C250.789 477.135 250.826 477.141 250.862 477.139ZM251.213 472.073L251.411 472.226C251.564 472.322 251.694 472.449 251.794 472.599C251.894 472.749 251.961 472.918 251.991 473.096C251.99 474.282 251.634 475.44 250.969 476.422C250.481 475.018 250.328 472.623 250.862 472.134C250.91 472.103 250.965 472.086 251.022 472.086C251.079 472.086 251.135 472.103 251.183 472.134L251.213 472.073Z" fill="#00B35F"/>
<path d="M425.268 392.184C442.152 395.089 459.378 395.434 476.365 393.206C476.365 393.206 493.972 460.951 443.668 460.874C425.07 460.874 417.487 452.986 405.525 445.616C378.306 428.97 356.031 404.665 345.381 405.946C330.032 407.884 338.378 426.209 275.197 475.857L262.412 464.368C262.412 464.368 310.228 359.258 341.75 359.258C369.015 359.258 411.933 401.247 417.701 401.384C423.468 401.522 425.268 392.184 425.268 392.184Z" fill="#263238"/>
<path opacity="0.2" d="M336.776 409.852C332.916 411.515 330.002 413.819 328.613 417.023C327.522 419.949 326.745 422.982 326.294 426.071C324.478 428.589 322.358 431.381 319.825 434.463C321.915 413.987 336.776 409.852 336.776 409.852Z" fill="black"/>
<path d="M302.081 552.772C302.105 552.726 302.114 552.674 302.107 552.623C302.101 552.572 302.078 552.525 302.042 552.488C302.007 552.45 301.96 552.425 301.91 552.416C301.859 552.407 301.807 552.414 301.76 552.436C301.257 552.604 296.802 554.343 296.466 555.793C296.437 555.931 296.442 556.075 296.482 556.211C296.522 556.346 296.595 556.47 296.695 556.571C296.844 556.749 297.035 556.887 297.251 556.972C297.466 557.058 297.7 557.088 297.931 557.059C299.456 556.907 301.196 554.328 302.081 552.817V552.772ZM296.985 555.823C297.32 555.045 299.533 553.916 301.242 553.199C299.975 555.228 298.739 556.464 297.87 556.556C297.716 556.578 297.56 556.56 297.416 556.503C297.271 556.447 297.144 556.355 297.046 556.235C297.009 556.194 296.981 556.146 296.965 556.093C296.949 556.04 296.946 555.984 296.954 555.93L296.985 555.823Z" fill="#00B35F"/>
<path d="M302.081 552.772C302.089 552.725 302.083 552.677 302.064 552.634C302.045 552.59 302.014 552.554 301.974 552.528C300.783 551.589 299.324 551.054 297.809 551.002C297.558 551.034 297.316 551.117 297.099 551.245C296.881 551.374 296.692 551.545 296.542 551.749C296.39 551.906 296.298 552.11 296.281 552.328C296.264 552.545 296.324 552.762 296.451 552.939C297.244 553.947 300.647 553.58 301.944 553.031C301.99 553.007 302.028 552.969 302.052 552.923C302.077 552.876 302.087 552.824 302.081 552.772ZM296.848 552.177L297.031 551.978C297.133 551.823 297.268 551.693 297.426 551.595C297.584 551.498 297.762 551.436 297.946 551.414C299.176 551.463 300.362 551.883 301.349 552.619C299.823 553.062 297.382 553.123 296.909 552.528C296.874 552.479 296.855 552.42 296.855 552.36C296.855 552.3 296.874 552.241 296.909 552.192L296.848 552.177Z" fill="#00B35F"/>
<path d="M305.605 550.483L318.238 548.957C318.505 548.922 318.775 548.98 319.003 549.122C319.231 549.264 319.403 549.481 319.489 549.735L323.502 561.24C323.674 561.728 323.648 562.264 323.428 562.732C323.208 563.2 322.812 563.563 322.327 563.742C322.193 563.787 322.055 563.818 321.915 563.834C316.667 564.368 311.983 564.627 305.468 565.359C297.839 566.26 299.838 566.885 290.806 568.152C285.374 568.853 283.635 562.781 285.908 562.201C296.329 559.638 298.938 556.098 302.569 551.81C303.389 551.019 304.467 550.548 305.605 550.483Z" fill="#263238"/>
<path d="M358.106 267.894C356.153 267.604 355.954 266.124 354.932 264.415C354.932 264.415 351.881 257.58 354.322 256.573C356.794 256.305 359.282 256.213 361.767 256.298C363.493 256.41 365.137 257.075 366.455 258.193C367.774 259.311 368.698 260.824 369.091 262.508C371.257 269.954 358.106 267.894 358.106 267.894Z" fill="#FF8B7B"/>
<path d="M356.382 266.902L347.609 260.174C347.288 259.929 347.02 259.622 346.819 259.273C346.617 258.923 346.488 258.537 346.436 258.137C346.385 257.737 346.414 257.331 346.521 256.942C346.628 256.553 346.811 256.189 347.059 255.871L349.272 253.048C349.695 252.503 350.29 252.117 350.961 251.953C351.631 251.79 352.337 251.858 352.964 252.148L361.767 256.237L356.382 266.902Z" fill="#FF8B7B"/>
<path d="M362.393 267.131L370.723 284.22L381.342 282.313L367.107 259.884L362.393 267.131Z" fill="#FF8B7B"/>
<path d="M430.013 305.443L424.215 325.553L398.369 317.253C381.342 312.843 362.774 274.241 362.774 274.241L374.354 269.664L400.841 300.18L430.013 305.443Z" fill="#00B35F"/>
<path d="M415.961 361.073C418.616 368.229 420.203 380.802 409.858 396.883C409.858 396.883 449.726 402.803 477.967 401.018C479.935 389.529 475.068 365.635 485.412 328.803C485.979 326.786 486.115 324.673 485.811 322.6C485.508 320.527 484.772 318.541 483.651 316.771C482.53 315.001 481.05 313.487 479.305 312.327C477.561 311.166 475.592 310.386 473.527 310.036C471.193 309.639 468.721 309.273 466.173 308.983C456.286 307.824 448.841 305.932 440.068 306.084C437.154 306.084 434.651 305.093 431.768 305.306C425.421 305.764 417.67 318.428 414.222 330.695C411.585 340.751 412.194 351.384 415.961 361.073Z" fill="#00B35F"/>
<path opacity="0.4" d="M415.961 361.073C418.616 368.229 420.203 380.802 409.858 396.883C409.858 396.883 449.726 402.803 477.967 401.018C479.935 389.529 475.068 365.635 485.412 328.803C485.979 326.786 486.115 324.673 485.811 322.6C485.508 320.527 484.772 318.541 483.651 316.771C482.53 315.001 481.05 313.487 479.305 312.327C477.561 311.166 475.592 310.386 473.527 310.036C471.193 309.639 468.721 309.273 466.173 308.983C456.286 307.824 448.841 305.932 440.068 306.084C437.154 306.084 434.651 305.093 431.768 305.306C425.421 305.764 417.67 318.428 414.222 330.695C411.585 340.751 412.194 351.384 415.961 361.073Z" fill="white" fill-opacity="0.46"/>
<path d="M424.505 399.889C417.876 399.751 411.389 397.941 405.647 394.625C410.21 381.744 411.412 367.912 409.141 354.436C407.936 347.402 405.8 340.307 406.914 333.258C408.744 321.647 418.768 313.347 428.091 306.161C429.83 304.818 431.768 305.703 433.934 305.306C423.758 329.261 423.758 360.173 424.505 399.889Z" fill="#00B35F"/>
<path d="M483.078 400.408C482.85 401.48 482.319 402.464 481.548 403.243C480.778 404.022 479.799 404.563 478.73 404.802C476.583 405.222 474.376 405.222 472.23 404.802C464.907 403.887 457.171 402.635 449.848 401.75C445.74 369.569 449.301 336.872 460.238 306.328C468.446 306.1 477.372 307 482.437 313.454C486.435 318.535 486.19 325.66 485.748 332.068C484.207 354.924 485.946 377.719 483.078 400.408Z" fill="#00B35F"/>
<path opacity="0.2" d="M462.694 347.936C464.793 337.258 467.967 326.819 472.169 316.78L472.917 323.57L475.144 326.408C471.437 337.668 490.554 356.389 469.041 382.449C468.53 383.066 467.835 383.501 467.057 383.691C466.279 383.88 465.461 383.814 464.723 383.502C455.6 379.81 445.499 368.015 445.499 368.015L450.229 355.916C456.668 358.922 460.955 357.091 462.694 347.936Z" fill="black"/>
<path d="M427.801 350.011L439.991 362.065L445.347 353.536L432.21 343.115L427.801 350.011Z" fill="#FF8B7B"/>
<path d="M428.838 356.893H392.358L388.193 309.288H424.673L428.838 356.893Z" fill="#263238"/>
<path opacity="0.5" d="M428.838 356.893H392.358L388.193 309.288H424.673L428.838 356.893Z" fill="white" fill-opacity="0.46"/>
<path d="M427.542 356.649H391.061L386.911 309.06H423.376L427.542 356.649Z" fill="#263238"/>
<path opacity="0.8" d="M427.542 356.649H391.061L386.911 309.06H423.376L427.542 356.649Z" fill="white" fill-opacity="0.46"/>
<path d="M413.078 312.02H397.729L397.21 306.084H412.559L413.078 312.02Z" fill="#263238"/>
<path d="M397.21 306.084L398.72 305.55H414.603L414.817 308.083L413.642 309.456L413.566 311.531L413.078 312.02L412.559 306.084H397.21Z" fill="#263238"/>
<path opacity="0.5" d="M397.21 306.084L398.72 305.55H414.603L414.817 308.083L413.642 309.456L413.566 311.531L413.078 312.02L412.559 306.084H397.21Z" fill="black"/>
<path d="M416.205 348.76L418.814 350.973C419.295 351.385 419.867 351.676 420.482 351.822C421.098 351.968 421.74 351.964 422.354 351.812L428.182 350.362C430.517 349.767 432.21 343.115 432.21 343.115C429.266 339.575 420.416 338.538 420.416 338.538C420.001 338.4 419.562 338.347 419.126 338.381C418.689 338.416 418.264 338.536 417.875 338.737C417.486 338.937 417.14 339.213 416.859 339.548C416.578 339.883 416.366 340.271 416.236 340.689L414.985 344.717C414.765 345.436 414.764 346.204 414.981 346.924C415.199 347.644 415.625 348.283 416.205 348.76Z" fill="#FF8B7B"/>
<path d="M485.87 337.088C487.167 330.054 487.396 315.727 479.935 313.057C471.254 309.929 468.935 323.036 467.073 334.86C465.212 346.685 461.535 361.5 458.697 359.975C452.808 356.923 442.463 350.149 442.463 350.149L436.223 359.822C436.223 359.822 457.995 383.029 467.897 377.613C479.065 371.54 484.222 346.044 485.87 337.088Z" fill="#00B35F"/>
<path d="M459.353 289.56C458.064 295.345 458.127 301.35 459.536 307.107C459.536 307.107 435.658 322.364 435.658 306.664C435.658 306.664 443.073 308.8 443.699 299.279C444.05 293.878 449.695 288.401 459.353 289.56Z" fill="#FF8B7B"/>
<path opacity="0.2" d="M443.699 299.279C444.34 294.29 448.947 289.209 457.308 289.423L457.858 289.926L458.453 291.025C458.453 291.025 453.067 304.757 442.783 303.063C443.248 301.846 443.555 300.574 443.699 299.279Z" fill="black"/>
<path d="M464.815 270.869C462.954 283.838 462.45 289.377 455.325 295.541C444.645 304.818 429.083 299.707 427.008 286.387C425.161 274.44 428.533 255.245 441.67 251.08C443.904 250.358 446.258 250.084 448.598 250.273C450.938 250.462 453.218 251.111 455.307 252.182C457.396 253.253 459.253 254.726 460.772 256.517C462.291 258.307 463.442 260.379 464.159 262.615C465.015 265.278 465.24 268.104 464.815 270.869Z" fill="#FF8B7B"/>
<path d="M456.179 294.687C460.582 293.922 464.858 292.556 468.889 290.628C470.735 284.83 471.391 282.999 472.825 277.72C475.465 267.94 473.329 255.566 463.93 251.873C460.68 250.592 450.626 244.687 447.01 249.875C446.079 251.187 464.51 273.005 456.179 294.687Z" fill="#263238"/>
<path d="M435.918 278.01C434.778 280.36 433.32 282.542 431.585 284.495C432.093 284.926 432.69 285.241 433.333 285.417C433.976 285.594 434.65 285.628 435.307 285.517L435.918 278.01Z" fill="#FF5652"/>
<path d="M447.498 271.48C447.586 271.473 447.671 271.441 447.742 271.388C447.796 271.346 447.842 271.294 447.876 271.235C447.91 271.175 447.932 271.109 447.941 271.041C447.949 270.973 447.944 270.904 447.926 270.838C447.907 270.772 447.876 270.71 447.834 270.656C447.258 269.868 446.502 269.229 445.628 268.794C444.755 268.358 443.79 268.139 442.814 268.154C442.679 268.172 442.556 268.24 442.469 268.345C442.381 268.449 442.336 268.582 442.341 268.718C442.353 268.853 442.417 268.978 442.519 269.066C442.622 269.155 442.755 269.2 442.89 269.191C443.697 269.19 444.492 269.38 445.211 269.746C445.93 270.112 446.552 270.643 447.025 271.297C447.081 271.366 447.154 271.42 447.237 271.452C447.32 271.484 447.41 271.494 447.498 271.48Z" fill="#263238"/>
<path d="M428.243 269.023C428.331 269.012 428.414 268.98 428.487 268.932C429.129 268.439 429.88 268.107 430.676 267.963C431.472 267.82 432.291 267.869 433.065 268.108C433.192 268.158 433.334 268.155 433.46 268.101C433.586 268.047 433.685 267.945 433.736 267.818C433.76 267.754 433.772 267.685 433.77 267.617C433.767 267.548 433.752 267.481 433.723 267.418C433.695 267.356 433.655 267.3 433.604 267.253C433.554 267.206 433.495 267.17 433.431 267.146C432.502 266.852 431.515 266.783 430.554 266.948C429.593 267.113 428.686 267.505 427.908 268.092C427.808 268.158 427.735 268.255 427.698 268.368C427.662 268.481 427.666 268.603 427.709 268.713C427.751 268.824 427.831 268.917 427.934 268.976C428.037 269.035 428.157 269.057 428.274 269.038L428.243 269.023Z" fill="#263238"/>
<path d="M443.546 276.866C443.47 277.918 442.829 278.727 442.127 278.681C441.425 278.636 440.952 277.72 441.044 276.652C441.136 275.584 441.761 274.791 442.448 274.836C443.134 274.882 443.623 275.798 443.546 276.866Z" fill="#263238"/>
<path d="M431.539 275.904C431.463 276.957 430.822 277.766 430.135 277.72C429.449 277.674 428.96 276.759 429.037 275.691C429.113 274.623 429.754 273.829 430.44 273.875C431.127 273.921 431.646 274.821 431.539 275.904Z" fill="#263238"/>
<path d="M430.745 273.951L428.259 273.005C428.259 273.005 429.403 275.111 430.745 273.951Z" fill="#263238"/>
<path d="M442.753 274.928L440.251 273.982C440.251 273.982 441.41 276.057 442.753 274.928Z" fill="#263238"/>
<path d="M442.051 287.485C442.34 287.168 442.601 286.826 442.829 286.463C442.873 286.415 442.898 286.352 442.898 286.287C442.898 286.222 442.873 286.16 442.829 286.112C442.77 286.082 442.701 286.075 442.637 286.091C442.572 286.108 442.516 286.148 442.478 286.203C441.908 287.119 441.131 287.888 440.208 288.448C439.286 289.007 438.245 289.341 437.169 289.423C437.1 289.423 437.034 289.45 436.985 289.499C436.937 289.547 436.909 289.613 436.909 289.682C436.913 289.748 436.942 289.81 436.991 289.856C437.039 289.901 437.103 289.926 437.169 289.926C438.103 289.862 439.016 289.613 439.854 289.194C440.692 288.775 441.439 288.194 442.051 287.485Z" fill="#263238"/>
<path d="M467.058 281.428C466.607 282.598 465.929 283.667 465.062 284.574C464.195 285.48 463.157 286.205 462.008 286.707C458.956 288.034 456.927 285.395 457.43 282.236C457.858 279.414 459.994 275.309 463.274 275.309C464.422 275.349 465.508 275.842 466.294 276.679C467.08 277.517 467.503 278.632 467.47 279.78C467.44 280.351 467.3 280.91 467.058 281.428Z" fill="#FF8B7B"/>
<path d="M440.297 248.425C436.401 249.238 432.956 251.493 430.653 254.739C428.35 257.984 427.358 261.98 427.877 265.926C430.044 266.277 432.225 266.918 434.392 267.253C434.097 266.071 434.081 264.837 434.346 263.648C434.611 262.459 435.149 261.347 435.918 260.403C435.472 262.89 435.629 265.449 436.375 267.864C438.008 268.047 440.083 268.092 441.715 268.276C441.715 265.651 441.853 264.171 441.868 261.547C442.967 264.156 444.202 266.75 445.316 269.374C447.115 269.33 448.886 269.83 450.397 270.808C449.863 268.26 449.314 265.453 448.78 262.905C451.917 266.742 453.636 271.543 453.647 276.499C455.176 273.866 456.064 270.91 456.238 267.869C456.413 264.829 455.871 261.79 454.654 258.999C452.182 253.46 446.247 247.189 440.297 248.425Z" fill="#263238"/>
<path d="M458.453 303.963C453.055 307.741 447.39 311.122 441.502 314.079C442.021 317.558 444.035 322.639 447.086 325.034C456.637 317.848 459.567 313.652 462.343 306.328C461.947 304.391 460.101 302.85 458.453 303.963Z" fill="#00B35F"/>
<path opacity="0.7" d="M458.453 303.963C453.055 307.741 447.39 311.122 441.502 314.079C442.021 317.558 444.035 322.639 447.086 325.034C456.637 317.848 459.567 313.652 462.343 306.328C461.947 304.391 460.101 302.85 458.453 303.963Z" fill="white" fill-opacity="0.46"/>
<path d="M434.163 305.504C431.005 310.845 431.554 317.177 434.087 322.853C436.452 319.801 439.305 317.253 441.715 314.201C438.252 311.15 439.152 308.587 439.717 305.703C437.996 305.088 436.147 304.926 434.346 305.23L434.056 305.962C434.27 305.901 433.904 305.566 434.163 305.504Z" fill="#00B35F"/>
<path opacity="0.7" d="M434.163 305.504C431.005 310.845 431.554 317.177 434.087 322.853C436.452 319.801 439.305 317.253 441.715 314.201C438.252 311.15 439.152 308.587 439.717 305.703C437.996 305.088 436.147 304.926 434.346 305.23L434.056 305.962C434.27 305.901 433.904 305.566 434.163 305.504Z" fill="white" fill-opacity="0.46"/>
<path d="M513.486 227.476H479.584C479.354 214.22 473.926 201.584 464.47 192.291C455.015 182.998 442.287 177.79 429.029 177.79C415.771 177.79 403.044 182.998 393.588 192.291C384.132 201.584 378.704 214.22 378.474 227.476H344.572C344.422 216.289 346.495 205.184 350.672 194.805C354.849 184.426 361.046 174.981 368.904 167.017C376.761 159.053 386.122 152.729 396.444 148.413C406.765 144.097 417.841 141.874 429.029 141.874C440.217 141.874 451.293 144.097 461.614 148.413C471.936 152.729 481.297 159.053 489.154 167.017C497.012 174.981 503.209 184.426 507.386 194.805C511.563 205.184 513.636 216.289 513.486 227.476Z" fill="#00B35F"/>
<path d="M472.795 202.21L502.18 185.243C494.754 172.411 484.097 161.748 471.269 154.315L454.303 183.702C461.982 188.144 468.359 194.527 472.795 202.21Z" fill="#00B35F"/>
<path opacity="0.8" d="M355.878 185.243C348.45 198.077 344.55 212.648 344.572 227.476H378.474C378.462 218.604 380.799 209.886 385.248 202.209L355.878 185.243Z" fill="white" fill-opacity="0.46"/>
<path opacity="0.2" d="M479.584 227.476H513.486C513.507 212.648 509.607 198.077 502.18 185.243L472.795 202.209C477.255 209.882 479.599 218.601 479.584 227.476Z" fill="black"/>
<path opacity="0.6" d="M403.755 183.702L386.789 154.315C373.961 161.748 363.304 172.411 355.878 185.243L385.248 202.21C389.694 194.529 396.075 188.148 403.755 183.702Z" fill="white" fill-opacity="0.46"/>
<path opacity="0.4" d="M429.022 176.882V143.009C414.194 142.99 399.624 146.891 386.789 154.315L403.755 183.702C411.429 179.241 420.146 176.888 429.022 176.882Z" fill="white" fill-opacity="0.46"/>
<path opacity="0.2" d="M454.303 183.702L471.269 154.315C458.429 146.889 443.854 142.988 429.021 143.009V176.882C437.903 176.885 446.625 179.238 454.303 183.702Z" fill="white" fill-opacity="0.46"/>
<path d="M429.021 223.235L472.459 175.737L476.456 179.247L435.536 229.75L429.021 223.235Z" fill="#263238"/>
<path d="M436.833 229.75C436.836 231.295 436.381 232.807 435.524 234.094C434.668 235.381 433.449 236.384 432.021 236.978C430.594 237.572 429.023 237.728 427.507 237.429C425.99 237.129 424.597 236.386 423.503 235.294C422.409 234.202 421.664 232.81 421.361 231.295C421.058 229.779 421.212 228.207 421.803 226.779C422.394 225.351 423.395 224.13 424.68 223.271C425.965 222.412 427.476 221.953 429.021 221.953C431.091 221.953 433.075 222.774 434.54 224.236C436.004 225.697 436.829 227.68 436.833 229.75Z" fill="#263238"/>
<path d="M211.344 564.701C231.583 563.672 247.157 546.43 246.128 526.19C245.099 505.951 227.858 490.377 207.618 491.406C187.379 492.435 171.806 509.676 172.835 529.916C173.864 550.156 191.105 565.73 211.344 564.701Z" fill="#00B35F"/>
<path d="M250.587 526.284C250.881 533.512 249.028 540.665 245.261 546.84C241.494 553.016 235.982 557.937 229.422 560.983C222.861 564.03 215.545 565.065 208.397 563.958C201.249 562.851 194.588 559.652 189.256 554.764C183.924 549.876 180.159 543.518 178.436 536.493C176.714 529.467 177.11 522.089 179.576 515.288C182.041 508.488 186.466 502.57 192.291 498.282C198.116 493.993 205.081 491.526 212.307 491.191C217.128 490.968 221.945 491.7 226.482 493.345C231.019 494.991 235.186 497.516 238.744 500.778C242.301 504.039 245.179 507.971 247.212 512.349C249.244 516.726 250.391 521.462 250.587 526.284Z" fill="#00B35F"/>
<path opacity="0.4" d="M250.587 526.284C250.881 533.512 249.028 540.665 245.261 546.84C241.494 553.016 235.982 557.937 229.422 560.983C222.861 564.03 215.545 565.065 208.397 563.958C201.249 562.851 194.588 559.652 189.256 554.764C183.924 549.876 180.159 543.518 178.436 536.493C176.714 529.467 177.11 522.089 179.576 515.288C182.041 508.488 186.466 502.57 192.291 498.282C198.116 493.993 205.081 491.526 212.307 491.191C217.128 490.968 221.945 491.7 226.482 493.345C231.019 494.991 235.186 497.516 238.744 500.778C242.301 504.039 245.179 507.971 247.212 512.349C249.244 516.726 250.391 521.462 250.587 526.284Z" fill="white" fill-opacity="0.46"/>
<path d="M241.372 526.62C241.602 532.045 240.219 537.416 237.397 542.055C234.576 546.694 230.443 550.392 225.52 552.683C220.598 554.974 215.106 555.754 209.741 554.925C204.375 554.096 199.375 551.695 195.373 548.026C191.371 544.356 188.547 539.583 187.257 534.308C185.967 529.034 186.269 523.496 188.125 518.394C189.982 513.291 193.309 508.853 197.686 505.641C202.063 502.429 207.295 500.586 212.719 500.346C216.326 500.186 219.93 500.74 223.323 501.974C226.716 503.209 229.833 505.1 232.494 507.541C235.155 509.981 237.309 512.922 238.833 516.196C240.356 519.47 241.219 523.012 241.372 526.62Z" fill="#00B35F"/>
<g opacity="0.3">
<path d="M226.237 533.135C227.564 539.162 223.582 543.403 216.106 544.365L216.197 549.4L211.62 549.598L211.529 544.578C207.59 544.445 203.736 543.4 200.269 541.527L202.084 535.775C204.93 537.442 208.129 538.414 211.422 538.612L211.269 530.892C206.692 529.809 201.733 528.344 200.589 522.866C199.247 516.855 203.32 512.552 210.949 511.667L210.857 506.647L215.435 506.449L215.541 511.515C218.647 511.63 221.695 512.383 224.497 513.727L222.972 519.449C220.713 518.244 218.219 517.547 215.663 517.404L215.831 525.445C220.21 526.498 225.092 527.932 226.237 533.135ZM211.132 524.392L211.025 517.816C208.523 518.426 207.379 519.891 207.714 521.615C208.019 523.019 209.347 523.782 211.132 524.392ZM219.112 534.645C218.822 533.333 217.586 532.555 215.862 532.036L215.999 538.292C218.364 537.682 219.493 536.37 219.112 534.645Z" fill="white" fill-opacity="0.46"/>
</g>
<path d="M117.33 558.89C117.086 564.581 135.105 569.967 157.579 570.913C180.053 571.859 198.469 568.029 198.774 562.338C199.079 556.647 180.984 551.261 158.525 550.3C136.066 549.339 117.574 553.199 117.33 558.89Z" fill="#00B35F"/>
<path d="M117.809 546.985L117.397 557.299L198.84 560.557L199.253 550.243L117.809 546.985Z" fill="#00B35F"/>
<path d="M117.773 548.576C117.529 554.267 135.547 559.653 158.021 560.614C180.495 561.575 198.911 557.73 199.216 552.039C199.521 546.348 181.441 540.947 158.967 540.001C136.493 539.055 118.017 542.885 117.773 548.576Z" fill="#00B35F"/>
<path opacity="0.4" d="M117.773 548.576C117.529 554.267 135.547 559.653 158.021 560.614C180.495 561.575 198.911 557.73 199.216 552.039C199.521 546.348 181.441 540.947 158.967 540.001C136.493 539.055 118.017 542.885 117.773 548.576Z" fill="white" fill-opacity="0.46"/>
<path d="M122.96 548.393C122.949 548.765 123.073 549.128 123.311 549.415C126.027 546.074 140.903 544.105 158.678 544.838C176.452 545.57 191.16 548.82 193.54 552.375C193.801 552.114 193.958 551.767 193.983 551.398C194.135 547.538 178.39 543.678 158.769 542.854C139.148 542.03 123.128 544.594 122.96 548.393Z" fill="#00B35F"/>
<path opacity="0.4" d="M122.96 548.393C122.949 548.765 123.073 549.128 123.311 549.415C126.027 546.074 140.903 544.105 158.678 544.838C176.452 545.57 191.16 548.82 193.54 552.375C193.801 552.114 193.958 551.767 193.983 551.398C194.135 547.538 178.39 543.678 158.769 542.854C139.148 542.03 123.128 544.594 122.96 548.393Z" fill="#00B35F"/>
<path opacity="0.4" d="M123.311 549.415C125.737 552.985 140.384 556.205 158.174 556.952C175.964 557.7 190.87 555.747 193.54 552.375C191.16 548.82 176.513 545.6 158.677 544.838C140.842 544.075 126.027 546.119 123.311 549.415Z" fill="#00B35F"/>
<path d="M108.786 543.281C108.542 548.972 126.561 554.358 149.035 555.32C171.509 556.281 189.909 552.421 190.153 546.73C190.397 541.038 172.379 535.652 149.905 534.691C127.431 533.73 109.03 537.59 108.786 543.281Z" fill="#00B35F"/>
<path d="M109.224 532.976L108.786 543.281L190.172 546.734L190.609 536.429L109.224 532.976Z" fill="#00B35F"/>
<path d="M109.213 532.967C108.969 538.658 127.003 544.044 149.477 545.005C171.951 545.967 190.352 542.122 190.672 536.431C190.992 530.739 172.897 525.338 150.423 524.392C127.949 523.446 109.458 527.276 109.213 532.967Z" fill="#00B35F"/>
<path opacity="0.4" d="M109.213 532.967C108.969 538.658 127.003 544.044 149.477 545.005C171.951 545.967 190.352 542.122 190.672 536.431C190.992 530.739 172.897 525.338 150.423 524.392C127.949 523.446 109.458 527.276 109.213 532.967Z" fill="white" fill-opacity="0.46"/>
<path d="M114.416 532.784C114.4 533.154 114.52 533.518 114.752 533.806C117.483 530.465 132.359 528.497 150.134 529.229C167.908 529.961 182.616 533.211 184.996 536.782C185.255 536.514 185.407 536.161 185.424 535.79C185.591 531.945 169.846 528.069 150.225 527.245C130.604 526.422 114.569 528.939 114.416 532.784Z" fill="#00B35F"/>
<path opacity="0.4" d="M114.416 532.784C114.4 533.154 114.52 533.518 114.752 533.806C117.483 530.465 132.359 528.497 150.134 529.229C167.908 529.961 182.616 533.211 184.996 536.782C185.255 536.514 185.407 536.161 185.424 535.79C185.591 531.945 169.846 528.069 150.225 527.245C130.604 526.422 114.569 528.939 114.416 532.784Z" fill="#00B35F"/>
<path opacity="0.4" d="M114.752 533.806C117.178 537.377 131.84 540.596 149.615 541.344C167.389 542.091 182.326 540.138 184.996 536.766C182.616 533.196 167.969 529.977 150.133 529.214C132.298 528.451 117.468 530.465 114.752 533.806Z" fill="#00B35F"/>
<path d="M109.839 524.469C109.595 530.175 127.629 535.561 150.088 536.507C172.546 537.453 190.977 533.623 191.282 527.932C191.587 522.241 173.508 516.855 151.034 515.894C128.56 514.932 110.129 518.777 109.839 524.469Z" fill="#00B35F"/>
<path d="M110.325 514.175L109.887 524.48L191.273 527.934L191.71 517.629L110.325 514.175Z" fill="#00B35F"/>
<path d="M110.327 514.17C110.083 519.861 128.102 525.247 150.576 526.208C173.05 527.169 191.465 523.324 191.771 517.618C192.076 511.911 173.981 506.541 151.507 505.595C129.033 504.649 110.571 508.478 110.327 514.17Z" fill="#00B35F"/>
<path opacity="0.4" d="M110.327 514.17C110.083 519.861 128.102 525.247 150.576 526.208C173.05 527.169 191.465 523.324 191.771 517.618C192.076 511.911 173.981 506.541 151.507 505.595C129.033 504.649 110.571 508.478 110.327 514.17Z" fill="white" fill-opacity="0.46"/>
<path d="M115.515 513.986C115.503 514.359 115.628 514.722 115.866 515.009C118.581 511.652 133.457 509.699 151.247 510.431C169.037 511.164 183.73 514.414 186.11 517.969C186.365 517.705 186.517 517.359 186.537 516.992C186.705 513.132 170.944 509.272 151.324 508.433C131.703 507.593 115.682 510.141 115.515 513.986Z" fill="#00B35F"/>
<path opacity="0.4" d="M115.515 513.986C115.503 514.359 115.628 514.722 115.866 515.009C118.581 511.652 133.457 509.699 151.247 510.431C169.037 511.164 183.73 514.414 186.11 517.969C186.365 517.705 186.517 517.359 186.537 516.992C186.705 513.132 170.944 509.272 151.324 508.433C131.703 507.593 115.682 510.141 115.515 513.986Z" fill="#00B35F"/>
<path opacity="0.4" d="M115.942 515.009C118.368 518.564 133.03 521.783 150.805 522.546C168.58 523.309 183.501 521.341 186.186 517.969C183.806 514.414 169.144 511.194 151.324 510.431C133.503 509.668 118.581 511.652 115.942 515.009Z" fill="#00B35F"/>
<path d="M101.341 508.875C101.096 514.566 119.115 519.952 141.589 520.898C164.063 521.844 182.479 518.015 182.708 512.323C182.937 506.632 164.933 501.246 142.459 500.285C119.985 499.324 101.585 503.169 101.341 508.875Z" fill="#00B35F"/>
<path d="M101.768 498.523L101.331 508.828L182.701 512.281L183.138 501.976L101.768 498.523Z" fill="#00B35F"/>
<path d="M101.783 498.561C101.539 504.252 119.558 509.638 142.032 510.599C164.506 511.56 182.906 507.715 183.227 502.009C183.547 496.303 165.452 490.932 142.978 489.986C120.504 489.04 102.012 492.87 101.783 498.561Z" fill="#00B35F"/>
<path opacity="0.4" d="M101.783 498.561C101.539 504.252 119.558 509.638 142.032 510.599C164.506 511.56 182.906 507.715 183.227 502.009C183.547 496.303 165.452 490.932 142.978 489.986C120.504 489.04 102.012 492.87 101.783 498.561Z" fill="white" fill-opacity="0.46"/>
<path d="M106.971 498.378C106.955 498.748 107.074 499.111 107.306 499.4C110.037 496.043 124.913 494.09 142.688 494.823C160.463 495.555 175.171 498.805 177.551 502.36C177.806 502.097 177.958 501.75 177.978 501.384C178.146 497.523 162.4 493.663 142.78 492.824C123.159 491.985 107.123 494.533 106.971 498.378Z" fill="#00B35F"/>
<path opacity="0.4" d="M106.971 498.378C106.955 498.748 107.074 499.111 107.306 499.4C110.037 496.043 124.913 494.09 142.688 494.823C160.463 495.555 175.171 498.805 177.551 502.36C177.806 502.097 177.958 501.75 177.978 501.384C178.146 497.523 162.4 493.663 142.78 492.824C123.159 491.985 107.123 494.533 106.971 498.378Z" fill="#00B35F"/>
<path opacity="0.4" d="M107.306 499.4C109.747 502.955 124.394 506.175 142.169 506.937C159.944 507.7 174.881 505.732 177.551 502.36C175.171 498.805 160.524 495.586 142.688 494.823C124.852 494.06 110.037 496.043 107.306 499.4Z" fill="#00B35F"/>
<path d="M114.416 495.647C114.172 501.338 132.191 506.724 154.665 507.67C177.139 508.616 195.539 504.786 195.783 499.095C196.027 493.404 178.008 488.018 155.534 487.057C133.06 486.095 114.63 489.94 114.416 495.647Z" fill="#00B35F"/>
<path d="M114.829 485.325L114.392 495.63L195.762 499.083L196.199 488.778L114.829 485.325Z" fill="#00B35F"/>
<path d="M114.828 485.332C114.584 491.024 132.603 496.409 155.077 497.371C177.551 498.332 195.966 494.487 196.272 488.781C196.577 483.074 178.497 477.703 156.023 476.758C133.549 475.812 115.072 479.641 114.828 485.332Z" fill="#00B35F"/>
<path opacity="0.4" d="M114.828 485.332C114.584 491.024 132.603 496.409 155.077 497.371C177.551 498.332 195.966 494.487 196.272 488.781C196.577 483.074 178.497 477.703 156.023 476.758C133.549 475.812 115.072 479.641 114.828 485.332Z" fill="white" fill-opacity="0.46"/>
<path d="M120.016 485.088C120.004 485.46 120.129 485.824 120.367 486.111C123.082 482.754 137.973 480.801 155.748 481.533C173.523 482.266 188.231 485.515 190.611 489.071C190.866 488.807 191.018 488.46 191.038 488.094C191.206 484.234 175.461 480.374 155.825 479.534C136.188 478.695 120.183 481.304 120.016 485.088Z" fill="#00B35F"/>
<path opacity="0.4" d="M120.016 485.088C120.004 485.46 120.129 485.824 120.367 486.111C123.082 482.754 137.973 480.801 155.748 481.533C173.523 482.266 188.231 485.515 190.611 489.071C190.866 488.807 191.018 488.46 191.038 488.094C191.206 484.234 175.461 480.374 155.825 479.534C136.188 478.695 120.183 481.304 120.016 485.088Z" fill="#00B35F"/>
<path opacity="0.4" d="M120.366 486.172C122.792 489.727 137.455 492.946 155.229 493.709C173.004 494.472 187.941 492.504 190.611 489.132C188.231 485.576 173.569 482.357 155.748 481.594C137.928 480.831 123.082 482.815 120.366 486.172Z" fill="#00B35F"/>
<path d="M105.842 480.038C105.597 485.729 123.616 491.115 146.09 492.061C168.564 493.007 186.98 489.177 187.285 483.486C187.59 477.795 169.51 472.409 147.036 471.448C124.562 470.487 106.086 474.408 105.842 480.038Z" fill="#00B35F"/>
<path d="M106.272 469.703L105.835 480.008L187.205 483.461L187.642 473.156L106.272 469.703Z" fill="#00B35F"/>
<path d="M106.284 469.724C106.04 475.415 124.059 480.801 146.533 481.762C169.007 482.723 187.422 478.878 187.727 473.187C188.032 467.496 169.937 462.095 147.463 461.149C124.989 460.203 106.528 464.033 106.284 469.724Z" fill="#00B35F"/>
<path opacity="0.4" d="M106.284 469.724C106.04 475.415 124.059 480.801 146.533 481.762C169.007 482.723 187.422 478.878 187.727 473.187C188.032 467.496 169.937 462.095 147.463 461.149C124.989 460.203 106.528 464.033 106.284 469.724Z" fill="white" fill-opacity="0.46"/>
<path d="M111.471 469.541C111.46 469.913 111.585 470.276 111.822 470.563C114.538 467.206 129.414 465.253 147.189 465.986C164.964 466.718 179.687 469.968 182.067 473.523C182.322 473.259 182.474 472.913 182.494 472.546C182.647 468.686 166.901 464.826 147.28 464.002C127.659 463.178 111.639 465.696 111.471 469.541Z" fill="#00B35F"/>
<path opacity="0.4" d="M111.471 469.541C111.46 469.913 111.585 470.276 111.822 470.563C114.538 467.206 129.414 465.253 147.189 465.986C164.964 466.718 179.687 469.968 182.067 473.523C182.322 473.259 182.474 472.913 182.494 472.546C182.647 468.686 166.901 464.826 147.28 464.002C127.659 463.178 111.639 465.696 111.471 469.541Z" fill="#00B35F"/>
<path opacity="0.4" d="M111.823 470.563C114.248 474.133 128.911 477.353 146.685 478.1C164.46 478.848 179.382 476.895 182.067 473.523C179.687 469.968 165.025 466.748 147.189 465.986C129.353 465.223 114.538 467.206 111.823 470.563Z" fill="#00B35F"/>
<path d="M195.737 468.946C195.982 474.652 177.963 480.038 155.489 480.984C133.015 481.93 114.599 478.1 114.294 472.409C113.989 466.718 132.069 461.332 154.543 460.371C177.017 459.409 195.493 463.254 195.737 468.946Z" fill="#00B35F"/>
<path d="M194.23 459.688L112.787 462.946L113.199 473.26L194.643 470.003L194.23 459.688Z" fill="#00B35F"/>
<path d="M195.28 458.647C195.524 464.338 177.505 469.724 155.031 470.685C132.557 471.646 114.141 467.801 113.913 462.095C113.684 456.388 131.687 451.018 154.161 450.072C176.635 449.126 195.051 452.955 195.28 458.647Z" fill="#00B35F"/>
<path opacity="0.4" d="M195.28 458.647C195.524 464.338 177.505 469.724 155.031 470.685C132.557 471.646 114.141 467.801 113.913 462.095C113.684 456.388 131.687 451.018 154.161 450.072C176.635 449.126 195.051 452.955 195.28 458.647Z" fill="white" fill-opacity="0.46"/>
<path d="M190.108 458.463C190.119 458.836 189.994 459.199 189.757 459.486C187.041 456.129 172.165 454.176 154.39 454.908C136.615 455.641 121.892 458.891 119.527 462.446C119.267 462.184 119.109 461.838 119.085 461.469C118.932 457.609 134.678 453.749 154.299 452.91C173.92 452.07 189.94 454.573 190.108 458.463Z" fill="#00B35F"/>
<path opacity="0.4" d="M190.108 458.463C190.119 458.836 189.994 459.199 189.757 459.486C187.041 456.129 172.165 454.176 154.39 454.908C136.615 455.641 121.892 458.891 119.527 462.446C119.267 462.184 119.109 461.838 119.085 461.469C118.932 457.609 134.678 453.749 154.299 452.91C173.92 452.07 189.94 454.573 190.108 458.463Z" fill="#00B35F"/>
<path opacity="0.4" d="M189.757 459.486C187.331 463.041 172.684 466.26 154.894 467.023C137.104 467.786 122.197 465.818 119.527 462.446C121.892 458.891 136.554 455.671 154.39 454.908C172.226 454.146 187.041 456.099 189.757 459.486Z" fill="#00B35F"/>
<path d="M204.282 453.352C204.526 459.043 186.507 464.429 164.033 465.375C141.559 466.321 123.159 462.492 122.838 456.8C122.518 451.109 140.613 445.723 163.087 444.762C185.561 443.801 204.037 447.646 204.282 453.352Z" fill="#00B35F"/>
<path d="M203.873 443.042L122.487 446.495L122.925 456.8L204.31 453.346L203.873 443.042Z" fill="#00B35F"/>
<path d="M203.854 443.038C204.083 448.729 186.064 454.115 163.59 455.076C141.116 456.037 122.716 452.193 122.472 446.486C122.228 440.78 140.247 435.409 162.721 434.463C185.195 433.517 203.61 437.347 203.854 443.038Z" fill="#00B35F"/>
<path opacity="0.4" d="M203.854 443.038C204.083 448.729 186.064 454.115 163.59 455.076C141.116 456.037 122.716 452.193 122.472 446.486C122.228 440.78 140.247 435.409 162.721 434.463C185.195 433.517 203.61 437.347 203.854 443.038Z" fill="white" fill-opacity="0.46"/>
<path d="M198.652 442.855C198.668 443.225 198.548 443.588 198.316 443.877C195.585 440.52 180.709 438.567 162.934 439.3C145.16 440.032 130.451 443.282 128.071 446.837C127.816 446.574 127.665 446.227 127.644 445.861C127.476 442 143.222 438.14 162.843 437.301C182.464 436.462 198.499 439.01 198.652 442.855Z" fill="#00B35F"/>
<path opacity="0.4" d="M198.652 442.855C198.668 443.225 198.548 443.588 198.316 443.877C195.585 440.52 180.709 438.567 162.934 439.3C145.16 440.032 130.451 443.282 128.071 446.837C127.816 446.574 127.665 446.227 127.644 445.861C127.476 442 143.222 438.14 162.843 437.301C182.464 436.462 198.499 439.01 198.652 442.855Z" fill="#00B35F"/>
<path opacity="0.4" d="M198.331 443.892C195.905 447.447 181.243 450.667 163.468 451.43C145.694 452.193 130.757 450.224 128.087 446.852C130.467 443.297 145.114 440.078 162.95 439.315C180.785 438.552 195.585 440.52 198.331 443.892Z" fill="#00B35F"/>
<path d="M203.183 434.539C203.427 440.23 185.393 445.632 162.934 446.578C140.476 447.524 122.045 443.694 121.74 438.003C121.435 432.312 139.514 426.91 161.988 425.964C184.462 425.018 202.908 428.848 203.183 434.539Z" fill="#00B35F"/>
<path d="M202.741 424.247L121.355 427.701L121.793 438.006L203.178 434.552L202.741 424.247Z" fill="#00B35F"/>
<path d="M202.741 424.24C202.985 429.931 184.966 435.317 162.492 436.279C140.018 437.24 121.602 433.38 121.297 427.689C120.992 421.997 139.087 416.611 161.546 415.65C184.005 414.689 202.497 418.549 202.741 424.24Z" fill="#00B35F"/>
<path opacity="0.4" d="M202.741 424.24C202.985 429.931 184.966 435.317 162.492 436.279C140.018 437.24 121.602 433.38 121.297 427.689C120.992 421.997 139.087 416.611 161.546 415.65C184.005 414.689 202.497 418.549 202.741 424.24Z" fill="white" fill-opacity="0.46"/>
<path d="M197.553 424.057C197.556 424.428 197.432 424.789 197.202 425.08C194.486 421.723 179.61 419.755 161.82 420.502C144.03 421.25 129.338 424.484 126.958 428.04C126.709 427.772 126.558 427.427 126.53 427.063C126.363 423.203 142.123 419.343 161.744 418.503C181.365 417.664 197.385 420.197 197.553 424.057Z" fill="#00B35F"/>
<path opacity="0.4" d="M197.553 424.057C197.556 424.428 197.432 424.789 197.202 425.08C194.486 421.723 179.61 419.755 161.82 420.502C144.03 421.25 129.338 424.484 126.958 428.04C126.709 427.772 126.558 427.427 126.53 427.063C126.363 423.203 142.123 419.343 161.744 418.503C181.365 417.664 197.385 420.197 197.553 424.057Z" fill="#00B35F"/>
<path opacity="0.4" d="M197.202 425.08C194.776 428.635 180.114 431.854 162.339 432.617C144.564 433.38 129.643 431.411 126.958 428.04C129.338 424.484 144 421.25 161.82 420.502C179.641 419.755 194.486 421.723 197.202 425.08Z" fill="#00B35F"/>
<path d="M211.727 418.931C211.971 424.622 193.952 430.023 171.478 430.969C149.005 431.915 130.589 428.085 130.284 422.394C129.979 416.703 148.074 411.317 170.548 410.356C193.022 409.395 211.483 413.24 211.727 418.931Z" fill="#00B35F"/>
<path d="M211.256 408.641L129.886 412.094L130.324 422.399L211.694 418.946L211.256 408.641Z" fill="#00B35F"/>
<path d="M211.285 408.632C211.529 414.323 193.51 419.709 171.036 420.67C148.562 421.631 130.162 417.771 129.841 412.08C129.521 406.389 147.616 401.003 170.09 400.042C192.564 399.08 211.056 402.941 211.285 408.632Z" fill="#00B35F"/>
<path opacity="0.4" d="M211.285 408.632C211.529 414.323 193.51 419.709 171.036 420.67C148.562 421.631 130.162 417.771 129.841 412.08C129.521 406.389 147.616 401.003 170.09 400.042C192.564 399.08 211.056 402.941 211.285 408.632Z" fill="white" fill-opacity="0.46"/>
<path d="M206.097 408.449C206.113 408.819 205.994 409.182 205.761 409.471C203.03 406.114 188.155 404.146 170.38 404.894C152.605 405.641 137.897 408.876 135.517 412.431C135.262 412.167 135.11 411.821 135.09 411.454C134.922 407.594 150.667 403.734 170.288 402.895C189.909 402.056 205.96 404.604 206.097 408.449Z" fill="#00B35F"/>
<path opacity="0.4" d="M206.097 408.449C206.113 408.819 205.994 409.182 205.761 409.471C203.03 406.114 188.155 404.146 170.38 404.894C152.605 405.641 137.897 408.876 135.517 412.431C135.262 412.167 135.11 411.821 135.09 411.454C134.922 407.594 150.667 403.734 170.288 402.895C189.909 402.056 205.96 404.604 206.097 408.449Z" fill="#00B35F"/>
<path opacity="0.4" d="M205.761 409.471C203.32 413.026 188.673 416.245 170.898 417.008C153.124 417.771 138.187 415.803 135.517 412.431C137.897 408.876 152.544 405.656 170.38 404.893C188.216 404.131 203.03 406.114 205.761 409.471Z" fill="#00B35F"/>
<path d="M198.667 405.748C198.911 411.439 180.892 416.84 158.418 417.786C135.944 418.732 117.544 414.903 117.3 409.211C117.056 403.52 135.075 398.134 157.549 397.173C180.023 396.212 198.438 400.011 198.667 405.748Z" fill="#00B35F"/>
<path d="M198.242 395.398L116.857 398.852L117.294 409.156L198.679 405.703L198.242 395.398Z" fill="#00B35F"/>
<path d="M198.24 395.403C198.484 401.094 180.45 406.48 157.991 407.442C135.532 408.403 117.101 404.543 116.796 398.851C116.491 393.16 134.571 387.774 157.045 386.813C179.519 385.852 197.996 389.712 198.24 395.403Z" fill="#00B35F"/>
<path opacity="0.4" d="M198.24 395.403C198.484 401.094 180.45 406.48 157.991 407.442C135.532 408.403 117.101 404.543 116.796 398.851C116.491 393.16 134.571 387.774 157.045 386.813C179.519 385.852 197.996 389.712 198.24 395.403Z" fill="white" fill-opacity="0.46"/>
<path d="M193.052 395.22C193.05 395.59 192.927 395.949 192.701 396.242C189.97 392.886 175.094 390.917 157.32 391.665C139.545 392.413 124.837 395.647 122.457 399.202C122.201 398.939 122.05 398.592 122.029 398.226C121.862 394.366 137.607 390.505 157.243 389.666C176.879 388.827 192.884 391.375 193.052 395.22Z" fill="#00B35F"/>
<path opacity="0.4" d="M193.052 395.22C193.05 395.59 192.927 395.949 192.701 396.242C189.97 392.886 175.094 390.917 157.32 391.665C139.545 392.413 124.837 395.647 122.457 399.202C122.201 398.939 122.05 398.592 122.029 398.226C121.862 394.366 137.607 390.505 157.243 389.666C176.879 388.827 192.884 391.375 193.052 395.22Z" fill="#00B35F"/>
<path opacity="0.4" d="M192.701 396.242C190.275 399.797 175.613 403.017 157.838 403.78C140.064 404.543 125.127 402.574 122.457 399.202C124.837 395.647 139.499 392.428 157.32 391.665C175.14 390.902 189.97 392.886 192.701 396.242Z" fill="#00B35F"/>
<path d="M207.226 390.093C207.47 395.8 189.452 401.186 166.978 402.132C144.504 403.078 126.088 399.248 125.783 393.557C125.478 387.866 143.558 382.48 166.032 381.519C188.506 380.557 206.982 384.387 207.226 390.093Z" fill="#00B35F"/>
<path d="M206.758 379.808L125.387 383.261L125.825 393.566L207.195 390.113L206.758 379.808Z" fill="#00B35F"/>
<path d="M206.784 379.81C207.028 385.501 189.009 390.887 166.535 391.848C144.061 392.809 125.646 388.964 125.34 383.258C125.035 377.552 143.13 372.181 165.604 371.235C188.078 370.289 206.54 374.103 206.784 379.81Z" fill="#00B35F"/>
<path opacity="0.4" d="M206.784 379.81C207.028 385.501 189.009 390.887 166.535 391.848C144.061 392.809 125.646 388.964 125.34 383.258C125.035 377.552 143.13 372.181 165.604 371.235C188.078 370.289 206.54 374.103 206.784 379.81Z" fill="white" fill-opacity="0.46"/>
<path d="M201.596 379.611C201.608 379.984 201.483 380.347 201.245 380.634C198.53 377.277 183.654 375.324 165.879 376.056C148.104 376.789 133.381 380.039 131.001 383.594C130.746 383.33 130.594 382.983 130.574 382.617C130.421 378.757 146.167 374.897 165.787 374.058C185.408 373.218 201.383 375.766 201.596 379.611Z" fill="#00B35F"/>
<path opacity="0.4" d="M201.596 379.611C201.608 379.984 201.483 380.347 201.245 380.634C198.53 377.277 183.654 375.324 165.879 376.056C148.104 376.789 133.381 380.039 131.001 383.594C130.746 383.33 130.594 382.983 130.574 382.617C130.421 378.757 146.167 374.897 165.787 374.058C185.408 373.218 201.383 375.766 201.596 379.611Z" fill="#00B35F"/>
<path opacity="0.4" d="M201.245 380.634C198.819 384.189 184.157 387.408 166.382 388.171C148.608 388.934 133.686 386.966 131.001 383.594C133.381 380.039 148.043 376.819 165.879 376.056C183.715 375.293 198.529 377.277 201.245 380.634Z" fill="#00B35F"/>
<path d="M299.121 324.348H98.7013L84.1306 46.3516H284.566L299.121 324.348Z" fill="#00B35F"/>
<g opacity="0.6">
<path d="M299.121 324.348H98.7013L84.1306 46.3516H284.566L299.121 324.348Z" fill="white" fill-opacity="0.46"/>
</g>
<path d="M197.523 231.642H116.659C116.412 231.637 116.166 231.684 115.937 231.779C115.709 231.874 115.502 232.016 115.332 232.196C115.161 232.375 115.029 232.588 114.945 232.821C114.861 233.054 114.827 233.302 114.844 233.549C114.875 234.063 115.1 234.546 115.474 234.9C115.848 235.254 116.342 235.453 116.858 235.456H197.721C197.969 235.461 198.215 235.414 198.443 235.319C198.672 235.223 198.878 235.082 199.049 234.902C199.22 234.723 199.351 234.51 199.435 234.277C199.519 234.044 199.554 233.796 199.537 233.549C199.506 233.035 199.28 232.552 198.906 232.197C198.533 231.843 198.038 231.645 197.523 231.642Z" fill="#263238"/>
<path d="M176.971 216.933H115.835C115.588 216.933 115.343 216.983 115.115 217.081C114.887 217.179 114.682 217.322 114.512 217.502C114.342 217.682 114.211 217.895 114.126 218.128C114.041 218.361 114.005 218.608 114.02 218.856C114.054 219.369 114.281 219.85 114.654 220.203C115.027 220.557 115.52 220.756 116.034 220.763H177.185C177.432 220.765 177.677 220.717 177.904 220.621C178.132 220.525 178.337 220.383 178.507 220.204C178.678 220.025 178.809 219.813 178.894 219.581C178.979 219.349 179.015 219.102 179.001 218.856C178.97 218.338 178.743 217.851 178.366 217.493C177.989 217.136 177.49 216.936 176.971 216.933Z" fill="#263238"/>
<path d="M199.384 267.055H118.52C118.273 267.052 118.029 267.101 117.801 267.197C117.574 267.293 117.368 267.435 117.198 267.614C117.028 267.793 116.896 268.005 116.811 268.237C116.726 268.469 116.69 268.716 116.705 268.962C116.736 269.478 116.96 269.963 117.334 270.319C117.708 270.676 118.202 270.878 118.719 270.885H199.582C199.831 270.887 200.077 270.839 200.306 270.742C200.534 270.644 200.74 270.501 200.911 270.321C201.081 270.14 201.213 269.926 201.296 269.692C201.38 269.459 201.415 269.21 201.398 268.962C201.364 268.449 201.137 267.968 200.764 267.615C200.391 267.261 199.898 267.062 199.384 267.055Z" fill="#263238"/>
<path d="M178.848 252.362H117.697C117.455 252.367 117.217 252.422 116.996 252.522C116.776 252.621 116.578 252.765 116.414 252.943C116.251 253.121 116.124 253.33 116.043 253.558C115.962 253.786 115.928 254.028 115.942 254.269C115.977 254.782 116.203 255.263 116.576 255.616C116.949 255.97 117.442 256.17 117.956 256.176H179.107C179.354 256.179 179.599 256.13 179.827 256.034C180.054 255.938 180.259 255.796 180.43 255.617C180.6 255.438 180.732 255.226 180.817 254.994C180.901 254.762 180.938 254.516 180.923 254.269C180.888 253.746 180.653 253.256 180.267 252.901C179.88 252.546 179.372 252.353 178.848 252.362Z" fill="#263238"/>
<path d="M201.246 302.468H120.382C120.134 302.468 119.889 302.518 119.662 302.616C119.434 302.714 119.229 302.857 119.059 303.037C118.889 303.217 118.757 303.43 118.673 303.663C118.588 303.896 118.552 304.143 118.566 304.391C118.601 304.904 118.827 305.385 119.2 305.738C119.574 306.092 120.066 306.291 120.58 306.298H201.444C201.691 306.3 201.936 306.252 202.163 306.156C202.391 306.06 202.596 305.918 202.766 305.739C202.937 305.56 203.068 305.348 203.153 305.116C203.238 304.884 203.274 304.637 203.26 304.391C203.225 303.876 202.999 303.394 202.627 303.038C202.254 302.682 201.761 302.479 201.246 302.468Z" fill="#263238"/>
<path d="M180.694 287.775H119.543C119.296 287.772 119.052 287.821 118.826 287.917C118.599 288.013 118.394 288.156 118.225 288.335C118.056 288.514 117.926 288.726 117.843 288.958C117.76 289.19 117.726 289.436 117.742 289.682C117.77 290.199 117.993 290.686 118.368 291.043C118.742 291.401 119.239 291.602 119.756 291.605H180.892C181.141 291.61 181.389 291.563 181.618 291.466C181.848 291.37 182.055 291.227 182.226 291.046C182.397 290.865 182.528 290.65 182.611 290.415C182.694 290.18 182.727 289.931 182.708 289.682C182.677 289.168 182.452 288.685 182.078 288.331C181.704 287.977 181.209 287.778 180.694 287.775Z" fill="#263238"/>
<path d="M272.818 232.679H258.125C257.845 232.676 257.576 232.568 257.373 232.375C257.169 232.183 257.045 231.921 257.026 231.642L256.263 216.933C256.255 216.8 256.274 216.666 256.319 216.541C256.365 216.415 256.435 216.3 256.527 216.203C256.618 216.106 256.729 216.028 256.852 215.975C256.974 215.923 257.106 215.895 257.24 215.896H271.948C272.226 215.899 272.493 216.008 272.694 216.201C272.895 216.393 273.016 216.655 273.031 216.933L273.809 231.642C273.818 231.776 273.798 231.911 273.752 232.038C273.706 232.164 273.634 232.28 273.541 232.378C273.447 232.475 273.335 232.552 273.211 232.604C273.086 232.656 272.952 232.682 272.818 232.679ZM259.086 230.589H271.704L271.048 217.971H258.43L259.086 230.589Z" fill="#00B35F"/>
<path d="M274.77 269.954H260.078C259.795 269.95 259.525 269.84 259.321 269.644C259.117 269.449 258.995 269.183 258.979 268.901L258.216 254.208C258.208 254.075 258.227 253.941 258.272 253.815C258.318 253.69 258.388 253.575 258.48 253.478C258.571 253.38 258.682 253.303 258.804 253.25C258.927 253.197 259.059 253.17 259.193 253.17H273.901C274.181 253.174 274.449 253.282 274.653 253.474C274.856 253.667 274.98 253.929 274.999 254.208L275.762 268.901C275.77 269.036 275.751 269.172 275.705 269.299C275.659 269.427 275.587 269.544 275.494 269.642C275.401 269.741 275.289 269.819 275.165 269.873C275.04 269.927 274.906 269.954 274.77 269.954ZM261.039 267.864H273.657L273.001 255.245H260.383L261.039 267.864Z" fill="#00B35F"/>
<path d="M276.632 305.428H261.939C261.659 305.425 261.39 305.317 261.187 305.124C260.983 304.932 260.86 304.67 260.84 304.391L260.078 289.682C260.069 289.549 260.088 289.415 260.134 289.29C260.179 289.164 260.25 289.049 260.341 288.952C260.433 288.855 260.543 288.777 260.666 288.724C260.788 288.672 260.921 288.645 261.054 288.645H275.762C276.039 288.652 276.304 288.762 276.505 288.954C276.705 289.146 276.826 289.406 276.845 289.682L277.623 304.391C277.632 304.525 277.612 304.66 277.566 304.787C277.52 304.914 277.448 305.029 277.355 305.127C277.262 305.224 277.149 305.301 277.025 305.353C276.9 305.405 276.767 305.431 276.632 305.428ZM262.9 303.353H275.518L274.862 290.735H262.229L262.9 303.353Z" fill="#00B35F"/>
<path d="M230.097 169.817H162.294L158.235 92.2163H226.039L230.097 169.817Z" fill="white" fill-opacity="0.46"/>
<path d="M265.265 228.758C264.682 228.728 264.134 228.471 263.739 228.041L259.727 223.631C259.549 223.431 259.413 223.198 259.326 222.945C259.239 222.692 259.203 222.424 259.219 222.157C259.235 221.89 259.304 221.629 259.421 221.388C259.538 221.148 259.702 220.933 259.902 220.755C260.307 220.397 260.837 220.215 261.377 220.247C261.644 220.264 261.905 220.332 262.145 220.45C262.386 220.567 262.601 220.73 262.778 220.931L265.204 223.57L274.359 213.378C274.739 212.957 275.271 212.705 275.837 212.676C276.404 212.648 276.959 212.845 277.379 213.226C277.8 213.606 278.053 214.138 278.081 214.705C278.11 215.271 277.912 215.826 277.532 216.247L266.852 228.102C266.654 228.324 266.409 228.499 266.134 228.612C265.859 228.726 265.562 228.776 265.265 228.758Z" fill="#00B35F"/>
<path d="M267.218 266.033C266.635 266.003 266.087 265.745 265.692 265.316L261.68 260.921C261.501 260.721 261.364 260.487 261.276 260.234C261.188 259.981 261.151 259.713 261.166 259.445C261.182 259.177 261.25 258.915 261.367 258.673C261.484 258.432 261.647 258.216 261.847 258.038C262.048 257.859 262.281 257.722 262.535 257.634C262.788 257.546 263.056 257.509 263.324 257.524C263.592 257.54 263.854 257.608 264.095 257.725C264.337 257.842 264.553 258.005 264.731 258.205L266.989 260.799L276.144 250.607C276.529 250.216 277.051 249.988 277.6 249.972C278.149 249.955 278.684 250.151 279.092 250.519C279.501 250.886 279.752 251.397 279.794 251.944C279.836 252.492 279.665 253.035 279.317 253.46L268.637 265.331C268.46 265.538 268.243 265.706 267.999 265.827C267.755 265.948 267.49 266.018 267.218 266.033Z" fill="#00B35F"/>
<path d="M269.095 301.995C268.806 301.982 268.522 301.912 268.26 301.789C267.999 301.666 267.764 301.492 267.569 301.278L263.556 296.884C263.361 296.693 263.205 296.466 263.099 296.214C262.993 295.962 262.938 295.692 262.938 295.419C262.938 295.146 262.993 294.876 263.099 294.624C263.205 294.373 263.361 294.145 263.556 293.954C263.975 293.593 264.521 293.412 265.073 293.452C265.625 293.492 266.138 293.75 266.501 294.168L268.927 296.823L278.081 286.631C278.467 286.239 278.989 286.012 279.538 285.995C280.087 285.979 280.622 286.175 281.03 286.542C281.439 286.909 281.69 287.42 281.732 287.968C281.774 288.516 281.603 289.059 281.255 289.484L270.575 301.354C270.388 301.56 270.159 301.724 269.904 301.835C269.649 301.945 269.373 302 269.095 301.995Z" fill="#00B35F"/>
<path d="M228.724 179.933H164.765C164.518 179.931 164.274 179.979 164.046 180.075C163.819 180.171 163.613 180.313 163.443 180.492C163.273 180.671 163.141 180.883 163.056 181.115C162.971 181.347 162.935 181.594 162.95 181.84C162.98 182.356 163.205 182.841 163.579 183.197C163.952 183.554 164.447 183.756 164.964 183.763H228.953C229.2 183.763 229.446 183.713 229.673 183.615C229.901 183.517 230.106 183.374 230.276 183.194C230.446 183.014 230.577 182.801 230.662 182.568C230.747 182.335 230.783 182.088 230.768 181.84C230.733 181.322 230.503 180.837 230.123 180.483C229.743 180.128 229.243 179.932 228.724 179.933Z" fill="#263238"/>
<path d="M195.478 192.643H165.406C165.159 192.64 164.914 192.689 164.687 192.785C164.459 192.881 164.254 193.023 164.084 193.202C163.914 193.381 163.782 193.593 163.697 193.825C163.612 194.057 163.576 194.304 163.591 194.55C163.625 195.064 163.851 195.547 164.224 195.903C164.596 196.259 165.089 196.462 165.605 196.473H195.677C195.925 196.475 196.171 196.427 196.4 196.329C196.628 196.232 196.834 196.089 197.005 195.909C197.175 195.728 197.307 195.514 197.391 195.28C197.475 195.047 197.509 194.798 197.492 194.55C197.461 194.036 197.236 193.553 196.862 193.199C196.488 192.845 195.993 192.646 195.478 192.643Z" fill="#263238"/>
<path d="M231.196 65.5H150.332C150.085 65.4994 149.841 65.5497 149.614 65.6477C149.387 65.7458 149.183 65.8894 149.014 66.0697C148.845 66.2501 148.715 66.4632 148.632 66.696C148.549 66.9287 148.515 67.176 148.532 67.4225C148.563 67.9366 148.788 68.4197 149.162 68.7739C149.536 69.1281 150.031 69.3268 150.546 69.3297H231.409C231.657 69.3345 231.903 69.2878 232.131 69.1924C232.36 69.097 232.566 68.9551 232.737 68.7758C232.908 68.5964 233.039 68.3834 233.123 68.1505C233.207 67.9175 233.242 67.6696 233.225 67.4225C233.19 66.9056 232.962 66.4206 232.586 66.0643C232.21 65.708 231.714 65.5065 231.196 65.5Z" fill="#263238"/>
<path d="M204.302 140.154C209.494 134.824 209.147 126.066 203.528 120.592C197.908 115.117 189.144 115 183.952 120.33C178.76 125.66 179.107 134.418 184.726 139.893C190.346 145.367 199.11 145.484 204.302 140.154Z" fill="#00B35F"/>
<path d="M221.461 169.817H170.868C170.712 166.585 171.218 163.355 172.356 160.326C173.493 157.297 175.238 154.532 177.482 152.202C179.727 149.871 182.425 148.024 185.409 146.774C188.393 145.524 191.602 144.897 194.837 144.932C201.575 145.008 208.039 147.605 212.956 152.211C217.873 156.818 220.886 163.099 221.4 169.817H221.461Z" fill="#00B35F"/>
</g>
<defs>
<clipPath id="clip0_402_2">
<rect width="667" height="614" fill="white"/>
</clipPath>
</defs>
</svg>
