<svg width="500" height="500" viewBox="0 0 500 500" fill="none" xmlns="http://www.w3.org/2000/svg">
<path d="M149.43 198.49H142.7V382.65H149.43V198.49Z" fill="white"/>
<path d="M176.04 221.87H169.31V382.65H176.04V221.87Z" fill="white"/>
<path d="M202.4 245.25H195.67V382.65H202.4V245.25Z" fill="white"/>
<path d="M228.77 229.66H222.04V382.65H228.77V229.66Z" fill="white"/>
<path d="M255.14 221.87H248.41V382.65H255.14V221.87Z" fill="white"/>
<path d="M281.5 206.28H274.77V382.65H281.5V206.28Z" fill="white"/>
<path d="M307.87 214.08H301.14V382.65H307.87V214.08Z" fill="white"/>
<path d="M334.24 206.28H327.51V382.65H334.24V206.28Z" fill="white"/>
<path d="M360.6 190.69H353.87V382.64H360.6V190.69Z" fill="white"/>
<path d="M386.97 175.11H380.24V382.65H386.97V175.11Z" fill="white"/>
<path d="M413.33 159.52H406.6V382.65H413.33V159.52Z" fill="white"/>
<path d="M199 234.3C198.625 234.285 198.269 234.132 198 233.87L141.66 178.94C141.375 178.662 141.212 178.281 141.207 177.883C141.203 177.484 141.356 177.1 141.635 176.815C141.913 176.53 142.294 176.367 142.692 176.362C143.091 176.358 143.475 176.512 143.76 176.79L199.19 230.84L277.26 173.84C277.562 173.625 277.933 173.528 278.302 173.568C278.671 173.609 279.012 173.784 279.26 174.06L304.82 203L410.62 142.38C410.791 142.282 410.98 142.219 411.176 142.194C411.372 142.169 411.571 142.183 411.761 142.235C411.951 142.287 412.13 142.376 412.286 142.497C412.441 142.618 412.572 142.769 412.67 142.94C412.768 143.111 412.831 143.3 412.856 143.496C412.881 143.692 412.867 143.891 412.815 144.081C412.763 144.271 412.674 144.45 412.553 144.606C412.432 144.762 412.281 144.892 412.11 144.99L305.25 206.23C304.95 206.4 304.6 206.461 304.26 206.405C303.92 206.349 303.609 206.177 303.38 205.92L277.92 177.12L199.92 234.01C199.654 234.205 199.33 234.307 199 234.3Z" fill="#EAEAEA"/>
<path d="M192.65 381.5L143.48 187.59L145.94 177.9H143.38V122.52H136.78V177.9H134.22L136.68 187.59L87.5 381.5H94.31L136.78 214.02V382.52H143.38V214.02L185.85 381.5H192.65Z" fill="#E0E0E0"/>
<path d="M177.129 185.663C181.958 165.2 169.285 144.696 148.822 139.866C128.358 135.037 107.854 147.71 103.025 168.173C98.1948 188.637 110.868 209.141 131.332 213.97C151.795 218.8 172.299 206.127 177.129 185.663Z" fill="#E8E8E8"/>
<path d="M140.08 209.43C158.029 209.43 172.58 194.879 172.58 176.93C172.58 158.981 158.029 144.43 140.08 144.43C122.131 144.43 107.58 158.981 107.58 176.93C107.58 194.879 122.131 209.43 140.08 209.43Z" fill="white"/>
<path d="M140.08 202.37C154.13 202.37 165.52 190.98 165.52 176.93C165.52 162.88 154.13 151.49 140.08 151.49C126.03 151.49 114.64 162.88 114.64 176.93C114.64 190.98 126.03 202.37 140.08 202.37Z" fill="#E8E8E8"/>
<path d="M148.064 196.189C158.703 191.782 163.755 179.585 159.348 168.947C154.941 158.308 142.745 153.256 132.106 157.663C121.468 162.069 116.416 174.266 120.822 184.905C125.229 195.543 137.426 200.595 148.064 196.189Z" fill="white"/>
<path d="M154.16 180.242C155.995 172.464 151.178 164.671 143.4 162.835C135.623 161 127.829 165.817 125.993 173.595C124.158 181.372 128.975 189.166 136.753 191.002C144.53 192.837 152.324 188.02 154.16 180.242Z" fill="#E8E8E8"/>
<path d="M144.061 186.525C149.363 184.329 151.88 178.251 149.684 172.95C147.488 167.648 141.411 165.131 136.109 167.327C130.808 169.523 128.29 175.6 130.486 180.902C132.682 186.203 138.76 188.721 144.061 186.525Z" fill="white"/>
<path d="M144.79 176.93C144.79 177.864 144.513 178.777 143.994 179.553C143.475 180.33 142.737 180.935 141.874 181.292C141.011 181.649 140.061 181.741 139.145 181.559C138.23 181.376 137.389 180.925 136.729 180.264C136.069 179.603 135.62 178.761 135.439 177.845C135.258 176.928 135.353 175.979 135.712 175.117C136.071 174.254 136.677 173.518 137.455 173.001C138.232 172.483 139.146 172.208 140.08 172.21C140.699 172.21 141.313 172.332 141.885 172.569C142.457 172.807 142.976 173.155 143.414 173.593C143.851 174.031 144.198 174.552 144.434 175.124C144.67 175.697 144.791 176.311 144.79 176.93Z" fill="#E8E8E8"/>
<path d="M91.22 145.53L92.25 152.41L85.09 154.82L92.25 158.58L99.39 156.07L98.14 149.29L91.22 145.53Z" fill="#E8E8E8"/>
<path d="M140.08 177.93C139.92 177.928 139.763 177.891 139.62 177.82L88.39 151.56C88.162 151.435 87.9918 151.226 87.9154 150.977C87.839 150.728 87.8626 150.46 87.981 150.228C88.0993 149.997 88.3033 149.82 88.5496 149.737C88.7958 149.653 89.065 149.669 89.3 149.78L140.53 176C140.766 176.12 140.944 176.328 141.026 176.579C141.109 176.83 141.089 177.104 140.97 177.34C140.893 177.512 140.768 177.659 140.61 177.764C140.453 177.868 140.269 177.926 140.08 177.93Z" fill="#E0E0E0"/>
<path d="M210.58 134.16C210.575 132.784 210.893 131.426 211.509 130.196C212.125 128.965 213.021 127.896 214.125 127.075C215.229 126.254 216.51 125.704 217.866 125.469C219.222 125.233 220.614 125.319 221.93 125.72C221.539 123.067 221.725 120.36 222.474 117.785C223.224 115.21 224.52 112.827 226.273 110.798C228.027 108.769 230.198 107.141 232.637 106.027C235.077 104.913 237.728 104.337 240.41 104.34C241.561 104.34 242.709 104.447 243.84 104.66C245.68 101.636 248.454 99.2916 251.744 97.9817C255.033 96.6718 258.659 96.4671 262.074 97.3983C265.49 98.3296 268.51 100.346 270.68 103.144C272.849 105.942 274.049 109.37 274.1 112.91H274.38C278.369 112.91 282.194 114.495 285.015 117.315C287.835 120.136 289.42 123.961 289.42 127.95C289.42 131.939 287.835 135.764 285.015 138.585C282.194 141.405 278.369 142.99 274.38 142.99H219.14C216.844 142.925 214.663 141.965 213.064 140.316C211.465 138.666 210.574 136.457 210.58 134.16Z" fill="#EAEAEA"/>
<path d="M367.47 129.32C367.47 128.193 367.918 127.112 368.715 126.315C369.512 125.518 370.593 125.07 371.72 125.07C372.133 125.074 372.543 125.134 372.94 125.25C372.876 124.819 372.843 124.385 372.84 123.95C372.839 122.627 373.13 121.32 373.692 120.123C374.254 118.925 375.073 117.866 376.091 117.021C377.109 116.176 378.301 115.566 379.581 115.234C380.862 114.902 382.2 114.856 383.5 115.1C384.391 113.646 385.73 112.52 387.316 111.893C388.902 111.266 390.648 111.17 392.293 111.622C393.938 112.073 395.391 113.046 396.435 114.395C397.478 115.743 398.056 117.395 398.08 119.1H398.21C400.133 119.1 401.977 119.864 403.336 121.223C404.696 122.583 405.46 124.427 405.46 126.35C405.46 128.273 404.696 130.117 403.336 131.476C401.977 132.836 400.133 133.6 398.21 133.6H371.6C370.488 133.571 369.431 133.106 368.659 132.306C367.886 131.505 367.459 130.433 367.47 129.32Z" fill="#EAEAEA"/>
<path d="M94.72 134.61C94.72 134.235 94.794 133.864 94.9379 133.517C95.0817 133.171 95.2926 132.856 95.5583 132.591C95.824 132.326 96.1393 132.117 96.4863 131.974C96.8332 131.831 97.2049 131.759 97.58 131.76C97.8578 131.759 98.1341 131.8 98.4 131.88C98.3564 131.589 98.333 131.295 98.33 131C98.3431 129.413 98.9794 127.894 100.102 126.772C101.224 125.649 102.743 125.013 104.33 125C104.706 125.002 105.081 125.038 105.45 125.11C106.044 124.127 106.941 123.364 108.008 122.937C109.074 122.51 110.25 122.442 111.358 122.744C112.466 123.046 113.446 123.701 114.148 124.61C114.85 125.519 115.237 126.632 115.25 127.78H115.34C116.595 127.837 117.779 128.375 118.647 129.283C119.515 130.191 119.999 131.399 119.999 132.655C119.999 133.911 119.515 135.119 118.647 136.027C117.779 136.935 116.595 137.473 115.34 137.53H97.5C97.1257 137.521 96.7569 137.438 96.4145 137.287C96.0722 137.135 95.7632 136.917 95.505 136.646C95.2468 136.375 95.0446 136.055 94.9099 135.706C94.7752 135.357 94.7107 134.984 94.72 134.61Z" fill="#EAEAEA"/>
<path d="M250 427.56C357.082 427.56 443.89 422.492 443.89 416.24C443.89 409.988 357.082 404.92 250 404.92C142.917 404.92 56.11 409.988 56.11 416.24C56.11 422.492 142.917 427.56 250 427.56Z" fill="white"/>
<path d="M138.38 225.56L145.24 221.64C145.24 221.64 147.88 217.57 148.67 217.38C149.46 217.19 158.16 217.38 158.16 217.38C158.16 217.38 156.85 223.02 156.71 224.13C156.57 225.24 148.27 224.13 148.27 224.13L141.55 228.13L138.38 225.56Z" fill="#EBB376"/>
<path d="M74.49 408L67.31 406.57C67.1818 406.569 67.0572 406.613 66.9571 406.693C66.857 406.773 66.7875 406.885 66.76 407.01L64.83 414.19C64.7893 414.435 64.8416 414.687 64.9766 414.896C65.1115 415.105 65.3196 415.256 65.56 415.32H65.77C68.31 415.32 70.16 415.12 73.34 415.12C75.34 415.12 81.22 415.33 83.93 415.33C86.64 415.33 87 412.65 85.93 412.41C80.93 411.32 77.21 409.82 75.62 408.41C75.312 408.13 74.906 407.983 74.49 408Z" fill="#263238"/>
<path d="M162.36 407.76H154.52C154.391 407.757 154.266 407.8 154.165 407.88C154.065 407.961 153.996 408.074 153.97 408.2L152.69 414C152.652 414.245 152.707 414.496 152.844 414.703C152.981 414.91 153.19 415.058 153.43 415.12H153.64C156.18 415.07 158.02 414.92 161.21 414.92C163.21 414.92 169.09 415.12 171.8 415.12C174.51 415.12 174.86 412.45 173.75 412.2C168.75 411.12 165.03 409.61 163.44 408.2C163.299 408.058 163.13 407.945 162.945 407.87C162.759 407.794 162.56 407.757 162.36 407.76Z" fill="#263238"/>
<path d="M88.33 275.67L121.53 267.25C129.06 283.69 156.69 351.19 163.39 407.35L152.15 410.2C152.15 410.2 132.25 327.38 115.56 303.2C115.56 303.2 114.67 339.96 112.86 345.31C111.37 349.71 77.2 408.58 77.2 408.58L66.1 407.33C66.1 407.33 94 347.25 95.64 339.76C96.8 334.66 91.72 297.2 91.72 297.2C90.83 293.86 89.49 280.03 89.49 280.03C89.49 280.03 88.49 276.36 88.33 275.67Z" fill="#00B35F"/>
<path opacity="0.2" d="M115.57 303.22C118.387 307.482 120.846 311.971 122.92 316.64C120.62 303.7 113.49 291.17 113.49 291.17L115.57 303.22Z" fill="black"/>
<path opacity="0.3" d="M88.33 275.67L121.53 267.25C129.06 283.69 156.69 351.19 163.39 407.35L152.15 410.2C152.15 410.2 132.25 327.38 115.56 303.2C115.56 303.2 114.67 339.96 112.86 345.31C111.37 349.71 77.2 408.58 77.2 408.58L66.1 407.33C66.1 407.33 94 347.25 95.64 339.76C96.8 334.66 91.72 297.2 91.72 297.2C90.83 293.86 89.49 280.03 89.49 280.03C89.49 280.03 88.49 276.36 88.33 275.67Z" fill="black"/>
<path d="M146.05 226.13C146.05 226.13 130.91 236.35 126.92 236.89C125.33 237.11 122.05 236.57 118.66 235.89C113.52 234.79 108.16 233.25 108.16 233.25L107.49 228.18L106.78 222.76C107.98 222.36 123.64 228.76 125.98 229.76C128.32 230.76 143.45 221.76 143.45 221.76L146.05 226.13Z" fill="#263238"/>
<path d="M99.23 273.33L100.21 277.17L89.49 280.03L88.49 276.05L99.23 273.33Z" fill="black"/>
<path d="M116.14 269.04L117.07 272.68L101.4 276.86L100.42 273.03L116.14 269.04Z" fill="black"/>
<path d="M123.24 271.04L118.25 272.37L117.33 268.74L121.91 267.58L123.24 271.04Z" fill="black"/>
<path d="M107.615 275.204L113.799 273.636L112.668 269.177L106.484 270.745L107.615 275.204Z" fill="white"/>
<path d="M121.9 267.57L88.4801 276.05C86.8501 271.64 85.1901 267.2 83.5701 262.87C82.3801 259.7 81.2101 256.59 80.0701 253.58C79.7834 252.807 79.4934 252.047 79.2001 251.3L78.2001 248.64C77.4601 246.693 76.7467 244.817 76.0601 243.01L74.2201 238.2L73.3501 235.92L71.7001 231.62L106.79 222.72C118.36 242.91 121.9 267.57 121.9 267.57Z" fill="#263238"/>
<path d="M84.4401 230.76C88.0501 232.49 94.7101 229.44 94.7101 229.44C94.7101 229.44 96.9201 227 95.6001 225.92C92.9201 226.27 93.0901 225.39 92.1201 224.02C91.5654 223.155 91.185 222.191 91.0001 221.18C90.8801 220.622 90.79 220.058 90.7301 219.49L80.2001 215.71C82.5901 219.57 86.3001 226.88 84.4401 230.76Z" fill="#EBB376"/>
<path opacity="0.2" d="M83.4 219.16C85.3 224.21 89.96 224.36 92.12 224.02C91.5654 223.155 91.1849 222.191 91 221.18L83.4 219.16Z" fill="black"/>
<path d="M97.12 200C97.12 200 99.87 208.3 95.9 212.35C91.93 216.4 89.24 200.53 89.24 200.53L97.12 200Z" fill="#263238"/>
<path d="M83.92 221.39C85.1079 222.63 86.6695 223.446 88.3655 223.713C90.0615 223.98 91.7983 223.684 93.31 222.87C95.2919 221.846 96.8083 220.104 97.55 218C97.65 217.72 97.74 217.42 97.82 217.12C99.16 211.53 98.32 202.3 92.23 199.82C90.8877 199.267 89.4262 199.066 87.9844 199.237C86.5427 199.408 85.1686 199.945 83.993 200.797C82.8173 201.649 81.8792 202.787 81.2678 204.104C80.6564 205.421 80.3921 206.872 80.5 208.32C80.86 214.55 80.78 218.21 83.92 221.39Z" fill="#EBB376"/>
<path d="M89.9301 210.09C89.9301 210.59 90.1901 211 90.5301 211C90.8701 211 91.1201 210.59 91.1301 210.09C91.1401 209.59 90.8601 209.17 90.5301 209.17C90.2001 209.17 89.9301 209.58 89.9301 210.09Z" fill="#263238"/>
<path d="M95.65 210.09C95.65 210.6 95.92 211.01 96.25 211.01C96.58 211.01 96.84 210.59 96.85 210.09C96.86 209.59 96.57 209.18 96.25 209.18C95.93 209.18 95.65 209.61 95.65 210.09Z" fill="#263238"/>
<path d="M93.8301 210.34C94.4279 211.888 95.2391 213.346 96.2401 214.67C95.8929 214.919 95.4952 215.088 95.0752 215.166C94.6552 215.244 94.2233 215.228 93.8101 215.12L93.8301 210.34Z" fill="#D58745"/>
<path d="M97.74 207.75C97.692 207.775 97.6389 207.787 97.585 207.787C97.5311 207.787 97.478 207.775 97.43 207.75C97.1343 207.523 96.7892 207.368 96.4227 207.299C96.0562 207.229 95.6785 207.247 95.32 207.35C95.2471 207.378 95.1661 207.376 95.0948 207.344C95.0235 207.312 94.9679 207.253 94.94 207.18C94.9122 207.107 94.9144 207.026 94.9463 206.955C94.9782 206.884 95.0371 206.828 95.11 206.8C95.5585 206.658 96.0345 206.627 96.4976 206.709C96.9608 206.791 97.3973 206.983 97.77 207.27C97.8028 207.291 97.8309 207.319 97.8528 207.351C97.8746 207.383 97.8897 207.42 97.8972 207.458C97.9047 207.496 97.9043 207.536 97.8962 207.574C97.8881 207.612 97.8724 207.648 97.85 207.68C97.8164 207.708 97.7795 207.731 97.74 207.75Z" fill="#263238"/>
<path d="M88.8001 207.82C88.7429 207.812 88.6882 207.792 88.6401 207.76C88.5851 207.704 88.5543 207.629 88.5543 207.55C88.5543 207.472 88.5851 207.396 88.6401 207.34C88.9896 207.02 89.4113 206.789 89.8692 206.667C90.3271 206.546 90.8077 206.536 91.2701 206.64C91.3431 206.663 91.4044 206.713 91.4416 206.78C91.4788 206.847 91.489 206.926 91.4701 207C91.4468 207.076 91.3956 207.139 91.3268 207.179C91.258 207.218 91.1769 207.229 91.1001 207.21C90.7353 207.137 90.3584 207.151 90.0002 207.252C89.6421 207.353 89.313 207.537 89.0401 207.79C89.0043 207.811 88.9646 207.825 88.9232 207.83C88.8819 207.835 88.84 207.832 88.8001 207.82Z" fill="#263238"/>
<path d="M85.06 200.6L85.66 201.75C83.66 202.52 84.16 204.88 84.66 205.93C85.66 208.19 84.51 211.82 82.82 213.33C82.82 213.33 82.71 212.33 81.88 212.61C81.05 212.89 81.53 218.07 83.29 220.47C83.29 220.47 80.7 218.34 79.04 212.96C77.51 207.96 77.15 203.79 78.1 201.79L85.06 200.6Z" fill="#263238"/>
<path d="M77.7801 213.44C78.1202 214.138 78.5948 214.763 79.1764 215.277C79.7581 215.792 80.4356 216.187 81.1701 216.44C83.1701 217.1 84.1701 215.37 83.7701 213.44C83.3501 211.75 81.84 209.3 79.7701 209.49C79.3336 209.539 78.9161 209.696 78.5555 209.946C78.195 210.197 77.9026 210.534 77.705 210.926C77.5074 211.318 77.4108 211.754 77.4239 212.193C77.437 212.631 77.5594 213.06 77.7801 213.44Z" fill="#EBB376"/>
<path d="M85 223.89C87.94 225.95 93.67 226.62 96.48 222.89C99.29 219.16 98.39 213.17 98.39 213.17C98.0672 214.508 97.4525 215.758 96.59 216.83C95 214.91 92.3 216 92.3 216C91.731 215.26 90.9146 214.748 90 214.56C88.69 214.43 85 214.65 85 214.65C83.82 213.9 83.77 210.56 83.77 210.56L83.05 211.16C83.05 211.16 82.05 221.82 85 223.89Z" fill="#263238"/>
<path d="M92.86 202.72C92.86 202.72 99.86 199.32 99.03 195.92C98.2 192.52 96.16 196.4 96.16 196.4C96.16 196.4 97.1 193.82 95.26 193.4C93.42 192.98 94 194.63 93 195.62C92 196.61 82.3 195.17 79.17 197.11C76.04 199.05 78.43 205.76 78.43 205.76C80.2786 203.904 82.6285 202.628 85.1917 202.088C87.7548 201.548 90.4199 201.768 92.86 202.72Z" fill="#263238"/>
<path opacity="0.2" d="M85 223.89C87.94 225.95 93.67 226.62 96.48 222.89C99.29 219.16 98.39 213.17 98.39 213.17C98.0672 214.508 97.4525 215.758 96.59 216.83C95 214.91 92.3 216 92.3 216C91.731 215.26 90.9146 214.748 90 214.56C88.69 214.43 85 214.65 85 214.65C83.82 213.9 83.77 210.56 83.77 210.56L83.05 211.16C83.05 211.16 82.05 221.82 85 223.89Z" fill="white"/>
<path d="M92.6 217.9C92.0618 218.62 91.5772 219.379 91.15 220.17L90.7 220C88.7 219.27 87.98 218.27 87.82 217.37C87.7552 216.934 87.7929 216.489 87.93 216.07C88.0028 215.827 88.107 215.596 88.24 215.38C89.2918 216.384 90.5467 217.151 91.92 217.63C92.33 217.81 92.6 217.9 92.6 217.9Z" fill="#263238"/>
<path d="M91.9201 217.64L91.4701 218.3C89.5701 217.61 88.3201 216.87 87.9301 216.08C88.0029 215.838 88.1071 215.606 88.2401 215.39C89.2919 216.394 90.5468 217.161 91.9201 217.64Z" fill="white"/>
<path d="M90.7001 220C88.7001 219.27 87.9801 218.27 87.8201 217.37C88.5838 217.667 89.2908 218.093 89.9101 218.63C90.3109 218.992 90.5873 219.472 90.7001 220Z" fill="#DE5753"/>
<path d="M96.03 229.45L95.44 234.63L106.24 257.64L105.17 260.69L101.64 259.06L93.94 235.59L88.28 231.76L92.4 229.5L96.03 229.45Z" fill="#00B35F"/>
<path d="M84.68 225.91L91.83 228.86L92.12 224.02L97.39 225.32L97.84 232.69L92.77 230.62L90.65 235.34L81.64 229.32L84.68 225.91Z" fill="#263238"/>
<path opacity="0.2" d="M84.68 225.91L91.83 228.86L92.12 224.02L97.39 225.32L97.84 232.69L92.77 230.62L90.65 235.34L81.64 229.32L84.68 225.91Z" fill="white"/>
<path opacity="0.2" d="M78.19 248.64C77.45 246.693 76.7366 244.817 76.05 243.01L74.21 238.2L73.34 235.92C74.34 235.43 76.89 235.72 77.6 236.92C80.2 241.46 78.19 248.64 78.19 248.64Z" fill="black"/>
<path opacity="0.2" d="M90.7201 253.72C90.2929 255.685 89.4282 257.528 88.1903 259.112C86.9524 260.696 85.3731 261.981 83.5701 262.87C82.3801 259.7 81.2101 256.59 80.0701 253.58C79.7834 252.807 79.4934 252.047 79.2001 251.3L78.2001 248.64L89.7801 250.11L90.7201 253.72Z" fill="black"/>
<path opacity="0.2" d="M118.66 235.85C113.52 234.75 108.16 233.21 108.16 233.21L107.49 228.14C107.49 228.14 116.94 229.15 118.66 235.85Z" fill="black"/>
<path d="M71.69 354C71.3765 354.01 71.0676 353.922 70.8068 353.748C70.546 353.574 70.3463 353.322 70.236 353.029C70.1256 352.735 70.11 352.414 70.1915 352.111C70.2729 351.808 70.4473 351.539 70.69 351.34C87.38 337.64 87.06 316.17 86.75 295.4C86.51 279.74 86.29 264.94 93.66 254.88C104 240.74 145.59 218.31 152.48 217.67C157.41 217.18 307.78 175.39 386.61 153.36C386.993 153.253 387.403 153.302 387.75 153.497C388.097 153.692 388.353 154.017 388.46 154.4C388.567 154.783 388.518 155.193 388.323 155.54C388.128 155.887 387.803 156.143 387.42 156.25C378.09 158.86 158.94 220.09 152.76 220.66C146.83 221.21 105.66 243.55 96.08 256.66C89.31 265.91 89.52 280.22 89.75 295.36C90.05 315.84 90.4 339.06 72.59 353.67C72.3349 353.877 72.0183 353.993 71.69 354Z" fill="#263238"/>
<path opacity="0.4" d="M387.47 156.24L366.91 162C310.36 177.78 157.91 220.2 152.81 220.67C146.88 221.22 105.71 243.56 96.13 256.67C89.36 265.92 89.57 280.23 89.8 295.37C90.1 315.85 90.45 339.07 72.64 353.68C72.3598 353.912 72.0038 354.034 71.64 354.02C71.3265 354.03 71.0176 353.942 70.7568 353.768C70.4959 353.594 70.2963 353.342 70.1859 353.049C70.0755 352.755 70.06 352.434 70.1414 352.131C70.2229 351.828 70.3972 351.559 70.64 351.36C87.33 337.66 87.01 316.19 86.7 295.42C86.46 279.76 86.24 264.96 93.61 254.9C103.95 240.76 145.54 218.33 152.43 217.69C157.07 217.23 290.29 180.25 371.71 157.53L386.56 153.38C386.943 153.273 387.353 153.322 387.7 153.517C388.047 153.712 388.303 154.037 388.41 154.42C388.517 154.803 388.468 155.213 388.273 155.56C388.078 155.907 387.753 156.163 387.37 156.27L387.47 156.24Z" fill="white"/>
<path opacity="0.2" d="M387.47 156.24L366.91 162C368.351 160.309 369.997 158.804 371.81 157.52L386.66 153.37C387.043 153.263 387.453 153.312 387.8 153.507C388.147 153.702 388.403 154.027 388.51 154.41C388.617 154.793 388.568 155.203 388.373 155.55C388.178 155.897 387.853 156.153 387.47 156.26V156.24Z" fill="black"/>
<path d="M81.91 250.8L89.77 250.11C89.77 250.11 93.88 247.51 94.67 247.68C95.46 247.85 103.29 251.68 103.29 251.68C103.29 251.68 99.74 256.25 99.15 257.2C98.56 258.15 91.49 253.67 91.49 253.67L83.7 254.5L81.91 250.8Z" fill="#EBB376"/>
<path d="M71.69 231.62C68.12 234.17 58.82 254.96 59.81 258.17C60.8 261.38 89.74 255.05 89.74 255.05L88.46 249.64H72.89L76.59 243.8C76.59 243.8 78.87 241.58 77.47 236.42C76.46 232.7 71.69 231.62 71.69 231.62Z" fill="#263238"/>
<path d="M373.21 233.71L367.28 230.9C367.28 230.9 364.28 225.16 363.4 224.24C362.52 223.32 358.27 226.89 358.27 227.51C358.27 228.13 361.35 233.93 362.15 234.28C363.34 234.455 364.55 234.455 365.74 234.28L371.38 237.01L373.21 233.71Z" fill="#9F5B53"/>
<path d="M387.05 198.14L388.24 193.89C388.24 193.89 390.12 188.35 389.92 187.07C389.552 185.555 389.078 184.068 388.5 182.62C388.5 182.62 383.3 188.95 383.3 189.74C383.3 190.53 385.36 193.4 385.36 193.4L384.36 198.14H387.05Z" fill="#9F5B53"/>
<path d="M391.62 229.8C391.62 229.8 387.14 224.23 385.82 219.05C384.5 213.87 388.49 197.05 388.49 197.05L384.28 195.93C384.28 195.93 379.28 213.14 379.11 219.42C378.94 225.7 388.28 244.13 388.28 244.13L391.62 229.8Z" fill="#00B35F"/>
<path opacity="0.2" d="M388.91 241.36L388.27 244.09C388.27 244.09 385.05 237.74 382.42 231.22C385.157 233.186 387.221 235.948 388.33 239.13C388.584 239.856 388.778 240.602 388.91 241.36Z" fill="black"/>
<path d="M415.34 242C415.284 243.162 415.143 244.318 414.92 245.46C414.46 247.96 413.68 250.91 412.79 254.16C412.31 255.87 411.79 257.7 411.33 259.63C409.1 268.3 407.89 271.75 406.24 282.82L374.59 275.31C376.301 265.834 378.909 256.542 382.38 247.56C383.3 245.17 384.38 242.78 385.47 240.42C387.218 236.72 389.275 233.174 391.62 229.82C391.62 229.82 396.74 234.5 412.82 237.31C414.77 237.61 415.44 239.31 415.34 242Z" fill="#00B35F"/>
<path opacity="0.2" d="M411.36 238.39C411.36 239.39 415.15 244.15 414.92 245.39C414.49 245.68 413.98 246 413.4 246.39C402.69 252.62 388.64 249.46 382.4 247.53C383.32 245.14 385.4 240.75 386.48 238.39L393.99 240.06C393.99 240.06 406.27 237.26 411.36 238.39Z" fill="black"/>
<path d="M398.49 231.71C399.64 231.27 409.08 233.62 408.38 233.82C407.68 234.02 404.16 244.82 399.23 244.01C394.3 243.2 394.39 233.27 398.49 231.71Z" fill="#00B35F"/>
<path d="M355.75 408.66L349.81 409.95L346.34 396.29L352.29 395L355.75 408.66Z" fill="#9F5B53"/>
<path d="M348.33 407.47H355.72C355.841 407.47 355.957 407.512 356.05 407.589C356.143 407.665 356.207 407.772 356.23 407.89L357.43 413.3C357.456 413.416 357.459 413.535 357.439 413.652C357.418 413.769 357.375 413.881 357.31 413.98C357.246 414.08 357.162 414.166 357.065 414.233C356.967 414.3 356.856 414.346 356.74 414.37H356.54C354.15 414.37 352.41 414.18 349.41 414.18C347.56 414.18 341.98 414.37 339.41 414.37C336.84 414.37 336.53 411.85 337.57 411.62C342.26 410.62 345.79 409.18 347.29 407.84C347.43 407.713 347.594 407.614 347.773 407.551C347.951 407.487 348.141 407.46 348.33 407.47Z" fill="#263238"/>
<path d="M346.32 408.54C345.906 408.571 345.494 408.462 345.15 408.23C345.038 408.138 344.951 408.019 344.899 407.884C344.846 407.749 344.829 407.603 344.85 407.46C344.845 407.376 344.866 407.292 344.908 407.219C344.951 407.146 345.014 407.087 345.09 407.05C345.77 406.7 347.73 407.91 347.95 408.05C347.975 408.063 347.996 408.083 348.009 408.108C348.021 408.134 348.025 408.162 348.02 408.19C348.017 408.219 348.004 408.246 347.984 408.268C347.965 408.289 347.939 408.304 347.91 408.31C347.39 408.446 346.857 408.523 346.32 408.54ZM345.41 407.28C345.352 407.26 345.288 407.26 345.23 407.28C345.23 407.28 345.14 407.33 345.13 407.45C345.12 407.545 345.132 407.641 345.167 407.73C345.202 407.818 345.258 407.897 345.33 407.96C346.01 408.271 346.782 408.31 347.49 408.07C346.854 407.675 346.148 407.406 345.41 407.28Z" fill="#00B35F"/>
<path d="M347.87 408.32H347.8C347.18 407.98 345.96 406.64 346.08 406C346.103 405.892 346.162 405.796 346.248 405.727C346.333 405.658 346.44 405.62 346.55 405.62C346.659 405.605 346.771 405.615 346.876 405.648C346.981 405.681 347.078 405.736 347.16 405.81C347.86 406.38 348.01 408.13 348.02 408.21C348.022 408.236 348.016 408.262 348.004 408.285C347.991 408.308 347.973 408.327 347.95 408.34C347.936 408.344 347.921 408.345 347.907 408.341C347.893 408.338 347.88 408.33 347.87 408.32ZM346.65 405.85H346.58C346.39 405.85 346.38 405.96 346.37 406C346.29 406.4 347.07 407.41 347.69 407.88C347.656 407.198 347.415 406.542 347 406C346.955 405.952 346.901 405.915 346.841 405.889C346.78 405.863 346.716 405.85 346.65 405.85Z" fill="#00B35F"/>
<path d="M406.5 283.65C406.5 283.65 401.37 308.11 389.37 314.65C387.993 315.425 386.484 315.937 384.92 316.16C384.92 316.16 372.75 321.16 362.23 325.89C355.83 328.78 350.04 331.6 347.97 333.18C342.49 337.35 355.91 402.45 355.91 402.45L346.79 402.55C346.79 402.55 327.6 344.91 330.79 329.78C333.98 314.65 368.42 291.49 368.42 291.49L373.72 276.91L406.5 283.65Z" fill="#263238"/>
<path opacity="0.2" d="M389.37 314.68C387.993 315.454 386.484 315.967 384.92 316.19C384.92 316.19 372.75 321.19 362.23 325.92C369 313.47 381.07 305.38 381.07 305.38L389.37 314.68Z" fill="black"/>
<path d="M432.21 408.66L426.27 409.95L422.8 396.29L428.75 395L432.21 408.66Z" fill="#9F5B53"/>
<path d="M424.79 407.47H432.18C432.301 407.47 432.417 407.512 432.51 407.589C432.603 407.665 432.667 407.772 432.69 407.89L433.89 413.3C433.916 413.416 433.919 413.535 433.899 413.652C433.878 413.769 433.835 413.881 433.77 413.98C433.706 414.08 433.622 414.166 433.524 414.233C433.427 414.3 433.316 414.346 433.2 414.37H433C430.61 414.37 428.87 414.18 425.87 414.18C424.02 414.18 418.44 414.37 415.87 414.37C413.3 414.37 412.99 411.85 414.03 411.62C418.72 410.62 422.25 409.18 423.75 407.84C423.89 407.713 424.054 407.614 424.233 407.551C424.411 407.487 424.601 407.46 424.79 407.47Z" fill="#263238"/>
<path d="M422.78 408.54C422.366 408.571 421.954 408.462 421.61 408.23C421.498 408.138 421.411 408.019 421.359 407.884C421.306 407.749 421.289 407.603 421.31 407.46C421.305 407.376 421.326 407.292 421.368 407.219C421.411 407.146 421.474 407.087 421.55 407.05C422.23 406.7 424.19 407.91 424.41 408.05C424.435 408.063 424.456 408.083 424.469 408.108C424.481 408.134 424.485 408.162 424.48 408.19C424.477 408.219 424.464 408.246 424.444 408.268C424.425 408.289 424.399 408.304 424.37 408.31C423.85 408.446 423.317 408.523 422.78 408.54ZM421.87 407.28C421.812 407.26 421.748 407.26 421.69 407.28C421.69 407.28 421.6 407.33 421.59 407.45C421.58 407.545 421.592 407.641 421.627 407.73C421.662 407.818 421.718 407.897 421.79 407.96C422.47 408.271 423.242 408.31 423.95 408.07C423.314 407.675 422.608 407.406 421.87 407.28Z" fill="#00B35F"/>
<path d="M424.33 408.32H424.26C423.64 407.98 422.42 406.64 422.54 406C422.563 405.892 422.622 405.796 422.708 405.727C422.793 405.658 422.9 405.62 423.01 405.62C423.119 405.605 423.231 405.615 423.336 405.648C423.441 405.681 423.538 405.736 423.62 405.81C424.32 406.38 424.47 408.13 424.48 408.21C424.482 408.236 424.476 408.262 424.464 408.285C424.451 408.308 424.433 408.327 424.41 408.34C424.396 408.344 424.381 408.345 424.367 408.341C424.353 408.338 424.34 408.33 424.33 408.32ZM423.11 405.85H423C422.81 405.85 422.8 405.96 422.79 406C422.71 406.4 423.49 407.41 424.11 407.88C424.071 407.188 423.82 406.524 423.39 405.98C423.314 405.907 423.215 405.861 423.11 405.85Z" fill="#00B35F"/>
<path d="M408.55 236.89C407.06 237.89 400.19 237.51 400.19 237.51L397 241L396.69 235.23C396.69 235.23 394.54 234.34 395.13 233.72C395.878 233.776 396.629 233.681 397.34 233.443C398.051 233.204 398.707 232.826 399.27 232.33C400.66 230.97 400.93 228.78 400.91 226.61C400.91 226.61 400.91 226.55 400.91 226.53L406.78 223.53L410.84 221.44C408.93 225.56 406.2 233.29 408.55 236.89Z" fill="#9F5B53"/>
<path opacity="0.2" d="M408.72 224.9C406.78 229.81 401.72 232 399.23 232.32C400.62 230.96 400.89 228.77 400.87 226.6C400.875 226.57 400.875 226.54 400.87 226.51L406.74 223.51C406.75 224.31 409 224.15 408.72 224.9Z" fill="black"/>
<path d="M412.45 224.7C412.45 224.7 416.26 226.7 417.53 224.31C418.8 221.92 416.99 221.78 418.86 220.92C420.73 220.06 423.39 219.46 422.78 217.65C422.17 215.84 420.28 215.65 422.38 213.65C424.48 211.65 424.94 208.83 421.8 208.28C418.66 207.73 419.86 205.28 419.7 204.28C419.54 203.28 417.78 202.58 415.87 202.98C413.96 203.38 413.16 200.55 411.98 199.67C410.8 198.79 409.17 199.87 408.74 201.06C408.31 202.25 407.18 200.67 405.5 200.47C403.82 200.27 404.21 202.04 403.69 203.69C403.17 205.34 402.14 204.27 400.94 205.63C399.74 206.99 399.63 216.27 412.45 224.7Z" fill="#263238"/>
<path d="M414.11 219C411.24 223.5 409.61 226.47 406.39 227.93C405.957 228.13 405.509 228.297 405.05 228.43C398.79 230.27 393.63 224.24 395.28 218.27C395.594 217.192 395.995 216.142 396.48 215.13C398.72 210.44 403.03 205.64 408.18 206.27C409.255 206.393 410.296 206.727 411.242 207.252C412.188 207.778 413.022 208.485 413.694 209.333C414.367 210.181 414.865 211.154 415.161 212.195C415.458 213.236 415.545 214.325 415.42 215.4C415.269 216.685 414.82 217.918 414.11 219Z" fill="#9F5B53"/>
<path d="M405.3 216C405.09 216.45 404.64 216.65 404.36 216.5C404.08 216.35 404.05 215.86 404.28 215.44C404.51 215.02 404.95 214.79 405.22 214.94C405.49 215.09 405.54 215.59 405.3 216Z" fill="#263238"/>
<path d="M400.45 213.33C400.388 213.518 400.255 213.674 400.079 213.766C399.904 213.857 399.7 213.877 399.51 213.82C399.24 213.66 399.2 213.19 399.44 212.76C399.68 212.33 400.1 212.11 400.38 212.27C400.66 212.43 400.68 212.92 400.45 213.33Z" fill="#263238"/>
<path d="M401.88 214.4C400.637 215.422 399.261 216.269 397.79 216.92C397.966 217.294 398.222 217.625 398.54 217.89C398.858 218.154 399.23 218.346 399.63 218.45L401.88 214.4Z" fill="#892B29"/>
<path d="M408.2 214.88C408.148 214.888 408.094 214.882 408.045 214.863C407.996 214.843 407.953 214.811 407.92 214.77C407.717 214.471 407.447 214.225 407.13 214.051C406.814 213.877 406.461 213.781 406.1 213.77C406.058 213.778 406.015 213.776 405.974 213.766C405.932 213.755 405.894 213.736 405.861 213.708C405.828 213.681 405.802 213.647 405.784 213.608C405.766 213.57 405.756 213.528 405.756 213.485C405.756 213.442 405.766 213.4 405.784 213.362C405.802 213.323 405.828 213.289 405.861 213.262C405.894 213.235 405.932 213.215 405.974 213.204C406.015 213.194 406.058 213.192 406.1 213.2C406.556 213.203 407.004 213.317 407.406 213.531C407.809 213.745 408.153 214.054 408.41 214.43C408.434 214.459 408.451 214.493 408.461 214.529C408.472 214.565 408.475 214.603 408.47 214.641C408.465 214.678 408.453 214.714 408.434 214.747C408.415 214.779 408.39 214.808 408.36 214.83C408.311 214.859 408.257 214.877 408.2 214.88Z" fill="#263238"/>
<path d="M400.8 221.13C401.472 221.348 402.186 221.401 402.882 221.285C403.578 221.168 404.236 220.885 404.8 220.46C404.825 220.431 404.839 220.394 404.839 220.355C404.839 220.316 404.825 220.279 404.8 220.25C404.772 220.223 404.734 220.207 404.695 220.207C404.656 220.207 404.618 220.223 404.59 220.25C404.056 220.634 403.44 220.888 402.791 220.992C402.142 221.096 401.477 221.048 400.85 220.85C400.832 220.842 400.813 220.838 400.794 220.839C400.775 220.839 400.756 220.844 400.739 220.852C400.722 220.861 400.706 220.873 400.695 220.888C400.683 220.904 400.674 220.921 400.67 220.94C400.662 220.958 400.658 220.977 400.659 220.996C400.659 221.015 400.664 221.034 400.672 221.051C400.681 221.069 400.693 221.084 400.708 221.096C400.724 221.107 400.741 221.116 400.76 221.12L400.8 221.13Z" fill="#263238"/>
<path d="M400 209.18C399.985 209.124 399.985 209.066 400 209.01C400.033 208.942 400.091 208.889 400.162 208.863C400.233 208.837 400.311 208.839 400.38 208.87C400.8 209.058 401.168 209.344 401.453 209.704C401.739 210.065 401.933 210.489 402.02 210.94C402.029 211.015 402.007 211.091 401.96 211.151C401.914 211.211 401.845 211.25 401.77 211.26C401.695 211.269 401.619 211.247 401.559 211.2C401.499 211.154 401.46 211.085 401.45 211.01C401.371 210.657 401.211 210.328 400.982 210.048C400.752 209.768 400.461 209.546 400.13 209.4C400.094 209.374 400.064 209.341 400.042 209.304C400.02 209.266 400.005 209.224 400 209.18Z" fill="#263238"/>
<path d="M404.12 206.69C405.58 206.87 406.3 208.69 406.3 208.69C408.065 209.335 409.772 210.131 411.4 211.07C411.897 211.475 412.27 212.011 412.479 212.617C412.687 213.223 412.722 213.875 412.58 214.5C412.53 214.98 411.35 215.42 411.35 215.42C411.35 215.42 409.19 220.52 408.6 221.93L408.9 226.64C412.869 224.13 416.048 220.549 418.07 216.31C421.48 209.21 407.25 202.96 407.25 202.96L404.12 206.69Z" fill="#263238"/>
<path d="M413.25 226.12C411.92 226.848 410.357 227.021 408.9 226.6C406.97 226.02 407.08 224.04 408.51 222.77C409.79 221.67 412.36 220.58 413.85 221.86C414.176 222.139 414.427 222.495 414.579 222.896C414.731 223.297 414.779 223.73 414.719 224.155C414.659 224.579 414.493 224.982 414.236 225.326C413.98 225.669 413.64 225.942 413.25 226.12Z" fill="#9F5B53"/>
<path d="M408.38 233.82L400.43 236.11L397 240.76L397.93 235.07C397.93 235.07 397.08 233.76 398.49 231.71L393.65 232.71L390.73 237.59L396.41 236.26L396.8 241.93L400.11 238.03L402.82 242.31L410.88 237.2L408.38 233.82Z" fill="#00B35F"/>
<path opacity="0.2" d="M408.38 233.82L400.43 236.11L397 240.76L397.93 235.07C397.93 235.07 397.08 233.76 398.49 231.71L393.65 232.71L390.73 237.59L396.41 236.26L396.8 241.93L400.11 238.03L402.82 242.31L410.88 237.2L408.38 233.82Z" fill="black"/>
<path d="M375.01 272L373.77 276.94L406.49 283.65L406.98 278.16L375.01 272Z" fill="black"/>
<path d="M389.62 274.59C389.36 274.22 382.08 272.65 381.39 273.17C381.39 273.17 379.98 278.04 380.22 278.55C380.46 279.06 387.54 280.05 388.22 280.19C388.9 280.33 389.88 275 389.62 274.59ZM387.62 279.59C387.08 279.48 381.26 278.67 381.06 278.25C380.86 277.83 382.06 273.83 382.06 273.83C382.63 273.4 388.61 274.69 388.82 274.99C389.03 275.29 388.16 279.65 387.62 279.54V279.59Z" fill="white"/>
<path d="M387.9 276.25L386.45 275.95C386.318 275.925 386.181 275.95 386.067 276.02C385.952 276.09 385.868 276.201 385.83 276.33C385.809 276.402 385.804 276.478 385.814 276.553C385.824 276.627 385.85 276.699 385.89 276.763C385.929 276.827 385.982 276.882 386.044 276.925C386.106 276.967 386.176 276.996 386.25 277.01L387.7 277.29C387.841 277.318 387.987 277.289 388.106 277.209C388.225 277.129 388.307 277.006 388.335 276.865C388.363 276.724 388.334 276.579 388.254 276.459C388.174 276.34 388.051 276.258 387.91 276.23L387.9 276.25Z" fill="white"/>
<path d="M406.49 283.65C406.49 283.65 407.12 320.65 406.08 331.45C405.04 342.25 432 401.36 432 401.36H423.27C423.27 401.36 396.82 358.08 390.76 344.76C384.7 331.44 380.22 299.66 380.22 299.66L406.49 283.65Z" fill="#263238"/>
<path d="M415.45 239.4C414.1 236.34 393.37 240.87 391.5 240.34C389.63 239.81 370.17 231.66 370.17 231.66L368.48 236C368.48 236 385.93 246 389.75 247.58C393.57 249.16 408.84 248.4 412.75 246.71C413.419 246.422 414.023 246 414.524 245.471C415.025 244.942 415.414 244.317 415.667 243.634C415.919 242.95 416.03 242.222 415.993 241.495C415.956 240.767 415.771 240.054 415.45 239.4Z" fill="#00B35F"/>
<path d="M411.78 159.93L405.5 119.93L372.42 143.32L383.42 147.98C372.8 172.32 338.35 243.63 279.07 296.21C203.38 363.36 97.44 396.4 96.38 396.72L102.24 415.85C106.74 414.47 213.32 381.27 292.38 311.14C355.38 255.26 390.8 181.56 401.92 155.76L411.78 159.93Z" fill="#00B35F"/>
<path opacity="0.4" d="M405.78 152.93L405.5 119.93L372.42 143.32L383.42 147.98C372.8 172.32 338.35 243.63 279.07 296.21C203.38 363.36 97.44 396.4 96.38 396.72L98.24 408.85C102.74 407.47 209.32 377.27 288.38 307.14C351.38 251.26 384.8 176.56 395.92 150.76L405.78 152.93Z" fill="white"/>
<path d="M400 161.62C399.844 161.621 399.689 161.598 399.54 161.55L380.33 155.34C380.132 155.289 379.947 155.198 379.785 155.072C379.624 154.947 379.49 154.79 379.392 154.61C379.293 154.431 379.232 154.234 379.213 154.03C379.193 153.827 379.216 153.622 379.279 153.427C379.341 153.233 379.443 153.053 379.578 152.899C379.713 152.746 379.877 152.621 380.062 152.533C380.247 152.445 380.447 152.396 380.652 152.389C380.856 152.382 381.059 152.416 381.25 152.49L400.46 158.69C400.802 158.798 401.094 159.026 401.283 159.331C401.471 159.636 401.545 159.998 401.489 160.353C401.433 160.707 401.253 161.03 400.979 161.262C400.706 161.495 400.359 161.622 400 161.62Z" fill="#263238"/>
<path opacity="0.4" d="M400 161.62C399.844 161.621 399.689 161.598 399.54 161.55L380.33 155.34C380.132 155.289 379.947 155.198 379.785 155.072C379.624 154.947 379.49 154.79 379.392 154.61C379.293 154.431 379.232 154.234 379.213 154.03C379.193 153.827 379.216 153.622 379.279 153.427C379.341 153.233 379.443 153.053 379.578 152.899C379.713 152.746 379.877 152.621 380.062 152.533C380.247 152.445 380.447 152.396 380.652 152.389C380.856 152.382 381.059 152.416 381.25 152.49L400.46 158.69C400.802 158.798 401.094 159.026 401.283 159.331C401.471 159.636 401.545 159.998 401.489 160.353C401.433 160.707 401.253 161.03 400.979 161.262C400.706 161.495 400.359 161.622 400 161.62Z" fill="white"/>
<path d="M169.93 348.82C169.532 348.82 169.151 348.662 168.869 348.381C168.588 348.099 168.43 347.718 168.43 347.32C168.43 299.58 182.3 293.32 184.9 292.55L229 261.7L229.1 261.64L398.52 161.18C398.862 160.985 399.266 160.933 399.646 161.033C400.027 161.134 400.352 161.38 400.553 161.718C400.753 162.056 400.813 162.46 400.719 162.842C400.625 163.224 400.385 163.554 400.05 163.76L230.71 264.19L186.4 295.19C186.211 295.321 185.996 295.41 185.77 295.45C185.66 295.45 171.43 298.95 171.43 347.35C171.422 347.743 171.261 348.117 170.98 348.391C170.7 348.666 170.323 348.82 169.93 348.82Z" fill="#263238"/>
<path opacity="0.4" d="M169.93 348.82C169.532 348.82 169.151 348.662 168.869 348.381C168.588 348.099 168.43 347.718 168.43 347.32C168.43 299.58 182.3 293.32 184.9 292.55L229 261.7L229.1 261.64L398.52 161.18C398.862 160.985 399.266 160.933 399.646 161.033C400.027 161.134 400.352 161.38 400.553 161.718C400.753 162.056 400.813 162.46 400.719 162.842C400.625 163.224 400.385 163.554 400.05 163.76L230.71 264.19L186.4 295.19C186.211 295.321 185.996 295.41 185.77 295.45C185.66 295.45 171.43 298.95 171.43 347.35C171.422 347.743 171.261 348.117 170.98 348.391C170.7 348.666 170.323 348.82 169.93 348.82Z" fill="white"/>
<path d="M181.45 299.28C181.45 299.28 173.74 304.28 167.88 305.79C166.434 306.279 164.882 306.365 163.39 306.04C159.03 304.66 161.62 296.22 164.22 290.89C164.64 290.02 165.06 289.24 165.45 288.58L173.07 293.29C173.07 293.29 168.45 299.88 168.98 300.29C169.51 300.7 176.63 296.73 176.98 296.6C177.33 296.47 181.45 299.28 181.45 299.28Z" fill="#00B35F"/>
<path opacity="0.2" d="M181.45 299.28C181.45 299.28 173.74 304.28 167.88 305.79C166.253 300.932 165.029 295.949 164.22 290.89C164.64 290.02 165.06 289.24 165.45 288.58L173.07 293.29C173.07 293.29 168.45 299.88 168.98 300.29C169.51 300.7 176.63 296.73 176.98 296.6C177.33 296.47 181.45 299.28 181.45 299.28Z" fill="black"/>
<path d="M219 270.26L223.52 266.26C223.881 265.118 224.378 264.024 225 263C225.49 262.59 233.72 261.95 233.72 261.95C233.72 261.95 233.88 266.3 233.23 267.43C232.58 268.56 225.86 269.05 225.86 269.05L222.26 272.52L219 270.26Z" fill="#EEC1BB"/>
<path d="M243.08 365.05C241.79 383.61 238.34 409.95 238.34 409.95L233.9 410.95C233.9 410.95 229.8 388.9 230.45 368.44C230.566 363.98 230.987 359.533 231.71 355.13C231.71 355.13 216.33 349.22 205.65 343.93C200.55 341.41 196.52 339.02 195.75 337.48C193.37 332.73 204.19 321.57 204.19 321.57C204.53 321.84 211.06 326 218.66 330.93C228.75 337.47 240.72 345.37 242.66 347.34C243.82 348.47 243.72 355.79 243.08 365.05Z" fill="#EEC1BB"/>
<path opacity="0.2" d="M243.08 365.05C238.976 366.538 234.75 367.666 230.45 368.42C230.566 363.96 230.987 359.513 231.71 355.11C231.71 355.11 216.33 349.2 205.65 343.91L218.65 330.91C228.74 337.45 240.71 345.35 242.65 347.32C243.82 348.47 243.72 355.79 243.08 365.05Z" fill="black"/>
<path d="M208.46 318.47C208.46 318.47 251.13 343 256.93 348.54C262.73 354.08 296.21 405.85 296.21 405.85L293.39 408.54C293.39 408.54 265.59 384.68 254.5 362L208.5 339.77L208.46 318.47Z" fill="#EEC1BB"/>
<path d="M176 273.18C176.069 273.228 176.143 273.268 176.22 273.3C177.268 273.894 178.424 274.271 179.62 274.41C183.1 274.72 185.34 273.94 186.62 272.2C188.4 269.62 188.36 265.5 187.38 260.65C187.056 258.709 186.424 256.832 185.51 255.09C185.51 255.09 185.51 255.02 185.51 255.01L185.39 254.81C184.833 253.834 184.041 253.014 183.086 252.423C182.13 251.833 181.042 251.491 179.92 251.43C178.943 251.349 177.961 251.376 176.99 251.51C167.49 252.74 168 268.76 176 273.18Z" fill="#EEC1BB"/>
<path opacity="0.2" d="M176.26 273.3C177.31 273.861 178.464 274.201 179.65 274.3C183.12 274.61 185.35 273.71 186.65 271.96C184.705 272.735 182.561 272.858 180.54 272.31C179.798 272.138 179.027 272.138 178.285 272.31C177.544 272.481 176.851 272.82 176.26 273.3Z" fill="black"/>
<path d="M175.62 281.12C174.79 283.8 178.22 285.22 178.22 285.22C184.22 283.22 185.57 280.29 185.57 280.29C180.97 277.29 182.99 270.35 182.99 270.35L181.99 270.75L174.99 271.49C174.99 271.49 176.58 275.32 176.76 276.18C177.64 280.69 175.62 281.12 175.62 281.12Z" fill="#EBB376"/>
<path d="M185.57 255C185.57 255 187.03 261.61 181.1 265.36C181.1 265.36 179.35 272.69 175.36 273.36C169.92 274.26 164.03 267.17 164.81 258.99C165.83 248.41 181.25 245.4 185.57 255Z" fill="#263238"/>
<path d="M184 263C183.85 262 182.77 260.32 181.18 260.79C179.59 261.26 179.18 265.53 183.44 265.88C184.09 266 184.35 265.2 184 263Z" fill="#EBB376"/>
<path d="M294.35 402.67L289.75 406.21C289.656 406.286 289.59 406.391 289.563 406.509C289.535 406.627 289.549 406.75 289.6 406.86L291.94 411.86C291.99 411.966 292.061 412.061 292.148 412.139C292.235 412.218 292.337 412.278 292.448 412.317C292.558 412.356 292.676 412.373 292.793 412.367C292.91 412.36 293.024 412.331 293.13 412.28C293.19 412.252 293.247 412.219 293.3 412.18C295.16 410.69 295.22 410.46 297.59 408.64C299.04 407.52 303.59 404.28 305.59 402.73C307.59 401.18 306.33 398.99 305.37 399.44C301.05 401.44 297.37 402.51 295.37 402.36C295.003 402.332 294.639 402.443 294.35 402.67Z" fill="#263238"/>
<path d="M295.35 402.58C295.324 402.592 295.296 402.597 295.268 402.592C295.24 402.588 295.213 402.575 295.193 402.555C295.172 402.536 295.158 402.511 295.152 402.483C295.146 402.455 295.149 402.426 295.16 402.4C295.25 402.16 296.07 400.01 296.81 399.88C296.892 399.862 296.977 399.869 297.055 399.899C297.134 399.929 297.201 399.982 297.25 400.05C297.352 400.151 297.427 400.277 297.467 400.415C297.507 400.553 297.512 400.7 297.48 400.84C297.361 401.248 297.103 401.602 296.75 401.84C296.313 402.14 295.843 402.388 295.35 402.58ZM295.56 402.17C296.266 401.931 296.853 401.429 297.2 400.77C297.22 400.675 297.215 400.577 297.187 400.485C297.159 400.392 297.109 400.308 297.04 400.24C296.96 400.16 296.89 400.14 296.86 400.17C296.797 400.182 296.739 400.209 296.69 400.25C296.195 400.812 295.811 401.464 295.56 402.17Z" fill="#00B35F"/>
<path d="M295.34 402.63C295.315 402.631 295.29 402.626 295.268 402.615C295.245 402.605 295.225 402.589 295.21 402.57C295.21 402.5 294.21 401.03 294.42 400.15C294.444 400.043 294.489 399.942 294.552 399.853C294.616 399.763 294.697 399.688 294.79 399.63C294.875 399.562 294.981 399.525 295.09 399.525C295.199 399.525 295.305 399.562 295.39 399.63C295.88 400.06 295.73 401.85 295.44 402.5L295.39 402.55L295.34 402.63ZM294.67 400.17C294.667 400.861 294.873 401.537 295.26 402.11C295.499 401.362 295.463 400.554 295.16 399.83C295.16 399.83 295.05 399.72 294.91 399.83H294.85C294.751 399.918 294.687 400.039 294.67 400.17Z" fill="#00B35F"/>
<path d="M239.12 407L233.31 407.11C233.191 407.116 233.077 407.162 232.987 407.24C232.896 407.318 232.834 407.423 232.81 407.54L231.72 412.95C231.688 413.176 231.743 413.406 231.875 413.592C232.007 413.778 232.206 413.906 232.43 413.95C232.496 413.96 232.564 413.96 232.63 413.95C235 413.86 235.19 413.71 238.18 413.65C240.02 413.65 245.57 413.7 248.11 413.65C250.65 413.6 250.93 411.08 249.89 410.87C245.2 409.95 241.67 408.61 240.15 407.3C239.858 407.072 239.489 406.965 239.12 407Z" fill="#263238"/>
<path d="M239.64 407.64C239.611 407.636 239.584 407.621 239.564 407.599C239.544 407.578 239.532 407.55 239.53 407.52C239.522 407.493 239.524 407.465 239.535 407.439C239.546 407.414 239.565 407.393 239.59 407.38C239.8 407.24 241.73 406 242.41 406.33C242.487 406.365 242.553 406.421 242.599 406.492C242.645 406.563 242.67 406.645 242.67 406.73C242.69 406.872 242.674 407.017 242.623 407.152C242.572 407.287 242.489 407.406 242.38 407.5C242.044 407.742 241.633 407.859 241.22 407.83C240.688 407.827 240.158 407.763 239.64 407.64ZM240.05 407.43C240.759 407.657 241.529 407.603 242.2 407.28C242.271 407.215 242.324 407.134 242.356 407.043C242.387 406.952 242.395 406.855 242.38 406.76C242.38 406.65 242.32 406.6 242.29 406.6C242.227 406.586 242.163 406.586 242.1 406.6C241.371 406.745 240.675 407.027 240.05 407.43Z" fill="#00B35F"/>
<path d="M239.6 407.67C239.576 407.658 239.557 407.639 239.545 407.616C239.532 407.593 239.527 407.566 239.53 407.54C239.53 407.46 239.64 405.72 240.33 405.13C240.412 405.056 240.509 405.001 240.614 404.968C240.719 404.935 240.831 404.926 240.94 404.94C241.049 404.938 241.156 404.973 241.241 405.041C241.327 405.108 241.387 405.203 241.41 405.31C241.54 405.94 240.41 407.31 239.74 407.65H239.67C239.65 407.665 239.625 407.672 239.6 407.67ZM240.52 405.3C240.108 405.855 239.871 406.52 239.84 407.21C240.46 406.73 241.21 405.7 241.12 405.31C241.12 405.31 241.12 405.17 240.91 405.17H240.84C240.721 405.172 240.607 405.219 240.52 405.3Z" fill="#00B35F"/>
<path d="M207.27 311.9L186.1 320.79C177.35 299.04 165.45 288.58 165.45 288.58C173.93 278.41 189.59 273.73 189.59 273.73C191.903 275.612 193.898 277.854 195.5 280.37C197.266 283.103 198.804 285.976 200.1 288.96C203.245 296.35 205.647 304.034 207.27 311.9Z" fill="#00B35F"/>
<path d="M185.37 259.42C185.37 259.42 192.02 252.64 185.65 248.17C179.28 243.7 172.96 249.67 172.96 249.67C172.96 249.67 157.83 253.48 161.15 263.53C164.47 273.58 166.59 274.41 161.84 279.63C157.09 284.85 152.25 292.55 157.21 297.4C162.17 302.25 179.27 297.05 184.4 289.61C189.53 282.17 180.19 266.4 185.37 259.42Z" fill="#263238"/>
<path d="M205.73 305.38L182.73 313.27C182.73 313.27 187.82 338.32 191.51 342.51C195.2 346.7 219.87 366.1 223.36 364.57C226.85 363.04 250 342.51 250 342.51L210.83 315.65L205.73 305.38Z" fill="#263238"/>
<path d="M202.38 310.09L207.27 308.47L206.06 306.05L201.43 307.68L202.38 310.09Z" fill="black"/>
<path d="M187.76 312.49L182.75 314.25L183.42 316.39L188.32 314.76L187.76 312.49Z" fill="black"/>
<path d="M189.37 314.41L201.4 310.42L200.5 308L188.71 312.15L189.37 314.41Z" fill="black"/>
<path opacity="0.2" d="M200.1 289C195.04 288.41 192.19 280.8 192.19 280.8C193.284 280.604 194.39 280.473 195.5 280.41C197.266 283.143 198.804 286.016 200.1 289Z" fill="black"/>
<path d="M189.59 273.73C195.09 272.91 207.39 277.37 208.46 277.32C209.53 277.27 221.46 267.89 221.46 267.89L224.56 270.62C224.56 270.62 212.06 283.51 209.49 283.62C206.92 283.73 193.49 282.76 193.49 282.76C193.49 282.76 190.2 281.59 189.57 278.62C189.186 277.012 189.193 275.335 189.59 273.73Z" fill="#00B35F"/>
</svg>
