<svg width="59" height="59" viewBox="0 0 59 59" fill="none" xmlns="http://www.w3.org/2000/svg">
<path fill-rule="evenodd" clip-rule="evenodd" d="M4.3188 4.3188C0 8.6435 0 15.5937 0 29.5C0 43.4063 0 50.3595 4.3188 54.6782C8.6435 59 15.5937 59 29.5 59C43.4063 59 50.3595 59 54.6782 54.6782C59 50.3624 59 43.4063 59 29.5C59 15.5937 59 8.64055 54.6782 4.3188C50.3624 0 43.4063 0 29.5 0C15.5937 0 8.64055 0 4.3188 4.3188ZM44.25 30.2375C44.8368 30.2375 45.3996 30.4706 45.8145 30.8855C46.2294 31.3005 46.4625 31.8632 46.4625 32.45V47.2C46.4625 47.7868 46.2294 48.3496 45.8145 48.7645C45.3996 49.1794 44.8368 49.4125 44.25 49.4125C43.6632 49.4125 43.1004 49.1794 42.6855 48.7645C42.2706 48.3496 42.0375 47.7868 42.0375 47.2V32.45C42.0375 31.8632 42.2706 31.3005 42.6855 30.8855C43.1004 30.4706 43.6632 30.2375 44.25 30.2375ZM31.7125 11.8C31.7125 11.2132 31.4794 10.6505 31.0645 10.2355C30.6495 9.8206 30.0868 9.5875 29.5 9.5875C28.9132 9.5875 28.3505 9.8206 27.9355 10.2355C27.5206 10.6505 27.2875 11.2132 27.2875 11.8V47.2C27.2875 47.7868 27.5206 48.3496 27.9355 48.7645C28.3505 49.1794 28.9132 49.4125 29.5 49.4125C30.0868 49.4125 30.6495 49.1794 31.0645 48.7645C31.4794 48.3496 31.7125 47.7868 31.7125 47.2V11.8ZM14.75 18.4375C15.3368 18.4375 15.8996 18.6706 16.3145 19.0855C16.7294 19.5005 16.9625 20.0632 16.9625 20.65V47.2C16.9625 47.7868 16.7294 48.3496 16.3145 48.7645C15.8996 49.1794 15.3368 49.4125 14.75 49.4125C14.1632 49.4125 13.6005 49.1794 13.1855 48.7645C12.7706 48.3496 12.5375 47.7868 12.5375 47.2V20.65C12.5375 20.0632 12.7706 19.5005 13.1855 19.0855C13.6005 18.6706 14.1632 18.4375 14.75 18.4375Z" fill="#00B35F"/>
</svg>
