<svg width="56" height="50" viewBox="0 0 56 50" fill="none" xmlns="http://www.w3.org/2000/svg">
<path d="M22.828 27.7083L26.7977 31.3194C27.3575 31.8287 28.07 32.0833 28.9352 32.0833C29.8004 32.0833 30.5129 31.8287 31.0728 31.3194L39.7756 23.4028V25.0694C39.7756 25.8565 40.0688 26.5046 40.655 27.0139C41.2413 27.5231 41.9661 27.7778 42.8292 27.7778C43.6944 27.7778 44.4202 27.512 45.0065 26.9806C45.5928 26.4491 45.8849 25.7889 45.8829 25V16.6667C45.8829 15.8796 45.5897 15.2194 45.0034 14.6861C44.4171 14.1528 43.6924 13.887 42.8292 13.8889H33.592C32.7268 13.8889 32.0143 14.1556 31.4545 14.6889C30.8946 15.2222 30.6147 15.8815 30.6147 16.6667C30.6147 17.4537 30.9079 18.1139 31.4942 18.6472C32.0805 19.1806 32.8052 19.4463 33.6684 19.4444H35.4242L28.9352 25.4167L24.9655 21.8056C24.4057 21.25 23.6932 20.9722 22.828 20.9722C21.9628 20.9722 21.2503 21.25 20.6904 21.8056L11.3769 30.2778C10.7662 30.787 10.4608 31.4352 10.4608 32.2222C10.4608 33.0093 10.7662 33.6574 11.3769 34.1667C11.9367 34.7222 12.6492 35 13.5144 35C14.3796 35 15.0921 34.7222 15.652 34.1667L22.828 27.7083ZM6.18572 50C4.50622 50 3.06797 49.4556 1.87094 48.3667C0.673923 47.2778 0.0764301 45.9704 0.0784659 44.4444V5.55556C0.0784659 4.02778 0.676977 2.71945 1.874 1.63056C3.07102 0.541671 4.50826 -0.00184714 6.18572 4.71609e-06H48.9365C50.616 4.71609e-06 52.0542 0.544449 53.2513 1.63334C54.4483 2.72223 55.0458 4.02963 55.0437 5.55556V44.4444C55.0437 45.9722 54.4452 47.2806 53.2482 48.3694C52.0512 49.4583 50.6139 50.0018 48.9365 50H6.18572Z" fill="#0F003A"/>
</svg>
