<svg width="55" height="50" viewBox="0 0 55 50" fill="none" xmlns="http://www.w3.org/2000/svg">
<path fill-rule="evenodd" clip-rule="evenodd" d="M0 25C0 13.215 0 7.3225 4.02346 3.66C8.05241 0 14.5273 0 27.4826 0C40.438 0 46.9156 0 50.9391 3.66C54.9653 7.325 54.9653 13.215 54.9653 25C54.9653 36.785 54.9653 42.6775 50.9391 46.3375C46.9184 50 40.438 50 27.4826 50C14.5273 50 8.04966 50 4.02346 46.3375C0 42.68 0 36.785 0 25ZM41.224 28.125C41.6435 28.1251 42.0529 28.2417 42.3977 28.4591C42.7425 28.6765 43.0061 28.9845 43.1533 29.3418C43.3006 29.6991 43.3245 30.0888 43.2219 30.4588C43.1192 30.8288 42.8949 31.1615 42.5789 31.4125L33.1331 38.9125C32.7212 39.2397 32.1834 39.4047 31.6379 39.3712C31.0923 39.3377 30.5837 39.1084 30.224 38.7337C29.8643 38.3591 29.683 37.8699 29.7198 37.3736C29.7567 36.8773 30.0087 36.4147 30.4205 36.0875L35.7274 31.875H13.7413C13.1947 31.875 12.6704 31.6775 12.2838 31.3258C11.8973 30.9742 11.6801 30.4973 11.6801 30C11.6801 29.5027 11.8973 29.0258 12.2838 28.6742C12.6704 28.3225 13.1947 28.125 13.7413 28.125H41.224ZM24.7426 11.2675C25.1019 11.6422 25.2828 12.1313 25.2457 12.6273C25.2086 13.1233 24.9565 13.5856 24.5447 13.9125L19.2378 18.125H41.224C41.7706 18.125 42.2949 18.3225 42.6814 18.6742C43.068 19.0258 43.2852 19.5027 43.2852 20C43.2852 20.4973 43.068 20.9742 42.6814 21.3258C42.2949 21.6775 41.7706 21.875 41.224 21.875H13.7413C13.3218 21.8749 12.9123 21.7583 12.5676 21.5409C12.2228 21.3235 11.9592 21.0155 11.8119 20.6582C11.6647 20.3009 11.6408 19.9112 11.7434 19.5412C11.8461 19.1712 12.0704 18.8385 12.3864 18.5875L21.8322 11.0875C22.0362 10.9253 22.2734 10.8013 22.5301 10.7226C22.7868 10.6438 23.0581 10.6119 23.3284 10.6286C23.5988 10.6453 23.8628 10.7104 24.1054 10.82C24.3481 10.9296 24.5646 11.0817 24.7426 11.2675Z" fill="#0F003A"/>
</svg>
