<svg width="85" height="79" viewBox="0 0 85 79" fill="none" xmlns="http://www.w3.org/2000/svg">
<path fill-rule="evenodd" clip-rule="evenodd" d="M0 39.5C0 20.8797 0 11.5696 6.222 5.7828C12.4525 0 22.4655 0 42.5 0C62.5345 0 72.5518 0 78.7738 5.7828C85 11.5735 85 20.8797 85 39.5C85 58.1203 85 67.4305 78.7738 73.2132C72.556 79 62.5345 79 42.5 79C22.4655 79 12.4482 79 6.222 73.2132C0 67.4344 0 58.1203 0 39.5ZM63.75 44.4375C64.3987 44.4377 65.032 44.6218 65.5651 44.9654C66.0983 45.3089 66.5059 45.7955 66.7337 46.36C66.9614 46.9246 66.9984 47.5403 66.8396 48.1249C66.6809 48.7096 66.334 49.2352 65.8453 49.6317L51.238 61.4818C50.6011 61.9987 49.7694 62.2594 48.9258 62.2065C48.0821 62.1535 47.2956 61.7912 46.7394 61.1993C46.1831 60.6074 45.9026 59.8344 45.9596 59.0503C46.0166 58.2662 46.4064 57.5352 47.0433 57.0182L55.25 50.3625H21.25C20.4046 50.3625 19.5939 50.0504 18.9961 49.4948C18.3983 48.9392 18.0625 48.1857 18.0625 47.4C18.0625 46.6143 18.3983 45.8608 18.9961 45.3052C19.5939 44.7496 20.4046 44.4375 21.25 44.4375H63.75ZM38.2628 17.8027C38.8183 18.3946 39.0981 19.1674 39.0407 19.9511C38.9834 20.7348 38.5934 21.4652 37.9567 21.9818L29.75 28.6375H63.75C64.5954 28.6375 65.4061 28.9496 66.0039 29.5052C66.6017 30.0608 66.9375 30.8143 66.9375 31.6C66.9375 32.3857 66.6017 33.1392 66.0039 33.6948C65.4061 34.2504 64.5954 34.5625 63.75 34.5625H21.25C20.6013 34.5623 19.968 34.3782 19.4349 34.0346C18.9017 33.6911 18.4941 33.2045 18.2663 32.64C18.0386 32.0754 18.0016 31.4597 18.1604 30.8751C18.3191 30.2904 18.666 29.7648 19.1548 29.3683L33.762 17.5182C34.0775 17.262 34.4442 17.0661 34.8412 16.9416C35.2383 16.8172 35.6578 16.7668 36.0758 16.7932C36.4938 16.8196 36.9021 16.9224 37.2774 17.0956C37.6527 17.2688 37.9875 17.5091 38.2628 17.8027Z" fill="#00B35F"/>
</svg>
