<svg width="54" height="54" viewBox="0 0 54 54" fill="none" xmlns="http://www.w3.org/2000/svg">
<path fill-rule="evenodd" clip-rule="evenodd" d="M27.1404 0H26.8596C24.4323 0 22.41 1.16337e-07 20.8062 0.208193C19.1106 0.426795 17.5797 0.910844 16.3512 2.09494C15.12 3.28164 14.6178 4.7572 14.391 6.38892C14.2371 7.50014 14.1912 10.152 14.1804 12.4265C8.721 12.6009 5.4405 13.215 3.1644 15.4115C-3.21865e-07 18.4589 0 23.367 0 33.1807C0 42.9944 -3.21865e-07 47.9026 3.1644 50.95C6.3261 54 11.4183 54 21.6 54H32.4C42.5817 54 47.6739 54 50.8356 50.95C54 47.9026 54 42.9944 54 33.1807C54 23.367 54 18.4589 50.8356 15.4115C48.5595 13.215 45.279 12.6009 39.8196 12.4291C39.8088 10.152 39.7656 7.50014 39.609 6.39152C39.3822 4.7572 38.88 3.28164 37.6488 2.09754C36.4203 0.910843 34.8894 0.426795 33.1938 0.208193C31.59 1.16337e-07 29.565 0 27.1404 0ZM35.7696 12.3667C35.7561 10.1624 35.7183 7.79161 35.5968 6.9094C35.4267 5.70969 35.1378 5.19441 34.7868 4.8561C34.4358 4.51778 33.9012 4.23933 32.6538 4.07537C31.3524 3.90882 29.6028 3.90361 27 3.90361C24.3972 3.90361 22.6476 3.90882 21.3435 4.07798C20.0988 4.23933 19.5642 4.51778 19.2132 4.8587C18.8622 5.19701 18.5733 5.70969 18.4032 6.9094C18.2817 7.79422 18.2412 10.1624 18.2304 12.3667C19.2861 12.3614 20.412 12.3614 21.6 12.3614H32.4C33.5907 12.3614 34.7139 12.3614 35.7696 12.3667ZM27 20.8193C27.5371 20.8193 28.0521 21.0249 28.4319 21.3909C28.8117 21.757 29.025 22.2534 29.025 22.7711V22.7971C31.9653 23.5102 34.425 25.7456 34.425 28.8425C34.425 29.3602 34.2117 29.8566 33.8319 30.2226C33.4521 30.5887 32.9371 30.7943 32.4 30.7943C31.8629 30.7943 31.3479 30.5887 30.9681 30.2226C30.5883 29.8566 30.375 29.3602 30.375 28.8425C30.375 27.8432 29.2248 26.4587 27 26.4587C24.7752 26.4587 23.625 27.8432 23.625 28.8425C23.625 29.8418 24.7752 31.2289 27 31.2289C30.7395 31.2289 34.425 33.7272 34.425 37.5189C34.425 40.6158 31.9653 42.8487 29.025 43.5643V43.5904C29.025 44.108 28.8117 44.6045 28.4319 44.9705C28.0521 45.3365 27.5371 45.5422 27 45.5422C26.4629 45.5422 25.9479 45.3365 25.5681 44.9705C25.1883 44.6045 24.975 44.108 24.975 43.5904V43.5643C22.0347 42.8513 19.575 40.6158 19.575 37.5189C19.575 37.0013 19.7883 36.5048 20.1681 36.1388C20.5479 35.7728 21.0629 35.5671 21.6 35.5671C22.1371 35.5671 22.6521 35.7728 23.0319 36.1388C23.4117 36.5048 23.625 37.0013 23.625 37.5189C23.625 38.5183 24.7752 39.9027 27 39.9027C29.2248 39.9027 30.375 38.5183 30.375 37.5189C30.375 36.5196 29.2248 35.1325 27 35.1325C23.2605 35.1325 19.575 32.6342 19.575 28.8425C19.575 25.7456 22.0347 23.5102 24.975 22.7971V22.7711C24.975 22.2534 25.1883 21.757 25.5681 21.3909C25.9479 21.0249 26.4629 20.8193 27 20.8193Z" fill="#0F003A"/>
</svg>
