<svg width="54" height="54" viewBox="0 0 54 54" fill="none" xmlns="http://www.w3.org/2000/svg">
<path d="M52.7868 31.7523C53.2856 32.1047 53.6576 32.5974 53.851 33.162C54.0444 33.7267 54.0496 34.3351 53.8659 34.9026C52.592 38.8099 50.4253 42.395 47.5236 45.3968C47.1047 45.8277 46.5568 46.1234 45.9554 46.2433C45.354 46.3631 44.7287 46.3011 44.1656 46.0658L40.2368 44.4116C39.8075 44.2283 39.3396 44.1438 38.8703 44.1648C38.4026 44.1909 37.948 44.323 37.5439 44.5504C37.1392 44.7751 36.7958 45.0887 36.5418 45.4654C36.2878 45.8421 36.1306 46.2712 36.0829 46.7174L35.6107 50.8241C35.5426 51.4087 35.2879 51.9589 34.8814 52.3993C34.4749 52.8397 33.9365 53.1487 33.3398 53.2842C29.1679 54.2386 24.8191 54.2386 20.6471 53.2842C20.0546 53.1467 19.5203 52.8383 19.1161 52.4005C18.7118 51.9627 18.4572 51.4166 18.3863 50.8357L17.9141 46.7367C17.8324 46.0382 17.4855 45.393 16.9394 44.9244C16.5125 44.5632 15.9878 44.3254 15.4259 44.2384C14.864 44.1514 14.2879 44.2188 13.7642 44.4328L9.83547 46.0889C9.27392 46.3241 8.65028 46.3868 8.05012 46.2684C7.44996 46.15 6.9027 45.8563 6.48345 45.4276C3.577 42.4228 1.40733 38.8328 0.13309 34.92C-0.0496095 34.3531 -0.0440845 33.7458 0.1489 33.182C0.341885 32.6183 0.712782 32.1261 1.21024 31.7735L4.67681 29.3153C5.0556 29.0488 5.36364 28.7005 5.57597 28.2986C5.7883 27.8966 5.89894 27.4523 5.89894 27.0017C5.89894 26.5511 5.7883 26.1068 5.57597 25.7048C5.36364 25.3029 5.0556 24.9545 4.67681 24.6881L1.21024 22.2337C0.715441 21.8831 0.346151 21.3938 0.15324 20.8334C-0.0396709 20.273 -0.0467105 19.669 0.13309 19.1046C1.40697 15.195 3.57601 11.6081 6.48144 8.60661C6.76278 8.31548 7.10441 8.08412 7.48624 7.92988C7.85816 7.77875 8.25795 7.70087 8.66186 7.70087C9.06577 7.70087 9.46555 7.77875 9.83748 7.92988L13.7502 9.5841C14.1806 9.76149 14.6484 9.8397 15.116 9.81248C15.5836 9.78526 16.0381 9.65337 16.4431 9.42735C16.848 9.20134 17.1922 8.88749 17.4479 8.51094C17.7037 8.13439 17.8641 7.70561 17.9161 7.25893L18.3904 3.16771C18.4593 2.57695 18.7186 2.02154 19.1322 1.57884C19.5457 1.13615 20.0928 0.828215 20.6974 0.697937C22.7743 0.258314 24.8929 0.024442 27.0196 0C29.1337 0.023136 31.2398 0.256424 33.3036 0.697937C33.9095 0.827307 34.4578 1.13577 34.8714 1.57988C35.2849 2.02399 35.5427 2.58136 35.6087 3.17349L36.0829 7.26086C36.1332 7.70686 36.2922 8.13526 36.547 8.51141C36.8017 8.88757 37.1452 9.20093 37.5496 9.42616C37.954 9.65139 38.4079 9.78218 38.8747 9.80794C39.3416 9.8337 39.8082 9.75372 40.2368 9.57446L44.1475 7.92217C44.7114 7.68675 45.3375 7.62449 45.9398 7.74392C46.5421 7.86335 47.0911 8.15863 47.5116 8.58926C50.4152 11.5876 52.583 15.1713 53.8559 19.0776C54.0399 19.644 54.0348 20.2514 53.8413 20.8149C53.6478 21.3783 53.2756 21.8697 52.7767 22.2202L49.3202 24.6746C48.9399 24.9386 48.6302 25.2853 48.4163 25.6863C48.2024 26.0872 48.0905 26.531 48.0897 26.9814C48.089 27.4318 48.1993 27.876 48.4118 28.2776C48.6242 28.6792 48.9328 29.0269 49.3122 29.2922L52.7868 31.7523ZM26.9995 34.6983C29.1314 34.6983 31.176 33.8858 32.6835 32.4395C34.191 30.9932 35.0379 29.0316 35.0379 26.9863C35.0379 24.9409 34.191 22.9793 32.6835 21.533C31.176 20.0868 29.1314 19.2742 26.9995 19.2742C24.8676 19.2742 22.823 20.0868 21.3155 21.533C19.808 22.9793 18.9611 24.9409 18.9611 26.9863C18.9611 29.0316 19.808 30.9932 21.3155 32.4395C22.823 33.8858 24.8676 34.6983 26.9995 34.6983Z" fill="#0F003A"/>
</svg>
