<svg width="204" height="203" viewBox="0 0 204 203" fill="none" xmlns="http://www.w3.org/2000/svg">
<path d="M165.716 178.847C168.21 176.779 170.6 174.593 172.886 172.288M156.838 101.633C156.826 87.834 151.635 74.5426 142.292 64.3881C132.949 54.2337 120.135 47.956 106.385 46.7971C92.635 45.6382 78.9509 49.6826 68.0401 58.13C57.1294 66.5774 49.7868 78.8125 47.4651 92.4144C45.1434 106.016 48.0117 119.994 55.5026 131.583C62.9935 143.171 74.5612 151.526 87.917 154.993C101.273 158.461 115.444 156.789 127.626 150.309C139.808 143.829 149.115 133.012 153.703 119.999C155.784 114.099 156.841 107.888 156.838 101.633Z" stroke="#4ECB71" stroke-width="2.08333" stroke-linecap="round" stroke-linejoin="round"/>
<path d="M202 101.633C202.027 86.0803 198.436 70.7347 191.513 56.8086C184.589 42.8824 174.521 30.7571 162.106 21.3909C149.69 12.0247 135.266 5.67414 119.974 2.84103C104.682 0.00791376 88.9402 0.769878 73.9931 5.06671C59.0461 9.36355 45.3031 17.0775 33.85 27.5991C22.3969 38.1207 13.5475 51.1616 8.00117 65.6914C2.45481 80.2212 0.363405 95.8417 1.89221 111.319C3.42101 126.796 8.52812 141.705 16.81 154.869L10.587 192.749L48.4665 186.526C62.1044 195.117 77.6158 200.288 93.6812 201.597C109.747 202.906 125.89 200.316 140.74 194.046" stroke="#4ECB71" stroke-width="2.08333" stroke-linecap="round" stroke-linejoin="round"/>
<path d="M153.694 119.994C146.958 136.424 157.925 145.264 167.362 147.41C178.871 150.022 202 137.991 202 101.633" stroke="#4ECB71" stroke-width="2.08333" stroke-linecap="round" stroke-linejoin="round"/>
<path d="M102.059 61.4695C80.1643 61.4695 62.2508 79.383 62.2508 101.277C62.2508 123.171 80.1643 141.085 102.059 141.085C123.953 141.085 141.866 123.171 141.866 101.277C141.866 79.383 123.953 61.4695 102.059 61.4695ZM94.097 121.181L74.1931 101.277L79.806 95.6643L94.097 109.915L124.311 79.7014L129.924 85.3541L94.097 121.181Z" fill="#4ECB71"/>
</svg>
