<svg width="59" height="59" viewBox="0 0 59 59" fill="none" xmlns="http://www.w3.org/2000/svg">
<path d="M0.0695897 8.60417C2.55471 6.22299 5.75924 4.91109 9.07692 4.91667H49.9231C53.3753 4.91667 56.528 6.30972 58.9304 8.60417C58.654 6.22757 57.5864 4.042 55.9279 2.45776C54.2694 0.873522 52.1342 -0.000422846 49.9231 1.53481e-07H9.07692C6.8658 -0.000422846 4.73057 0.873522 3.0721 2.45776C1.41363 4.042 0.34598 6.22757 0.0695897 8.60417ZM0.0695897 18.4375C2.55471 16.0563 5.75924 14.7444 9.07692 14.75H49.9231C53.3753 14.75 56.528 16.1431 58.9304 18.4375C58.654 16.0609 57.5864 13.8753 55.9279 12.2911C54.2694 10.7069 52.1342 9.83291 49.9231 9.83333H9.07692C6.8658 9.83291 4.73057 10.7069 3.0721 12.2911C1.41363 13.8753 0.34598 16.0609 0.0695897 18.4375ZM9.07692 19.6667C6.66957 19.6667 4.36082 20.7027 2.65857 22.5468C0.956316 24.3909 0 26.892 0 29.5V49.1667C0 51.7746 0.956316 54.2758 2.65857 56.1199C4.36082 57.964 6.66957 59 9.07692 59H49.9231C52.3304 59 54.6392 57.964 56.3414 56.1199C58.0437 54.2758 59 51.7746 59 49.1667V29.5C59 26.892 58.0437 24.3909 56.3414 22.5468C54.6392 20.7027 52.3304 19.6667 49.9231 19.6667H38.5769C37.9751 19.6667 37.3979 19.9257 36.9723 20.3867C36.5468 20.8477 36.3077 21.473 36.3077 22.125C36.3077 24.081 35.5905 25.9568 34.3138 27.3399C33.0371 28.723 31.3055 29.5 29.5 29.5C27.6945 29.5 25.9629 28.723 24.6862 27.3399C23.4095 25.9568 22.6923 24.081 22.6923 22.125C22.6923 21.473 22.4532 20.8477 22.0277 20.3867C21.6021 19.9257 21.0249 19.6667 20.4231 19.6667H9.07692Z" fill="#00B35F"/>
</svg>
